%TF.GenerationSoftware,KiCad,Pcbnew,9.0.3*%
%TF.CreationDate,2026-05-06T17:25:10-07:00*%
%TF.ProjectId,microwave-coil-2,6d696372-6f77-4617-9665-2d636f696c2d,rev?*%
%TF.SameCoordinates,Original*%
%TF.FileFunction,Copper,L1,Top*%
%TF.FilePolarity,Positive*%
%FSLAX46Y46*%
G04 Gerber Fmt 4.6, Leading zero omitted, Abs format (unit mm)*
G04 Created by KiCad (PCBNEW 9.0.3) date 2026-05-06 17:25:10*
%MOMM*%
%LPD*%
G01*
G04 APERTURE LIST*
G04 APERTURE END LIST*
%TA.AperFunction,Conductor*%
%TO.N,signal*%
G36*
X50024668Y-98850733D02*
G01*
X91978640Y-100097878D01*
X91983555Y-100100000D01*
X92050000Y-100100000D01*
X92050000Y-100400000D01*
X92009890Y-100401192D01*
X92009889Y-100401191D01*
X50024713Y-101649265D01*
X50007541Y-101642743D01*
X50000011Y-101625989D01*
X50000000Y-101625276D01*
X50000000Y-98874723D01*
X50007029Y-98857752D01*
X50024000Y-98850723D01*
X50024668Y-98850733D01*
G37*
%TD.AperFunction*%
%TD*%
%TA.AperFunction,Conductor*%
%TO.N,signal*%
G36*
X100189061Y-92001742D02*
G01*
X100189816Y-92001759D01*
X100441473Y-92011696D01*
X100442206Y-92011737D01*
X100693441Y-92029615D01*
X100694110Y-92029673D01*
X100944728Y-92055480D01*
X100945416Y-92055563D01*
X101195031Y-92089261D01*
X101195728Y-92089366D01*
X101444188Y-92130933D01*
X101444861Y-92131057D01*
X101691856Y-92180440D01*
X101692546Y-92180589D01*
X101937880Y-92237751D01*
X101938581Y-92237926D01*
X102097822Y-92280370D01*
X102181906Y-92302782D01*
X102182635Y-92302988D01*
X102248134Y-92322680D01*
X102423867Y-92375516D01*
X102424536Y-92375729D01*
X102541495Y-92414960D01*
X102663302Y-92455817D01*
X102664017Y-92456069D01*
X102900191Y-92543674D01*
X102900826Y-92543922D01*
X103134093Y-92638930D01*
X103134790Y-92639227D01*
X103364877Y-92741524D01*
X103365558Y-92741839D01*
X103477120Y-92795719D01*
X103592384Y-92851387D01*
X103593061Y-92851728D01*
X103816235Y-92968341D01*
X103816893Y-92968697D01*
X104036378Y-93092355D01*
X104036958Y-93092695D01*
X104252357Y-93223176D01*
X104252999Y-93223578D01*
X104357319Y-93291364D01*
X104464207Y-93360818D01*
X104464831Y-93361238D01*
X104671578Y-93505060D01*
X104672147Y-93505469D01*
X104772142Y-93579822D01*
X104874264Y-93655756D01*
X104874864Y-93656217D01*
X105072124Y-93812800D01*
X105072710Y-93813281D01*
X105264886Y-93975978D01*
X105265457Y-93976476D01*
X105452470Y-94145219D01*
X105453024Y-94145736D01*
X105634565Y-94320250D01*
X105635103Y-94320784D01*
X105811045Y-94500943D01*
X105811566Y-94501493D01*
X105981764Y-94687150D01*
X105982255Y-94687703D01*
X106146531Y-94878666D01*
X106146962Y-94879185D01*
X106225537Y-94976583D01*
X106305093Y-95075197D01*
X106305560Y-95075794D01*
X106457428Y-95276707D01*
X106457875Y-95277318D01*
X106603322Y-95482919D01*
X106603750Y-95483545D01*
X106742627Y-95693625D01*
X106743035Y-95694264D01*
X106875217Y-95908634D01*
X106875604Y-95909285D01*
X107000938Y-96127697D01*
X107001305Y-96128360D01*
X107119702Y-96350655D01*
X107120047Y-96351329D01*
X107231343Y-96577201D01*
X107231668Y-96577886D01*
X107335806Y-96807223D01*
X107336108Y-96807918D01*
X107432940Y-97040390D01*
X107433220Y-97041094D01*
X107522660Y-97276498D01*
X107522918Y-97277210D01*
X107604895Y-97515357D01*
X107605130Y-97516078D01*
X107679531Y-97756636D01*
X107679744Y-97757363D01*
X107746532Y-98000219D01*
X107746721Y-98000953D01*
X107805798Y-98245751D01*
X107805964Y-98246490D01*
X107857284Y-98493031D01*
X107857427Y-98493775D01*
X107900944Y-98741842D01*
X107901063Y-98742591D01*
X107936720Y-98991865D01*
X107936816Y-98992616D01*
X107964595Y-99242959D01*
X107964666Y-99243714D01*
X107984521Y-99494739D01*
X107984569Y-99495495D01*
X107996492Y-99747054D01*
X107996516Y-99747811D01*
X108000493Y-99999621D01*
X108000493Y-100000379D01*
X107996516Y-100252188D01*
X107996492Y-100252945D01*
X107984569Y-100504504D01*
X107984521Y-100505260D01*
X107964666Y-100756285D01*
X107964595Y-100757040D01*
X107936816Y-101007383D01*
X107936720Y-101008134D01*
X107901063Y-101257408D01*
X107900944Y-101258157D01*
X107857427Y-101506224D01*
X107857284Y-101506968D01*
X107805964Y-101753509D01*
X107805798Y-101754248D01*
X107746721Y-101999046D01*
X107746532Y-101999780D01*
X107679744Y-102242636D01*
X107679531Y-102243363D01*
X107605130Y-102483921D01*
X107604895Y-102484642D01*
X107522918Y-102722789D01*
X107522660Y-102723501D01*
X107433220Y-102958905D01*
X107432940Y-102959609D01*
X107336108Y-103192081D01*
X107335806Y-103192776D01*
X107231668Y-103422113D01*
X107231343Y-103422798D01*
X107120047Y-103648670D01*
X107119702Y-103649344D01*
X107001305Y-103871639D01*
X107000938Y-103872302D01*
X106875604Y-104090714D01*
X106875217Y-104091365D01*
X106743035Y-104305735D01*
X106742627Y-104306374D01*
X106603750Y-104516454D01*
X106603322Y-104517080D01*
X106457875Y-104722681D01*
X106457428Y-104723292D01*
X106305560Y-104924205D01*
X106305093Y-104924802D01*
X106146977Y-105120796D01*
X106146492Y-105121379D01*
X105982267Y-105312283D01*
X105981764Y-105312849D01*
X105811566Y-105498506D01*
X105811045Y-105499056D01*
X105635103Y-105679215D01*
X105634565Y-105679749D01*
X105453024Y-105854263D01*
X105452470Y-105854780D01*
X105265457Y-106023523D01*
X105264886Y-106024021D01*
X105072710Y-106186718D01*
X105072124Y-106187199D01*
X104874864Y-106343782D01*
X104874264Y-106344243D01*
X104672170Y-106494513D01*
X104671554Y-106494956D01*
X104464835Y-106638758D01*
X104464207Y-106639181D01*
X104252999Y-106776421D01*
X104252357Y-106776823D01*
X104036997Y-106907281D01*
X104036343Y-106907664D01*
X103816901Y-107031297D01*
X103816235Y-107031658D01*
X103593061Y-107148271D01*
X103592384Y-107148612D01*
X103365565Y-107258157D01*
X103364877Y-107258475D01*
X103134790Y-107360772D01*
X103134093Y-107361069D01*
X102900862Y-107456063D01*
X102900156Y-107456338D01*
X102664017Y-107543930D01*
X102663302Y-107544182D01*
X102424563Y-107624261D01*
X102423841Y-107624491D01*
X102182635Y-107697011D01*
X102181906Y-107697217D01*
X101938599Y-107762068D01*
X101937864Y-107762252D01*
X101692571Y-107819404D01*
X101691830Y-107819564D01*
X101444897Y-107868935D01*
X101444152Y-107869072D01*
X101195753Y-107910629D01*
X101195004Y-107910742D01*
X100945450Y-107944432D01*
X100944697Y-107944522D01*
X100694150Y-107970322D01*
X100693396Y-107970387D01*
X100442218Y-107988261D01*
X100441461Y-107988303D01*
X100189817Y-107998239D01*
X100189060Y-107998257D01*
X99937227Y-108000246D01*
X99936469Y-108000240D01*
X99684699Y-107994276D01*
X99683942Y-107994246D01*
X99432517Y-107980340D01*
X99431761Y-107980287D01*
X99180836Y-107958445D01*
X99180082Y-107958367D01*
X98930031Y-107928622D01*
X98929280Y-107928521D01*
X98680256Y-107890890D01*
X98679509Y-107890765D01*
X98431798Y-107845292D01*
X98431055Y-107845143D01*
X98184926Y-107791879D01*
X98184188Y-107791707D01*
X97939866Y-107730700D01*
X97939134Y-107730505D01*
X97696834Y-107661808D01*
X97696108Y-107661590D01*
X97456105Y-107585280D01*
X97455386Y-107585039D01*
X97217914Y-107501192D01*
X97217204Y-107500928D01*
X96982504Y-107409628D01*
X96981802Y-107409342D01*
X96750116Y-107310685D01*
X96749424Y-107310378D01*
X96520915Y-107204432D01*
X96520233Y-107204102D01*
X96295235Y-107091021D01*
X96294563Y-107090670D01*
X96073221Y-106970529D01*
X96072561Y-106970157D01*
X95855144Y-106843102D01*
X95854496Y-106842710D01*
X95641178Y-106708841D01*
X95640542Y-106708428D01*
X95431549Y-106567886D01*
X95430927Y-106567453D01*
X95226496Y-106420400D01*
X95225888Y-106419948D01*
X95026184Y-106266501D01*
X95025591Y-106266030D01*
X94929161Y-106186972D01*
X94830835Y-106106359D01*
X94830269Y-106105880D01*
X94640636Y-105940127D01*
X94640104Y-105939647D01*
X94455739Y-105767934D01*
X94455312Y-105767524D01*
X94276482Y-105590099D01*
X94275959Y-105589564D01*
X94102866Y-105406634D01*
X94102354Y-105406076D01*
X93935109Y-105217756D01*
X93934615Y-105217181D01*
X93773425Y-105023708D01*
X93772949Y-105023119D01*
X93617897Y-104824588D01*
X93617510Y-104824076D01*
X93468797Y-104620744D01*
X93468378Y-104620151D01*
X93326154Y-104412221D01*
X93325804Y-104411690D01*
X93190236Y-104199404D01*
X93189838Y-104198759D01*
X93061057Y-103982330D01*
X93060680Y-103981673D01*
X92938795Y-103761285D01*
X92938439Y-103760616D01*
X92823586Y-103536517D01*
X92823251Y-103535838D01*
X92715511Y-103308187D01*
X92715198Y-103307497D01*
X92614715Y-103076597D01*
X92614423Y-103075897D01*
X92521268Y-102841908D01*
X92520999Y-102841200D01*
X92499358Y-102781417D01*
X92435268Y-102604366D01*
X92435048Y-102603727D01*
X92356829Y-102364282D01*
X92356610Y-102363573D01*
X92321501Y-102243363D01*
X92285989Y-102121777D01*
X92285809Y-102121117D01*
X92222856Y-101877214D01*
X92222700Y-101876568D01*
X92167474Y-101630777D01*
X92167338Y-101630125D01*
X92119902Y-101382731D01*
X92119773Y-101381991D01*
X92080178Y-101133272D01*
X92080071Y-101132522D01*
X92048348Y-100882681D01*
X92048265Y-100881928D01*
X92024446Y-100631208D01*
X92024391Y-100630522D01*
X92008473Y-100378768D01*
X92000498Y-100126298D01*
X92000394Y-100100000D01*
X102491351Y-100100000D01*
X102508322Y-100107029D01*
X102514596Y-100118030D01*
X102524001Y-100154661D01*
X102524003Y-100154665D01*
X102547139Y-100213101D01*
X102547145Y-100213112D01*
X102577414Y-100268170D01*
X102577426Y-100268188D01*
X102614360Y-100319024D01*
X102614365Y-100319031D01*
X102657387Y-100364845D01*
X102657389Y-100364846D01*
X102705814Y-100404907D01*
X102705815Y-100404907D01*
X102705817Y-100404909D01*
X102758885Y-100438587D01*
X102815756Y-100465348D01*
X102875532Y-100484771D01*
X102937271Y-100496548D01*
X103000000Y-100500495D01*
X103062729Y-100496548D01*
X103124468Y-100484771D01*
X103184244Y-100465348D01*
X103241115Y-100438587D01*
X103294183Y-100404909D01*
X103342612Y-100364845D01*
X103385638Y-100319027D01*
X103422581Y-100268178D01*
X103452861Y-100213100D01*
X103475999Y-100154661D01*
X103491629Y-100093783D01*
X103499507Y-100031426D01*
X103499507Y-99968574D01*
X103491629Y-99906217D01*
X103475999Y-99845339D01*
X103452861Y-99786900D01*
X103422581Y-99731822D01*
X103385638Y-99680973D01*
X103385636Y-99680971D01*
X103385634Y-99680968D01*
X103342612Y-99635154D01*
X103342610Y-99635153D01*
X103294185Y-99595092D01*
X103294181Y-99595090D01*
X103241113Y-99561412D01*
X103241108Y-99561409D01*
X103184246Y-99534653D01*
X103184242Y-99534651D01*
X103154356Y-99524940D01*
X103124468Y-99515229D01*
X103124461Y-99515227D01*
X103124455Y-99515226D01*
X103062731Y-99503452D01*
X103000000Y-99499506D01*
X102937268Y-99503452D01*
X102875544Y-99515226D01*
X102875534Y-99515228D01*
X102875532Y-99515229D01*
X102875529Y-99515230D01*
X102815757Y-99534651D01*
X102815753Y-99534653D01*
X102758891Y-99561409D01*
X102758886Y-99561412D01*
X102705818Y-99595090D01*
X102705814Y-99595092D01*
X102657389Y-99635153D01*
X102657387Y-99635154D01*
X102614365Y-99680968D01*
X102614360Y-99680975D01*
X102577426Y-99731811D01*
X102577414Y-99731829D01*
X102547145Y-99786887D01*
X102547139Y-99786898D01*
X102524582Y-99843871D01*
X102524001Y-99845339D01*
X102516793Y-99873416D01*
X102514597Y-99881968D01*
X102503568Y-99896658D01*
X102491351Y-99900000D01*
X92024489Y-99900000D01*
X92024444Y-99899981D01*
X92024400Y-99900000D01*
X92016045Y-99896503D01*
X92007518Y-99892971D01*
X92007499Y-99892925D01*
X92007455Y-99892907D01*
X92003989Y-99884451D01*
X92000489Y-99876000D01*
X92000489Y-99875911D01*
X92000496Y-99873980D01*
X92000507Y-99873416D01*
X92008461Y-99621594D01*
X92008497Y-99620850D01*
X92012255Y-99561412D01*
X92024391Y-99369472D01*
X92024445Y-99368796D01*
X92048269Y-99118033D01*
X92048344Y-99117352D01*
X92080073Y-98867461D01*
X92080178Y-98866727D01*
X92119773Y-98618008D01*
X92119904Y-98617262D01*
X92167340Y-98369862D01*
X92167471Y-98369235D01*
X92222704Y-98123417D01*
X92222853Y-98122800D01*
X92285813Y-97878865D01*
X92285985Y-97878237D01*
X92356620Y-97636393D01*
X92356823Y-97635735D01*
X92435054Y-97396253D01*
X92435261Y-97395653D01*
X92521001Y-97158791D01*
X92521268Y-97158091D01*
X92614437Y-96924068D01*
X92614699Y-96923438D01*
X92715210Y-96692474D01*
X92715498Y-96691839D01*
X92823259Y-96464143D01*
X92823586Y-96463482D01*
X92938439Y-96239383D01*
X92938795Y-96238714D01*
X93060705Y-96018280D01*
X93061030Y-96017715D01*
X93189843Y-95801231D01*
X93190236Y-95800595D01*
X93325823Y-95588279D01*
X93326135Y-95587806D01*
X93468399Y-95379817D01*
X93468778Y-95379281D01*
X93617533Y-95175892D01*
X93617874Y-95175440D01*
X93772980Y-94976841D01*
X93773425Y-94976291D01*
X93854313Y-94879203D01*
X93934633Y-94782796D01*
X93935092Y-94782262D01*
X94102378Y-94593896D01*
X94102840Y-94593392D01*
X94275965Y-94410428D01*
X94276451Y-94409930D01*
X94455345Y-94232443D01*
X94455706Y-94232096D01*
X94640138Y-94060320D01*
X94640604Y-94059900D01*
X94830318Y-93894077D01*
X94830797Y-93893671D01*
X95025635Y-93733933D01*
X95026141Y-93733531D01*
X95225917Y-93580028D01*
X95226465Y-93579621D01*
X95430952Y-93432528D01*
X95431525Y-93432129D01*
X95640576Y-93291548D01*
X95641141Y-93291181D01*
X95854536Y-93157264D01*
X95855100Y-93156923D01*
X96072581Y-93029830D01*
X96073200Y-93029481D01*
X96294568Y-92909325D01*
X96295235Y-92908978D01*
X96409514Y-92851543D01*
X96520255Y-92795886D01*
X96520895Y-92795576D01*
X96749454Y-92689607D01*
X96750083Y-92689328D01*
X96981827Y-92590646D01*
X96982479Y-92590381D01*
X97217229Y-92499061D01*
X97217872Y-92498822D01*
X97455451Y-92414938D01*
X97456058Y-92414734D01*
X97696170Y-92338390D01*
X97696786Y-92338205D01*
X97939138Y-92269492D01*
X97939844Y-92269304D01*
X98184211Y-92208286D01*
X98184904Y-92208125D01*
X98431061Y-92154854D01*
X98431792Y-92154708D01*
X98679549Y-92109227D01*
X98680216Y-92109115D01*
X98929331Y-92071471D01*
X98929976Y-92071384D01*
X99180092Y-92041630D01*
X99180827Y-92041554D01*
X99431803Y-92019708D01*
X99432469Y-92019662D01*
X99683950Y-92005752D01*
X99684691Y-92005723D01*
X99936532Y-91999758D01*
X99937164Y-91999753D01*
X100189061Y-92001742D01*
G37*
%TD.AperFunction*%
%TD*%
M02*
