ISO-10303-21;
HEADER;
FILE_DESCRIPTION (( 'STEP AP214' ),
    '1' );
FILE_NAME ('coil-holder-2.STEP',
    '2026-08-05T16:51:35',
    ( '' ),
    ( '' ),
    'SwSTEP 2.0',
    'SolidWorks 2026',
    '' );
FILE_SCHEMA (( 'AUTOMOTIVE_DESIGN' ));
ENDSEC;

DATA;
#1 = LINE ( 'NONE', #275, #60 ) ;
#2 = VERTEX_POINT ( 'NONE', #457 ) ;
#3 = CARTESIAN_POINT ( 'NONE',  ( 33.73500000000002075, -47.65247464587955761, 20.75179999999999580 ) ) ;
#4 = ORIENTED_EDGE ( 'NONE', *, *, #104, .T. ) ;
#5 = AXIS2_PLACEMENT_3D ( 'NONE', #295, #132, #215 ) ;
#6 = VECTOR ( 'NONE', #341, 1000.000000000000000 ) ;
#7 = DIRECTION ( 'NONE',  ( 0.000000000000000000, -1.000000000000000000, 0.000000000000000000 ) ) ;
#8 = ORIENTED_EDGE ( 'NONE', *, *, #239, .F. ) ;
#9 = LINE ( 'NONE', #207, #221 ) ;
#10 = ORIENTED_EDGE ( 'NONE', *, *, #56, .T. ) ;
#11 = DIRECTION ( 'NONE',  ( 1.000000000000000000, 0.000000000000000000, 0.000000000000000000 ) ) ;
#12 = ORIENTED_EDGE ( 'NONE', *, *, #448, .F. ) ;
#13 = ADVANCED_FACE ( 'NONE', ( #102 ), #257, .F. ) ;
#14 = AXIS2_PLACEMENT_3D ( 'NONE', #35, #196, #370 ) ;
#15 = LINE ( 'NONE', #375, #517 ) ;
#16 = ORIENTED_EDGE ( 'NONE', *, *, #29, .F. ) ;
#17 =( NAMED_UNIT ( * ) PLANE_ANGLE_UNIT ( ) SI_UNIT ( $, .RADIAN. ) );
#18 = VERTEX_POINT ( 'NONE', #296 ) ;
#19 = EDGE_CURVE ( 'NONE', #360, #396, #268, .T. ) ;
#20 = CARTESIAN_POINT ( 'NONE',  ( 3.555000000000002380, -47.65247464587955761, 20.75179999999999225 ) ) ;
#21 = ORIENTED_EDGE ( 'NONE', *, *, #380, .T. ) ;
#22 = PLANE ( 'NONE',  #429 ) ;
#23 = VECTOR ( 'NONE', #333, 1000.000000000000000 ) ;
#24 = VECTOR ( 'NONE', #510, 1000.000000000000000 ) ;
#25 = ORIENTED_EDGE ( 'NONE', *, *, #180, .F. ) ;
#26 = DIRECTION ( 'NONE',  ( 1.000000000000000000, 0.000000000000000000, 0.000000000000000000 ) ) ;
#27 = FILL_AREA_STYLE ('',( #501 ) ) ;
#28 = APPLICATION_CONTEXT ( 'automotive_design' ) ;
#29 = EDGE_CURVE ( 'NONE', #236, #128, #506, .T. ) ;
#30 = LINE ( 'NONE', #64, #376 ) ;
#31 = EDGE_CURVE ( 'NONE', #169, #279, #422, .T. ) ;
#32 = CARTESIAN_POINT ( 'NONE',  ( -10.00000000000000000, -38.38247464587955449, 60.75179999999999580 ) ) ;
#33 = VECTOR ( 'NONE', #202, 1000.000000000000114 ) ;
#34 = CARTESIAN_POINT ( 'NONE',  ( 3.555000000000015259, -38.38247464587955449, 27.30679999999999197 ) ) ;
#35 = CARTESIAN_POINT ( 'NONE',  ( -3.554999999999994831, -48.38247464587956159, 60.75179999999999580 ) ) ;
#36 = ORIENTED_EDGE ( 'NONE', *, *, #29, .T. ) ;
#37 = CARTESIAN_POINT ( 'NONE',  ( -10.00000000000000000, -38.38247464587955449, 60.75179999999999580 ) ) ;
#38 = CARTESIAN_POINT ( 'NONE',  ( -3.555000000000002380, -47.65247464587955761, 20.75179999999998870 ) ) ;
#39 = EDGE_CURVE ( 'NONE', #130, #63, #107, .T. ) ;
#40 = VERTEX_POINT ( 'NONE', #386 ) ;
#41 = PLANE ( 'NONE',  #113 ) ;
#42 = ORIENTED_EDGE ( 'NONE', *, *, #492, .T. ) ;
#43 = CIRCLE ( 'NONE', #131, 2.540000000000000036 ) ;
#44 = CIRCLE ( 'NONE', #160, 3.555000000000005933 ) ;
#45 = LINE ( 'NONE', #280, #178 ) ;
#46 = ORIENTED_EDGE ( 'NONE', *, *, #143, .F. ) ;
#47 = DIRECTION ( 'NONE',  ( -0.8660254037844361541, 0.5000000000000042188, -0.000000000000000000 ) ) ;
#48 = VERTEX_POINT ( 'NONE', #151 ) ;
#49 = ADVANCED_FACE ( 'NONE', ( #384 ), #306, .T. ) ;
#50 = CARTESIAN_POINT ( 'NONE',  ( -3.554999999999996163, -38.38247464587955449, 27.30679999999999197 ) ) ;
#51 = ORIENTED_EDGE ( 'NONE', *, *, #19, .T. ) ;
#52 = VECTOR ( 'NONE', #109, 1000.000000000000000 ) ;
#53 = DIRECTION ( 'NONE',  ( 1.000000000000000000, 0.000000000000000000, 0.000000000000000000 ) ) ;
#54 = ORIENTED_EDGE ( 'NONE', *, *, #509, .T. ) ;
#55 = CARTESIAN_POINT ( 'NONE',  ( -10.00000000000000000, -38.38247464587955449, 20.75179999999999936 ) ) ;
#56 = EDGE_CURVE ( 'NONE', #206, #377, #229, .T. ) ;
#57 = ORIENTED_EDGE ( 'NONE', *, *, #343, .F. ) ;
#58 = LINE ( 'NONE', #493, #358 ) ;
#59 = EDGE_LOOP ( 'NONE', ( #463, #216, #4, #177, #12, #281 ) ) ;
#60 = VECTOR ( 'NONE', #195, 1000.000000000000000 ) ;
#61 = VERTEX_POINT ( 'NONE', #428 ) ;
#62 = EDGE_CURVE ( 'NONE', #40, #137, #425, .T. ) ;
#63 = VERTEX_POINT ( 'NONE', #298 ) ;
#64 = CARTESIAN_POINT ( 'NONE',  ( 1.270000000000010676, 0.7332348418708396487, 20.75179999999999580 ) ) ;
#65 = ORIENTED_EDGE ( 'NONE', *, *, #269, .F. ) ;
#66 = LINE ( 'NONE', #336, #6 ) ;
#67 = CARTESIAN_POINT ( 'NONE',  ( -33.73500000000000654, -47.65247464587955761, 0.000000000000000000 ) ) ;
#68 = ORIENTED_EDGE ( 'NONE', *, *, #371, .F. ) ;
#69 = DIRECTION ( 'NONE',  ( 0.000000000000000000, 0.000000000000000000, 1.000000000000000000 ) ) ;
#70 = VECTOR ( 'NONE', #395, 1000.000000000000000 ) ;
#71 = DIRECTION ( 'NONE',  ( 1.000000000000000000, 0.000000000000000000, 0.000000000000000000 ) ) ;
#72 = DIRECTION ( 'NONE',  ( -0.000000000000000000, 0.000000000000000000, 1.000000000000000000 ) ) ;
#73 = CARTESIAN_POINT ( 'NONE',  ( -33.73500000000000654, -47.65247464587955761, 20.75179999999999580 ) ) ;
#74 = EDGE_CURVE ( 'NONE', #236, #189, #389, .T. ) ;
#75 = FACE_OUTER_BOUND ( 'NONE', #172, .T. ) ;
#76 = VECTOR ( 'NONE', #89, 1000.000000000000000 ) ;
#77 =( GEOMETRIC_REPRESENTATION_CONTEXT ( 3 ) GLOBAL_UNCERTAINTY_ASSIGNED_CONTEXT ( ( #445 ) ) GLOBAL_UNIT_ASSIGNED_CONTEXT ( ( #303, #258, #418 ) ) REPRESENTATION_CONTEXT ( 'NONE', 'WORKASPACE' ) );
#78 = EDGE_CURVE ( 'NONE', #137, #164, #30, .T. ) ;
#79 = LINE ( 'NONE', #37, #412 ) ;
#80 = CARTESIAN_POINT ( 'NONE',  ( 0.000000000000000000, 0.000000000000000000, 0.000000000000000000 ) ) ;
#81 = ORIENTED_EDGE ( 'NONE', *, *, #321, .T. ) ;
#82 = LINE ( 'NONE', #470, #70 ) ;
#83 = ORIENTED_EDGE ( 'NONE', *, *, #492, .F. ) ;
#84 = CARTESIAN_POINT ( 'NONE',  ( -10.00000000000000000, -47.65247464587955761, 60.75179999999999580 ) ) ;
#85 = MANIFOLD_SOLID_BREP ( 'Cut-Extrude11', #87 ) ;
#86 = ORIENTED_EDGE ( 'NONE', *, *, #475, .F. ) ;
#87 = CLOSED_SHELL ( 'NONE', ( #515, #49, #403, #289, #217, #499, #378, #13, #181, #209, #456, #351, #507, #255, #327, #231 ) ) ;
#88 = EDGE_CURVE ( 'NONE', #377, #360, #182, .T. ) ;
#89 = DIRECTION ( 'NONE',  ( 1.167028799804997551E-16, 0.000000000000000000, 1.000000000000000000 ) ) ;
#90 = EDGE_CURVE ( 'NONE', #63, #355, #114, .T. ) ;
#91 = ORIENTED_EDGE ( 'NONE', *, *, #481, .T. ) ;
#92 = CARTESIAN_POINT ( 'NONE',  ( 10.00000000000000000, -38.38247464587955449, 20.75179999999999936 ) ) ;
#93 = EDGE_LOOP ( 'NONE', ( #25, #243, #21, #106 ) ) ;
#94 = DIRECTION ( 'NONE',  ( -0.000000000000000000, -0.000000000000000000, -1.000000000000000000 ) ) ;
#95 = EDGE_LOOP ( 'NONE', ( #521, #240, #86, #322 ) ) ;
#96 = VECTOR ( 'NONE', #514, 1000.000000000000000 ) ;
#97 = AXIS2_PLACEMENT_3D ( 'NONE', #226, #467, #421 ) ;
#98 = CARTESIAN_POINT ( 'NONE',  ( -10.00000000000000000, -38.38247464587955449, 20.75179999999999936 ) ) ;
#99 = VERTEX_POINT ( 'NONE', #222 ) ;
#100 = DIRECTION ( 'NONE',  ( 1.000000000000000000, 0.000000000000000000, 0.000000000000000000 ) ) ;
#101 = ORIENTED_EDGE ( 'NONE', *, *, #31, .T. ) ;
#102 = FACE_OUTER_BOUND ( 'NONE', #93, .T. ) ;
#103 = DIRECTION ( 'NONE',  ( 1.000000000000000000, 0.000000000000000000, 0.000000000000000000 ) ) ;
#104 = EDGE_CURVE ( 'NONE', #99, #137, #43, .T. ) ;
#105 = VECTOR ( 'NONE', #152, 1000.000000000000000 ) ;
#106 = ORIENTED_EDGE ( 'NONE', *, *, #431, .F. ) ;
#107 = LINE ( 'NONE', #73, #391 ) ;
#108 = FACE_OUTER_BOUND ( 'NONE', #487, .T. ) ;
#109 = DIRECTION ( 'NONE',  ( -0.000000000000000000, -1.000000000000000000, -0.000000000000000000 ) ) ;
#110 = DIRECTION ( 'NONE',  ( 0.000000000000000000, 0.000000000000000000, -1.000000000000000000 ) ) ;
#111 = EDGE_CURVE ( 'NONE', #48, #63, #464, .T. ) ;
#112 = DIRECTION ( 'NONE',  ( -0.000000000000000000, 1.000000000000000000, 0.000000000000000000 ) ) ;
#113 = AXIS2_PLACEMENT_3D ( 'NONE', #32, #166, #117 ) ;
#114 = LINE ( 'NONE', #337, #266 ) ;
#115 = AXIS2_PLACEMENT_3D ( 'NONE', #483, #286, #397 ) ;
#116 = DIRECTION ( 'NONE',  ( 2.074717866319995536E-16, -0.000000000000000000, 1.000000000000000000 ) ) ;
#117 = DIRECTION ( 'NONE',  ( 1.000000000000000000, 0.000000000000000000, 0.000000000000000000 ) ) ;
#118 = AXIS2_PLACEMENT_3D ( 'NONE', #248, #320, #485 ) ;
#119 = APPLICATION_PROTOCOL_DEFINITION ( 'draft international standard', 'automotive_design', 1998, #28 ) ;
#120 = AXIS2_PLACEMENT_3D ( 'NONE', #176, #328, #454 ) ;
#121 = ORIENTED_EDGE ( 'NONE', *, *, #277, .T. ) ;
#122 = DIRECTION ( 'NONE',  ( 1.000000000000000000, 0.000000000000000000, 0.000000000000000000 ) ) ;
#123 = CARTESIAN_POINT ( 'NONE',  ( 3.555000000000009042, -48.38247464587956159, 27.30679999999999197 ) ) ;
#124 = ORIENTED_EDGE ( 'NONE', *, *, #220, .T. ) ;
#125 = CARTESIAN_POINT ( 'NONE',  ( 9.472665561373937904E-15, -48.38247464587956159, 27.30679999999999197 ) ) ;
#126 = APPLICATION_PROTOCOL_DEFINITION ( 'draft international standard', 'automotive_design', 1998, #520 ) ;
#127 = EDGE_CURVE ( 'NONE', #61, #130, #438, .T. ) ;
#128 = VERTEX_POINT ( 'NONE', #155 ) ;
#129 = LINE ( 'NONE', #361, #96 ) ;
#130 = VERTEX_POINT ( 'NONE', #348 ) ;
#131 = AXIS2_PLACEMENT_3D ( 'NONE', #498, #381, #148 ) ;
#132 = DIRECTION ( 'NONE',  ( 1.000000000000000000, 0.000000000000000000, 0.000000000000000000 ) ) ;
#133 = ORIENTED_EDGE ( 'NONE', *, *, #31, .F. ) ;
#134 = CARTESIAN_POINT ( 'NONE',  ( 33.73500000000002075, -47.65247464587955761, 20.75179999999999580 ) ) ;
#135 = ORIENTED_EDGE ( 'NONE', *, *, #420, .T. ) ;
#136 = CARTESIAN_POINT ( 'NONE',  ( 10.00000000000000000, 0.000000000000000000, 0.000000000000000000 ) ) ;
#137 = VERTEX_POINT ( 'NONE', #158 ) ;
#138 = VECTOR ( 'NONE', #314, 1000.000000000000000 ) ;
#139 = DIRECTION ( 'NONE',  ( 2.074717866319995289E-16, 0.000000000000000000, 1.000000000000000000 ) ) ;
#140 = ORIENTED_EDGE ( 'NONE', *, *, #149, .T. ) ;
#141 = CARTESIAN_POINT ( 'NONE',  ( 33.73500000000000654, 19.47691133111226236, 20.75179999999999580 ) ) ;
#142 = DIRECTION ( 'NONE',  ( 0.8660254037844361541, -0.5000000000000042188, 0.000000000000000000 ) ) ;
#143 = EDGE_CURVE ( 'NONE', #2, #99, #82, .T. ) ;
#144 = DIRECTION ( 'NONE',  ( 1.000000000000000000, 0.000000000000000000, 0.000000000000000000 ) ) ;
#145 = STYLED_ITEM ( 'NONE', ( #304 ), #85 ) ;
#146 = AXIS2_PLACEMENT_3D ( 'NONE', #147, #299, #519 ) ;
#147 = CARTESIAN_POINT ( 'NONE',  ( 0.000000000000000000, 0.000000000000000000, 0.000000000000000000 ) ) ;
#148 = DIRECTION ( 'NONE',  ( -1.000000000000000000, 0.000000000000000000, 0.000000000000000000 ) ) ;
#149 = EDGE_CURVE ( 'NONE', #130, #189, #1, .T. ) ;
#150 = CARTESIAN_POINT ( 'NONE',  ( 10.00000000000000000, -47.65247464587955761, 60.75179999999999580 ) ) ;
#151 = CARTESIAN_POINT ( 'NONE',  ( -33.73500000000000654, 19.47691133111225525, 0.000000000000000000 ) ) ;
#152 = DIRECTION ( 'NONE',  ( 1.000000000000000000, 0.000000000000000000, 0.000000000000000000 ) ) ;
#153 = CARTESIAN_POINT ( 'NONE',  ( 10.00000000000000000, -38.38247464587955449, 60.75179999999999580 ) ) ;
#154 = EDGE_CURVE ( 'NONE', #206, #439, #308, .T. ) ;
#155 = CARTESIAN_POINT ( 'NONE',  ( -3.554999999999994831, -47.65247464587955761, 60.75179999999999580 ) ) ;
#156 = ORIENTED_EDGE ( 'NONE', *, *, #387, .F. ) ;
#157 = LINE ( 'NONE', #301, #187 ) ;
#158 = CARTESIAN_POINT ( 'NONE',  ( 1.270000000000000240, 0.7332348418708327653, 0.000000000000000000 ) ) ;
#159 = MECHANICAL_DESIGN_GEOMETRIC_PRESENTATION_REPRESENTATION (  '', ( #145 ), #497 ) ;
#160 = AXIS2_PLACEMENT_3D ( 'NONE', #505, #112, #69 ) ;
#161 = ORIENTED_EDGE ( 'NONE', *, *, #78, .T. ) ;
#162 = EDGE_CURVE ( 'NONE', #169, #128, #443, .T. ) ;
#163 = FACE_OUTER_BOUND ( 'NONE', #496, .T. ) ;
#164 = VERTEX_POINT ( 'NONE', #359 ) ;
#165 = EDGE_CURVE ( 'NONE', #206, #169, #508, .T. ) ;
#166 = DIRECTION ( 'NONE',  ( -0.000000000000000000, 0.000000000000000000, 1.000000000000000000 ) ) ;
#167 = ORIENTED_EDGE ( 'NONE', *, *, #56, .F. ) ;
#168 = DIRECTION ( 'NONE',  ( 0.000000000000000000, 0.000000000000000000, -1.000000000000000000 ) ) ;
#169 = VERTEX_POINT ( 'NONE', #393 ) ;
#170 = AXIS2_PLACEMENT_3D ( 'NONE', #473, #316, #318 ) ;
#171 = LINE ( 'NONE', #325, #366 ) ;
#172 = EDGE_LOOP ( 'NONE', ( #101, #315, #516, #388 ) ) ;
#173 = LINE ( 'NONE', #489, #76 ) ;
#174 = ORIENTED_EDGE ( 'NONE', *, *, #165, .T. ) ;
#175 = PRODUCT_DEFINITION_CONTEXT ( 'detailed design', #28, 'design' ) ;
#176 = CARTESIAN_POINT ( 'NONE',  ( 33.73500000000000654, 19.47691133111226236, 20.75179999999999580 ) ) ;
#177 = ORIENTED_EDGE ( 'NONE', *, *, #62, .F. ) ;
#178 = VECTOR ( 'NONE', #198, 1000.000000000000000 ) ;
#179 = CARTESIAN_POINT ( 'NONE',  ( 33.73500000000002075, -47.65247464587955761, 0.000000000000000000 ) ) ;
#180 = EDGE_CURVE ( 'NONE', #2, #61, #518, .T. ) ;
#181 = ADVANCED_FACE ( 'NONE', ( #471 ), #230, .T. ) ;
#182 = LINE ( 'NONE', #504, #488 ) ;
#183 = ORIENTED_EDGE ( 'NONE', *, *, #239, .T. ) ;
#184 = FACE_OUTER_BOUND ( 'NONE', #447, .T. ) ;
#185 = CARTESIAN_POINT ( 'NONE',  ( -10.00000000000000000, -47.65247464587955761, 60.75179999999999580 ) ) ;
#186 = AXIS2_PLACEMENT_3D ( 'NONE', #125, #511, #440 ) ;
#187 = VECTOR ( 'NONE', #427, 1000.000000000000000 ) ;
#188 = DIRECTION ( 'NONE',  ( 0.000000000000000000, 0.000000000000000000, -1.000000000000000000 ) ) ;
#189 = VERTEX_POINT ( 'NONE', #512 ) ;
#190 = SURFACE_STYLE_USAGE ( .BOTH. , #469 ) ;
#191 = LINE ( 'NONE', #459, #401 ) ;
#192 = DIRECTION ( 'NONE',  ( -0.000000000000000000, -0.000000000000000000, 1.000000000000000000 ) ) ;
#193 = PRODUCT ( 'coil-holder-2', 'coil-holder-2', '', ( #433 ) ) ;
#194 = CARTESIAN_POINT ( 'NONE',  ( -33.73500000000000654, 19.47691133111225525, 20.75179999999999580 ) ) ;
#195 = DIRECTION ( 'NONE',  ( 1.000000000000000000, 0.000000000000000000, 0.000000000000000000 ) ) ;
#196 = DIRECTION ( 'NONE',  ( -1.000000000000000000, 0.000000000000000000, 2.074717866319995289E-16 ) ) ;
#197 = CARTESIAN_POINT ( 'NONE',  ( 33.73500000000000654, 19.47691133111226236, 20.75179999999999580 ) ) ;
#198 = DIRECTION ( 'NONE',  ( 1.000000000000000000, 0.000000000000000000, 0.000000000000000000 ) ) ;
#199 = ORIENTED_EDGE ( 'NONE', *, *, #39, .F. ) ;
#200 = EDGE_CURVE ( 'NONE', #377, #330, #45, .T. ) ;
#201 = DIRECTION ( 'NONE',  ( -1.000000000000000000, 0.000000000000000000, 0.000000000000000000 ) ) ;
#202 = DIRECTION ( 'NONE',  ( -0.8660254037844361541, 0.5000000000000042188, -0.000000000000000000 ) ) ;
#203 = VECTOR ( 'NONE', #446, 1000.000000000000000 ) ;
#204 = EDGE_LOOP ( 'NONE', ( #415, #161, #65, #135 ) ) ;
#205 = CARTESIAN_POINT ( 'NONE',  ( -10.00000000000000000, -38.38247464587955449, 20.75179999999999936 ) ) ;
#206 = VERTEX_POINT ( 'NONE', #478 ) ;
#207 = CARTESIAN_POINT ( 'NONE',  ( -10.00000000000000000, -38.38247464587955449, 60.75179999999999580 ) ) ;
#208 = EDGE_LOOP ( 'NONE', ( #450, #404, #352, #46 ) ) ;
#209 = ADVANCED_FACE ( 'NONE', ( #354 ), #41, .T. ) ;
#210 = FACE_OUTER_BOUND ( 'NONE', #310, .T. ) ;
#211 = VECTOR ( 'NONE', #116, 1000.000000000000000 ) ;
#212 = ORIENTED_EDGE ( 'NONE', *, *, #111, .T. ) ;
#213 = FACE_OUTER_BOUND ( 'NONE', #436, .T. ) ;
#214 = EDGE_LOOP ( 'NONE', ( #10, #477, #374, #256 ) ) ;
#215 = DIRECTION ( 'NONE',  ( 0.000000000000000000, 0.000000000000000000, -1.000000000000000000 ) ) ;
#216 = ORIENTED_EDGE ( 'NONE', *, *, #380, .F. ) ;
#217 = ADVANCED_FACE ( 'NONE', ( #163 ), #273, .F. ) ;
#218 = FACE_OUTER_BOUND ( 'NONE', #491, .T. ) ;
#219 = ORIENTED_EDGE ( 'NONE', *, *, #269, .T. ) ;
#220 = EDGE_CURVE ( 'NONE', #18, #394, #129, .T. ) ;
#221 = VECTOR ( 'NONE', #7, 1000.000000000000000 ) ;
#222 = CARTESIAN_POINT ( 'NONE',  ( -1.270000000000014229, 0.7332348418708396487, 0.000000000000000000 ) ) ;
#223 = ORIENTED_EDGE ( 'NONE', *, *, #200, .T. ) ;
#224 = DIRECTION ( 'NONE',  ( 0.000000000000000000, 0.000000000000000000, -1.000000000000000000 ) ) ;
#225 = DIRECTION ( 'NONE',  ( -0.000000000000000000, 1.000000000000000000, 0.000000000000000000 ) ) ;
#226 = CARTESIAN_POINT ( 'NONE',  ( 33.73500000000002075, -47.65247464587955761, 20.75179999999999580 ) ) ;
#227 = CARTESIAN_POINT ( 'NONE',  ( -3.554999999999996163, -48.38247464587956159, 27.30679999999999197 ) ) ;
#228 = CYLINDRICAL_SURFACE ( 'NONE', #340, 2.540000000000000036 ) ;
#229 = LINE ( 'NONE', #20, #347 ) ;
#230 = PLANE ( 'NONE',  #329 ) ;
#231 = ADVANCED_FACE ( 'NONE', ( #476 ), #278, .F. ) ;
#232 = VECTOR ( 'NONE', #94, 1000.000000000000000 ) ;
#233 = VECTOR ( 'NONE', #350, 1000.000000000000000 ) ;
#234 = PLANE ( 'NONE',  #14 ) ;
#235 = DIRECTION ( 'NONE',  ( -0.000000000000000000, -1.000000000000000000, -0.000000000000000000 ) ) ;
#236 = VERTEX_POINT ( 'NONE', #84 ) ;
#237 = DIRECTION ( 'NONE',  ( 0.000000000000000000, 0.000000000000000000, -1.000000000000000000 ) ) ;
#238 = DIRECTION ( 'NONE',  ( 0.000000000000000000, 1.000000000000000000, 0.000000000000000000 ) ) ;
#239 = EDGE_CURVE ( 'NONE', #394, #396, #241, .T. ) ;
#240 = ORIENTED_EDGE ( 'NONE', *, *, #420, .F. ) ;
#241 = LINE ( 'NONE', #153, #233 ) ;
#242 = VECTOR ( 'NONE', #466, 1000.000000000000227 ) ;
#243 = ORIENTED_EDGE ( 'NONE', *, *, #143, .T. ) ;
#244 = PLANE ( 'NONE',  #118 ) ;
#245 = VERTEX_POINT ( 'NONE', #205 ) ;
#246 = LINE ( 'NONE', #134, #232 ) ;
#247 = ORIENTED_EDGE ( 'NONE', *, *, #426, .F. ) ;
#248 = CARTESIAN_POINT ( 'NONE',  ( 3.555000000000013038, -48.38247464587956159, 60.75179999999999580 ) ) ;
#249 = AXIS2_PLACEMENT_3D ( 'NONE', #136, #11, #168 ) ;
#250 = VERTEX_POINT ( 'NONE', #432 ) ;
#251 = VECTOR ( 'NONE', #122, 1000.000000000000000 ) ;
#252 = PLANE ( 'NONE',  #249 ) ;
#253 = VERTEX_POINT ( 'NONE', #282 ) ;
#254 = FACE_OUTER_BOUND ( 'NONE', #214, .T. ) ;
#255 = ADVANCED_FACE ( 'NONE', ( #75 ), #234, .F. ) ;
#256 = ORIENTED_EDGE ( 'NONE', *, *, #154, .F. ) ;
#257 = PLANE ( 'NONE',  #460 ) ;
#258 =( NAMED_UNIT ( * ) PLANE_ANGLE_UNIT ( ) SI_UNIT ( $, .RADIAN. ) );
#259 = CARTESIAN_POINT ( 'NONE',  ( 9.472665561373937904E-15, -47.65247464587955761, 27.30679999999999197 ) ) ;
#260 = PLANE ( 'NONE',  #97 ) ;
#261 =( NAMED_UNIT ( * ) SI_UNIT ( $, .STERADIAN. ) SOLID_ANGLE_UNIT ( ) );
#262 = EDGE_LOOP ( 'NONE', ( #283, #223, #156, #294 ) ) ;
#263 = CARTESIAN_POINT ( 'NONE',  ( -10.00000000000000000, -47.65247464587955761, 60.75179999999999580 ) ) ;
#264 = PRODUCT_DEFINITION_SHAPE ( 'NONE', 'NONE',  #335 ) ;
#265 = ORIENTED_EDGE ( 'NONE', *, *, #271, .F. ) ;
#266 = VECTOR ( 'NONE', #144, 1000.000000000000000 ) ;
#267 = CIRCLE ( 'NONE', #331, 2.540000000000000036 ) ;
#268 = LINE ( 'NONE', #430, #400 ) ;
#269 = EDGE_CURVE ( 'NONE', #253, #164, #451, .T. ) ;
#270 =( LENGTH_UNIT ( ) NAMED_UNIT ( * ) SI_UNIT ( .MILLI., .METRE. ) );
#271 = EDGE_CURVE ( 'NONE', #276, #355, #246, .T. ) ;
#272 = LINE ( 'NONE', #197, #490 ) ;
#273 = PLANE ( 'NONE',  #170 ) ;
#274 = AXIS2_PLACEMENT_3D ( 'NONE', #461, #225, #300 ) ;
#275 = CARTESIAN_POINT ( 'NONE',  ( -33.73500000000000654, -47.65247464587955761, 20.75179999999999580 ) ) ;
#276 = VERTEX_POINT ( 'NONE', #3 ) ;
#277 = EDGE_CURVE ( 'NONE', #291, #236, #9, .T. ) ;
#278 = CYLINDRICAL_SURFACE ( 'NONE', #186, 3.555000000000005933 ) ;
#279 = VERTEX_POINT ( 'NONE', #50 ) ;
#280 = CARTESIAN_POINT ( 'NONE',  ( -10.00000000000000000, -47.65247464587955761, 60.75179999999999580 ) ) ;
#281 = ORIENTED_EDGE ( 'NONE', *, *, #90, .F. ) ;
#282 = CARTESIAN_POINT ( 'NONE',  ( 33.73500000000000654, 19.47691133111226236, 20.75179999999999580 ) ) ;
#283 = ORIENTED_EDGE ( 'NONE', *, *, #88, .F. ) ;
#284 = LINE ( 'NONE', #323, #203 ) ;
#285 = ORIENTED_EDGE ( 'NONE', *, *, #481, .F. ) ;
#286 = DIRECTION ( 'NONE',  ( 0.000000000000000000, 0.000000000000000000, -1.000000000000000000 ) ) ;
#287 = ORIENTED_EDGE ( 'NONE', *, *, #127, .T. ) ;
#288 = DIRECTION ( 'NONE',  ( -0.8660254037844360431, -0.5000000000000044409, 0.000000000000000000 ) ) ;
#289 = ADVANCED_FACE ( 'NONE', ( #218 ), #364, .F. ) ;
#290 = VECTOR ( 'NONE', #235, 1000.000000000000000 ) ;
#291 = VERTEX_POINT ( 'NONE', #373 ) ;
#292 = EDGE_CURVE ( 'NONE', #439, #360, #173, .T. ) ;
#293 = CARTESIAN_POINT ( 'NONE',  ( 3.555000000000013038, -47.65247464587955761, 60.75179999999999580 ) ) ;
#294 = ORIENTED_EDGE ( 'NONE', *, *, #19, .F. ) ;
#295 = CARTESIAN_POINT ( 'NONE',  ( -33.73500000000000654, -47.65247464587955761, 20.75179999999999580 ) ) ;
#296 = CARTESIAN_POINT ( 'NONE',  ( 10.00000000000000000, -47.65247464587955761, 20.75179999999999580 ) ) ;
#297 = LINE ( 'NONE', #150, #452 ) ;
#298 = CARTESIAN_POINT ( 'NONE',  ( -33.73500000000000654, -47.65247464587955761, 0.000000000000000000 ) ) ;
#299 = DIRECTION ( 'NONE',  ( 0.000000000000000000, 0.000000000000000000, 1.000000000000000000 ) ) ;
#300 = DIRECTION ( 'NONE',  ( 0.000000000000000000, -0.000000000000000000, 1.000000000000000000 ) ) ;
#301 = CARTESIAN_POINT ( 'NONE',  ( 33.73500000000002075, -47.65247464587955761, 0.000000000000000000 ) ) ;
#302 = DIRECTION ( 'NONE',  ( -0.000000000000000000, 1.000000000000000000, -0.000000000000000000 ) ) ;
#303 =( LENGTH_UNIT ( ) NAMED_UNIT ( * ) SI_UNIT ( .MILLI., .METRE. ) );
#304 = PRESENTATION_STYLE_ASSIGNMENT (( #190 ) ) ;
#305 = CARTESIAN_POINT ( 'NONE',  ( -10.00000000000000000, 0.000000000000000000, 0.000000000000000000 ) ) ;
#306 = PLANE ( 'NONE',  #274 ) ;
#307 = CARTESIAN_POINT ( 'NONE',  ( -33.73500000000000654, -47.65247464587955761, 20.75179999999999580 ) ) ;
#308 = LINE ( 'NONE', #123, #138 ) ;
#309 = EDGE_CURVE ( 'NONE', #279, #250, #171, .T. ) ;
#310 = EDGE_LOOP ( 'NONE', ( #453, #344, #324, #219, #317, #365, #287, #140, #444, #81 ) ) ;
#311 = PRESENTATION_LAYER_ASSIGNMENT (  '', '', ( #145 ) ) ;
#312 = DIRECTION ( 'NONE',  ( -0.000000000000000000, -0.000000000000000000, 1.000000000000000000 ) ) ;
#313 = AXIS2_PLACEMENT_3D ( 'NONE', #495, #72, #103 ) ;
#314 = DIRECTION ( 'NONE',  ( -0.000000000000000000, 1.000000000000000000, -0.000000000000000000 ) ) ;
#315 = ORIENTED_EDGE ( 'NONE', *, *, #309, .T. ) ;
#316 = DIRECTION ( 'NONE',  ( 0.000000000000000000, 1.000000000000000000, 0.000000000000000000 ) ) ;
#317 = ORIENTED_EDGE ( 'NONE', *, *, #441, .T. ) ;
#318 = DIRECTION ( 'NONE',  ( 0.000000000000000000, -0.000000000000000000, 1.000000000000000000 ) ) ;
#319 = ORIENTED_EDGE ( 'NONE', *, *, #90, .T. ) ;
#320 = DIRECTION ( 'NONE',  ( -1.000000000000000000, 0.000000000000000000, 1.167028799804997551E-16 ) ) ;
#321 = EDGE_CURVE ( 'NONE', #245, #394, #449, .T. ) ;
#322 = ORIENTED_EDGE ( 'NONE', *, *, #271, .T. ) ;
#323 = CARTESIAN_POINT ( 'NONE',  ( 10.00000000000000000, -38.38247464587955449, 60.75179999999999580 ) ) ;
#324 = ORIENTED_EDGE ( 'NONE', *, *, #475, .T. ) ;
#325 = CARTESIAN_POINT ( 'NONE',  ( -3.554999999999994831, -38.38247464587955449, 60.75179999999999580 ) ) ;
#326 = EDGE_LOOP ( 'NONE', ( #285, #472, #51, #8, #408, #406, #423, #482 ) ) ;
#327 = ADVANCED_FACE ( 'NONE', ( #254 ), #244, .T. ) ;
#328 = DIRECTION ( 'NONE',  ( 0.5000000000000043299, -0.8660254037844361541, 0.000000000000000000 ) ) ;
#329 = AXIS2_PLACEMENT_3D ( 'NONE', #80, #435, #390 ) ;
#330 = VERTEX_POINT ( 'NONE', #411 ) ;
#331 = AXIS2_PLACEMENT_3D ( 'NONE', #349, #237, #201 ) ;
#332 = UNCERTAINTY_MEASURE_WITH_UNIT (LENGTH_MEASURE( 1.000000000000000082E-05 ), #270, 'distance_accuracy_value', 'NONE');
#333 = DIRECTION ( 'NONE',  ( -0.000000000000000000, 1.000000000000000000, 3.742661221093434811E-16 ) ) ;
#334 = CARTESIAN_POINT ( 'NONE',  ( -33.73500000000000654, 19.47691133111225525, 20.75179999999999580 ) ) ;
#335 = PRODUCT_DEFINITION ( 'UNKNOWN', '', #368, #175 ) ;
#336 = CARTESIAN_POINT ( 'NONE',  ( -3.554999999999994831, -48.38247464587956159, 60.75179999999999580 ) ) ;
#337 = CARTESIAN_POINT ( 'NONE',  ( -33.73500000000000654, -47.65247464587955761, 0.000000000000000000 ) ) ;
#338 = DIRECTION ( 'NONE',  ( 1.167028799804997551E-16, -0.000000000000000000, 1.000000000000000000 ) ) ;
#339 = VECTOR ( 'NONE', #288, 1000.000000000000227 ) ;
#340 = AXIS2_PLACEMENT_3D ( 'NONE', #345, #385, #26 ) ;
#341 = DIRECTION ( 'NONE',  ( -0.000000000000000000, 1.000000000000000000, -0.000000000000000000 ) ) ;
#342 = CARTESIAN_POINT ( 'NONE',  ( 33.73500000000000654, 19.47691133111226236, 0.000000000000000000 ) ) ;
#343 = EDGE_CURVE ( 'NONE', #18, #276, #15, .T. ) ;
#344 = ORIENTED_EDGE ( 'NONE', *, *, #343, .T. ) ;
#345 = CARTESIAN_POINT ( 'NONE',  ( 0.000000000000000000, 2.932939367483306636, 20.75179999999999580 ) ) ;
#346 = SURFACE_STYLE_FILL_AREA ( #27 ) ;
#347 = VECTOR ( 'NONE', #338, 1000.000000000000000 ) ;
#348 = CARTESIAN_POINT ( 'NONE',  ( -33.73500000000000654, -47.65247464587955761, 20.75179999999999580 ) ) ;
#349 = CARTESIAN_POINT ( 'NONE',  ( 0.000000000000000000, 2.932939367483306636, 20.75179999999999580 ) ) ;
#350 = DIRECTION ( 'NONE',  ( -0.000000000000000000, -0.000000000000000000, 1.000000000000000000 ) ) ;
#351 = ADVANCED_FACE ( 'NONE', ( #213 ), #252, .T. ) ;
#352 = ORIENTED_EDGE ( 'NONE', *, *, #104, .F. ) ;
#353 = DIRECTION ( 'NONE',  ( -0.000000000000000000, -0.000000000000000000, -1.000000000000000000 ) ) ;
#354 = FACE_OUTER_BOUND ( 'NONE', #262, .T. ) ;
#355 = VERTEX_POINT ( 'NONE', #179 ) ;
#356 = VECTOR ( 'NONE', #188, 1000.000000000000000 ) ;
#357 = CARTESIAN_POINT ( 'NONE',  ( -10.00000000000000000, -38.38247464587955449, 60.75179999999999580 ) ) ;
#358 = VECTOR ( 'NONE', #47, 1000.000000000000114 ) ;
#359 = CARTESIAN_POINT ( 'NONE',  ( 1.270000000000000240, 0.7332348418708327653, 20.75179999999999580 ) ) ;
#360 = VERTEX_POINT ( 'NONE', #405 ) ;
#361 = CARTESIAN_POINT ( 'NONE',  ( 10.00000000000000000, -38.38247464587955449, 20.75179999999999936 ) ) ;
#362 = SHAPE_DEFINITION_REPRESENTATION ( #264, #486 ) ;
#363 = ORIENTED_EDGE ( 'NONE', *, *, #409, .F. ) ;
#364 = PLANE ( 'NONE',  #5 ) ;
#365 = ORIENTED_EDGE ( 'NONE', *, *, #180, .T. ) ;
#366 = VECTOR ( 'NONE', #139, 1000.000000000000000 ) ;
#367 = PLANE ( 'NONE',  #115 ) ;
#368 = PRODUCT_DEFINITION_FORMATION_WITH_SPECIFIED_SOURCE ( 'ANY', '', #193, .NOT_KNOWN. ) ;
#369 = ORIENTED_EDGE ( 'NONE', *, *, #431, .T. ) ;
#370 = DIRECTION ( 'NONE',  ( 2.074717866319995289E-16, 0.000000000000000000, 1.000000000000000000 ) ) ;
#371 = EDGE_CURVE ( 'NONE', #189, #245, #414, .T. ) ;
#372 = ORIENTED_EDGE ( 'NONE', *, *, #39, .T. ) ;
#373 = CARTESIAN_POINT ( 'NONE',  ( -10.00000000000000000, -38.38247464587955449, 60.75179999999999580 ) ) ;
#374 = ORIENTED_EDGE ( 'NONE', *, *, #292, .F. ) ;
#375 = CARTESIAN_POINT ( 'NONE',  ( -33.73500000000000654, -47.65247464587955761, 20.75179999999999580 ) ) ;
#376 = VECTOR ( 'NONE', #192, 1000.000000000000000 ) ;
#377 = VERTEX_POINT ( 'NONE', #293 ) ;
#378 = ADVANCED_FACE ( 'NONE', ( #480 ), #416, .F. ) ;
#379 = DIRECTION ( 'NONE',  ( -0.000000000000000000, -0.000000000000000000, -1.000000000000000000 ) ) ;
#380 = EDGE_CURVE ( 'NONE', #99, #48, #58, .T. ) ;
#381 = DIRECTION ( 'NONE',  ( -0.000000000000000000, -0.000000000000000000, 1.000000000000000000 ) ) ;
#382 = ORIENTED_EDGE ( 'NONE', *, *, #165, .F. ) ;
#383 = FACE_OUTER_BOUND ( 'NONE', #95, .T. ) ;
#384 = FACE_OUTER_BOUND ( 'NONE', #326, .T. ) ;
#385 = DIRECTION ( 'NONE',  ( 0.000000000000000000, 0.000000000000000000, 1.000000000000000000 ) ) ;
#386 = CARTESIAN_POINT ( 'NONE',  ( 33.73500000000000654, 19.47691133111226236, 0.000000000000000000 ) ) ;
#387 = EDGE_CURVE ( 'NONE', #396, #330, #284, .T. ) ;
#388 = ORIENTED_EDGE ( 'NONE', *, *, #162, .F. ) ;
#389 = LINE ( 'NONE', #263, #356 ) ;
#390 = DIRECTION ( 'NONE',  ( -1.000000000000000000, 0.000000000000000000, -0.000000000000000000 ) ) ;
#391 = VECTOR ( 'NONE', #379, 1000.000000000000000 ) ;
#392 = PRODUCT_RELATED_PRODUCT_CATEGORY ( 'part', '', ( #193 ) ) ;
#393 = CARTESIAN_POINT ( 'NONE',  ( -3.554999999999996163, -47.65247464587955761, 27.30679999999999197 ) ) ;
#394 = VERTEX_POINT ( 'NONE', #92 ) ;
#395 = DIRECTION ( 'NONE',  ( 0.000000000000000000, 0.000000000000000000, -1.000000000000000000 ) ) ;
#396 = VERTEX_POINT ( 'NONE', #407 ) ;
#397 = DIRECTION ( 'NONE',  ( -1.000000000000000000, 0.000000000000000000, -0.000000000000000000 ) ) ;
#398 = DIRECTION ( 'NONE',  ( 0.000000000000000000, 0.000000000000000000, 1.000000000000000000 ) ) ;
#399 = ORIENTED_EDGE ( 'NONE', *, *, #149, .F. ) ;
#400 = VECTOR ( 'NONE', #71, 1000.000000000000000 ) ;
#401 = VECTOR ( 'NONE', #465, 1000.000000000000000 ) ;
#402 = CARTESIAN_POINT ( 'NONE',  ( -33.73500000000000654, 19.47691133111225525, 20.75179999999999580 ) ) ;
#403 = ADVANCED_FACE ( 'NONE', ( #210 ), #367, .F. ) ;
#404 = ORIENTED_EDGE ( 'NONE', *, *, #78, .F. ) ;
#405 = CARTESIAN_POINT ( 'NONE',  ( 3.555000000000013038, -38.38247464587955449, 60.75179999999999580 ) ) ;
#406 = ORIENTED_EDGE ( 'NONE', *, *, #409, .T. ) ;
#407 = CARTESIAN_POINT ( 'NONE',  ( 10.00000000000000000, -38.38247464587955449, 60.75179999999999580 ) ) ;
#408 = ORIENTED_EDGE ( 'NONE', *, *, #321, .F. ) ;
#409 = EDGE_CURVE ( 'NONE', #245, #291, #79, .T. ) ;
#410 = VECTOR ( 'NONE', #302, 1000.000000000000000 ) ;
#411 = CARTESIAN_POINT ( 'NONE',  ( 10.00000000000000000, -47.65247464587955761, 60.75179999999999580 ) ) ;
#412 = VECTOR ( 'NONE', #312, 1000.000000000000000 ) ;
#413 = ORIENTED_EDGE ( 'NONE', *, *, #127, .F. ) ;
#414 = LINE ( 'NONE', #55, #23 ) ;
#415 = ORIENTED_EDGE ( 'NONE', *, *, #62, .T. ) ;
#416 = PLANE ( 'NONE',  #120 ) ;
#417 = ORIENTED_EDGE ( 'NONE', *, *, #154, .T. ) ;
#418 =( NAMED_UNIT ( * ) SI_UNIT ( $, .STERADIAN. ) SOLID_ANGLE_UNIT ( ) );
#419 = AXIS2_PLACEMENT_3D ( 'NONE', #259, #238, #398 ) ;
#420 = EDGE_CURVE ( 'NONE', #253, #40, #272, .T. ) ;
#421 = DIRECTION ( 'NONE',  ( 2.067319342466648839E-16, -1.000000000000000000, 0.000000000000000000 ) ) ;
#422 = LINE ( 'NONE', #227, #410 ) ;
#423 = ORIENTED_EDGE ( 'NONE', *, *, #426, .T. ) ;
#424 = FACE_OUTER_BOUND ( 'NONE', #208, .T. ) ;
#425 = LINE ( 'NONE', #342, #242 ) ;
#426 = EDGE_CURVE ( 'NONE', #291, #250, #513, .T. ) ;
#427 = DIRECTION ( 'NONE',  ( -2.067319342466648346E-16, 1.000000000000000000, 0.000000000000000000 ) ) ;
#428 = CARTESIAN_POINT ( 'NONE',  ( -33.73500000000000654, 19.47691133111225525, 20.75179999999999580 ) ) ;
#429 = AXIS2_PLACEMENT_3D ( 'NONE', #305, #503, #224 ) ;
#430 = CARTESIAN_POINT ( 'NONE',  ( -10.00000000000000000, -38.38247464587955449, 60.75179999999999580 ) ) ;
#431 = EDGE_CURVE ( 'NONE', #61, #48, #437, .T. ) ;
#432 = CARTESIAN_POINT ( 'NONE',  ( -3.554999999999994831, -38.38247464587955449, 60.75179999999999580 ) ) ;
#433 = PRODUCT_CONTEXT ( 'NONE', #520, 'mechanical' ) ;
#434 = VECTOR ( 'NONE', #100, 1000.000000000000000 ) ;
#435 = DIRECTION ( 'NONE',  ( 0.000000000000000000, 0.000000000000000000, -1.000000000000000000 ) ) ;
#436 = EDGE_LOOP ( 'NONE', ( #479, #42, #124, #183 ) ) ;
#437 = LINE ( 'NONE', #194, #24 ) ;
#438 = LINE ( 'NONE', #307, #290 ) ;
#439 = VERTEX_POINT ( 'NONE', #34 ) ;
#440 = DIRECTION ( 'NONE',  ( 0.000000000000000000, 0.000000000000000000, 1.000000000000000000 ) ) ;
#441 = EDGE_CURVE ( 'NONE', #164, #2, #267, .T. ) ;
#442 = ORIENTED_EDGE ( 'NONE', *, *, #200, .F. ) ;
#443 = LINE ( 'NONE', #38, #211 ) ;
#444 = ORIENTED_EDGE ( 'NONE', *, *, #371, .T. ) ;
#445 = UNCERTAINTY_MEASURE_WITH_UNIT (LENGTH_MEASURE( 1.000000000000000082E-05 ), #303, 'distance_accuracy_value', 'NONE');
#446 = DIRECTION ( 'NONE',  ( 0.000000000000000000, -1.000000000000000000, 0.000000000000000000 ) ) ;
#447 = EDGE_LOOP ( 'NONE', ( #36, #54, #247, #121 ) ) ;
#448 = EDGE_CURVE ( 'NONE', #355, #40, #157, .T. ) ;
#449 = LINE ( 'NONE', #98, #434 ) ;
#450 = ORIENTED_EDGE ( 'NONE', *, *, #441, .F. ) ;
#451 = LINE ( 'NONE', #141, #339 ) ;
#452 = VECTOR ( 'NONE', #110, 1000.000000000000000 ) ;
#453 = ORIENTED_EDGE ( 'NONE', *, *, #220, .F. ) ;
#454 = DIRECTION ( 'NONE',  ( 0.8660254037844361541, 0.5000000000000043299, 0.000000000000000000 ) ) ;
#455 = ORIENTED_EDGE ( 'NONE', *, *, #162, .T. ) ;
#456 = ADVANCED_FACE ( 'NONE', ( #108 ), #22, .F. ) ;
#457 = CARTESIAN_POINT ( 'NONE',  ( -1.270000000000014229, 0.7332348418708396487, 20.75179999999999580 ) ) ;
#458 = ORIENTED_EDGE ( 'NONE', *, *, #74, .T. ) ;
#459 = CARTESIAN_POINT ( 'NONE',  ( 33.73500000000002075, -47.65247464587955761, 20.75179999999999580 ) ) ;
#460 = AXIS2_PLACEMENT_3D ( 'NONE', #334, #494, #142 ) ;
#461 = CARTESIAN_POINT ( 'NONE',  ( -10.00000000000000000, -38.38247464587955449, 60.75179999999999580 ) ) ;
#462 = COLOUR_RGB ( '',0.7921568627450980005, 0.8196078431372548767, 0.9333333333333333481 ) ;
#463 = ORIENTED_EDGE ( 'NONE', *, *, #111, .F. ) ;
#464 = LINE ( 'NONE', #67, #52 ) ;
#465 = DIRECTION ( 'NONE',  ( -2.067319342466648346E-16, 1.000000000000000000, 0.000000000000000000 ) ) ;
#466 = DIRECTION ( 'NONE',  ( -0.8660254037844360431, -0.5000000000000044409, 0.000000000000000000 ) ) ;
#467 = DIRECTION ( 'NONE',  ( -1.000000000000000000, -2.067319342466648839E-16, 0.000000000000000000 ) ) ;
#468 = DIRECTION ( 'NONE',  ( -0.000000000000000000, 1.000000000000000000, -0.000000000000000000 ) ) ;
#469 = SURFACE_SIDE_STYLE ('',( #346 ) ) ;
#470 = CARTESIAN_POINT ( 'NONE',  ( -1.270000000000012230, 0.7332348418708366511, 0.000000000000000000 ) ) ;
#471 = FACE_OUTER_BOUND ( 'NONE', #59, .T. ) ;
#472 = ORIENTED_EDGE ( 'NONE', *, *, #292, .T. ) ;
#473 = CARTESIAN_POINT ( 'NONE',  ( -33.73500000000000654, -47.65247464587955761, 20.75179999999999580 ) ) ;
#474 = EDGE_LOOP ( 'NONE', ( #417, #91, #133, #382 ) ) ;
#475 = EDGE_CURVE ( 'NONE', #276, #253, #191, .T. ) ;
#476 = FACE_OUTER_BOUND ( 'NONE', #474, .T. ) ;
#477 = ORIENTED_EDGE ( 'NONE', *, *, #88, .T. ) ;
#478 = CARTESIAN_POINT ( 'NONE',  ( 3.555000000000009042, -47.65247464587955761, 27.30679999999999197 ) ) ;
#479 = ORIENTED_EDGE ( 'NONE', *, *, #387, .T. ) ;
#480 = FACE_OUTER_BOUND ( 'NONE', #204, .T. ) ;
#481 = EDGE_CURVE ( 'NONE', #439, #279, #44, .T. ) ;
#482 = ORIENTED_EDGE ( 'NONE', *, *, #309, .F. ) ;
#483 = CARTESIAN_POINT ( 'NONE',  ( 0.000000000000000000, 0.000000000000000000, 20.75179999999999580 ) ) ;
#484 = ORIENTED_EDGE ( 'NONE', *, *, #277, .F. ) ;
#485 = DIRECTION ( 'NONE',  ( 1.167028799804997551E-16, 0.000000000000000000, 1.000000000000000000 ) ) ;
#486 = ADVANCED_BREP_SHAPE_REPRESENTATION ( 'coil-holder-2', ( #85, #146 ), #77 ) ;
#487 = EDGE_LOOP ( 'NONE', ( #484, #363, #68, #502 ) ) ;
#488 = VECTOR ( 'NONE', #468, 1000.000000000000000 ) ;
#489 = CARTESIAN_POINT ( 'NONE',  ( 3.555000000000013038, -38.38247464587955449, 60.75179999999999580 ) ) ;
#490 = VECTOR ( 'NONE', #353, 1000.000000000000000 ) ;
#491 = EDGE_LOOP ( 'NONE', ( #212, #199, #413, #369 ) ) ;
#492 = EDGE_CURVE ( 'NONE', #330, #18, #297, .T. ) ;
#493 = CARTESIAN_POINT ( 'NONE',  ( -33.73500000000000654, 19.47691133111225525, 0.000000000000000000 ) ) ;
#494 = DIRECTION ( 'NONE',  ( -0.5000000000000043299, -0.8660254037844362651, 0.000000000000000000 ) ) ;
#495 = CARTESIAN_POINT ( 'NONE',  ( -10.00000000000000000, -38.38247464587955449, 60.75179999999999580 ) ) ;
#496 = EDGE_LOOP ( 'NONE', ( #174, #455, #16, #458, #399, #372, #319, #265, #57, #83, #442, #167 ) ) ;
#497 =( GEOMETRIC_REPRESENTATION_CONTEXT ( 3 ) GLOBAL_UNCERTAINTY_ASSIGNED_CONTEXT ( ( #332 ) ) GLOBAL_UNIT_ASSIGNED_CONTEXT ( ( #270, #17, #261 ) ) REPRESENTATION_CONTEXT ( 'NONE', 'WORKASPACE' ) );
#498 = CARTESIAN_POINT ( 'NONE',  ( 0.000000000000000000, 2.932939367483306636, 0.000000000000000000 ) ) ;
#499 = ADVANCED_FACE ( 'NONE', ( #383 ), #260, .F. ) ;
#500 = PLANE ( 'NONE',  #313 ) ;
#501 = FILL_AREA_STYLE_COLOUR ( '', #462 ) ;
#502 = ORIENTED_EDGE ( 'NONE', *, *, #74, .F. ) ;
#503 = DIRECTION ( 'NONE',  ( 1.000000000000000000, 0.000000000000000000, 0.000000000000000000 ) ) ;
#504 = CARTESIAN_POINT ( 'NONE',  ( 3.555000000000013038, -48.38247464587956159, 60.75179999999999580 ) ) ;
#505 = CARTESIAN_POINT ( 'NONE',  ( 9.472665561373937904E-15, -38.38247464587955449, 27.30679999999999197 ) ) ;
#506 = LINE ( 'NONE', #185, #105 ) ;
#507 = ADVANCED_FACE ( 'NONE', ( #424 ), #228, .F. ) ;
#508 = CIRCLE ( 'NONE', #419, 3.555000000000005933 ) ;
#509 = EDGE_CURVE ( 'NONE', #128, #250, #66, .T. ) ;
#510 = DIRECTION ( 'NONE',  ( -0.000000000000000000, -0.000000000000000000, -1.000000000000000000 ) ) ;
#511 = DIRECTION ( 'NONE',  ( -0.000000000000000000, 1.000000000000000000, -0.000000000000000000 ) ) ;
#512 = CARTESIAN_POINT ( 'NONE',  ( -10.00000000000000000, -47.65247464587955761, 20.75179999999999580 ) ) ;
#513 = LINE ( 'NONE', #357, #251 ) ;
#514 = DIRECTION ( 'NONE',  ( -0.000000000000000000, 1.000000000000000000, 3.742661221093434811E-16 ) ) ;
#515 = ADVANCED_FACE ( 'NONE', ( #184 ), #500, .T. ) ;
#516 = ORIENTED_EDGE ( 'NONE', *, *, #509, .F. ) ;
#517 = VECTOR ( 'NONE', #53, 1000.000000000000000 ) ;
#518 = LINE ( 'NONE', #402, #33 ) ;
#519 = DIRECTION ( 'NONE',  ( 1.000000000000000000, 0.000000000000000000, 0.000000000000000000 ) ) ;
#520 = APPLICATION_CONTEXT ( 'automotive_design' ) ;
#521 = ORIENTED_EDGE ( 'NONE', *, *, #448, .T. ) ;
ENDSEC;
END-ISO-10303-21;
