ISO-10303-21;
HEADER;
FILE_DESCRIPTION (( 'STEP AP214' ),
    '1' );
FILE_NAME ('coil-holder.STEP',
    '2026-08-03T19:54:43',
    ( '' ),
    ( '' ),
    'SwSTEP 2.0',
    'SolidWorks 2026',
    '' );
FILE_SCHEMA (( 'AUTOMOTIVE_DESIGN' ));
ENDSEC;

DATA;
#1 = VECTOR ( 'NONE', #614, 1000.000000000000000 ) ;
#2 = DIRECTION ( 'NONE',  ( 6.829619984160657060E-16, -1.000000000000000000, 0.000000000000000000 ) ) ;
#3 = CARTESIAN_POINT ( 'NONE',  ( -54.05500000000001393, -38.38147464587954971, 20.75179999999999580 ) ) ;
#4 = EDGE_CURVE ( 'NONE', #445, #31, #335, .T. ) ;
#5 = ORIENTED_EDGE ( 'NONE', *, *, #307, .F. ) ;
#6 = CARTESIAN_POINT ( 'NONE',  ( -54.05500000000001393, -48.38147464587957813, 6.819900000000050255 ) ) ;
#7 = VECTOR ( 'NONE', #590, 1000.000000000000000 ) ;
#8 = DIRECTION ( 'NONE',  ( -1.000000000000000000, -6.829619984160656074E-16, -0.000000000000000000 ) ) ;
#9 = ORIENTED_EDGE ( 'NONE', *, *, #415, .F. ) ;
#10 = CARTESIAN_POINT ( 'NONE',  ( 33.73500000000002075, -38.38147464587954971, 20.75179999999999580 ) ) ;
#11 = CARTESIAN_POINT ( 'NONE',  ( 0.000000000000000000, 0.000000000000000000, 20.75179999999999580 ) ) ;
#12 = CARTESIAN_POINT ( 'NONE',  ( -54.05500000000001393, -38.38147464587954971, 0.000000000000000000 ) ) ;
#13 = DIRECTION ( 'NONE',  ( 1.000000000000000000, 6.829619984160657060E-16, 0.000000000000000000 ) ) ;
#14 = CARTESIAN_POINT ( 'NONE',  ( -54.05500000000001393, -38.38147464587954971, 20.75179999999999580 ) ) ;
#15 = ORIENTED_EDGE ( 'NONE', *, *, #194, .F. ) ;
#16 = SURFACE_STYLE_USAGE ( .BOTH. , #475 ) ;
#17 = LINE ( 'NONE', #224, #89 ) ;
#18 = VECTOR ( 'NONE', #627, 1000.000000000000000 ) ;
#19 = EDGE_CURVE ( 'NONE', #445, #238, #352, .T. ) ;
#20 = ORIENTED_EDGE ( 'NONE', *, *, #381, .T. ) ;
#21 = DIRECTION ( 'NONE',  ( -1.582423028416503956E-16, 1.000000000000000000, -0.000000000000000000 ) ) ;
#22 = VERTEX_POINT ( 'NONE', #88 ) ;
#23 = CARTESIAN_POINT ( 'NONE',  ( -54.05500000000001393, -47.65247464587955761, 6.819900000000052032 ) ) ;
#24 = AXIS2_PLACEMENT_3D ( 'NONE', #685, #191, #508 ) ;
#25 = ORIENTED_EDGE ( 'NONE', *, *, #135, .T. ) ;
#26 = LINE ( 'NONE', #219, #211 ) ;
#27 = VECTOR ( 'NONE', #309, 1000.000000000000000 ) ;
#28 = ORIENTED_EDGE ( 'NONE', *, *, #510, .T. ) ;
#29 = VERTEX_POINT ( 'NONE', #37 ) ;
#30 = DIRECTION ( 'NONE',  ( -1.582423028416503956E-16, 1.000000000000000000, -0.000000000000000000 ) ) ;
#31 = VERTEX_POINT ( 'NONE', #451 ) ;
#32 = ORIENTED_EDGE ( 'NONE', *, *, #206, .F. ) ;
#33 = ORIENTED_EDGE ( 'NONE', *, *, #642, .T. ) ;
#34 = ORIENTED_EDGE ( 'NONE', *, *, #277, .T. ) ;
#35 = AXIS2_PLACEMENT_3D ( 'NONE', #14, #409, #630 ) ;
#36 = EDGE_CURVE ( 'NONE', #228, #154, #291, .T. ) ;
#37 = CARTESIAN_POINT ( 'NONE',  ( 1.270000000000000240, 0.7332348418708327653, 20.75179999999999580 ) ) ;
#38 = EDGE_CURVE ( 'NONE', #226, #333, #511, .T. ) ;
#39 = CARTESIAN_POINT ( 'NONE',  ( -33.73500000000000654, 19.47691133111225525, 20.75179999999999580 ) ) ;
#40 = EDGE_CURVE ( 'NONE', #226, #438, #145, .T. ) ;
#41 = DIRECTION ( 'NONE',  ( -1.241749088029210375E-16, -1.964972352412615269E-32, -1.000000000000000000 ) ) ;
#42 = AXIS2_PLACEMENT_3D ( 'NONE', #369, #310, #536 ) ;
#43 = DIRECTION ( 'NONE',  ( -1.000000000000000000, -1.283672907946948010E-16, 0.000000000000000000 ) ) ;
#44 = DIRECTION ( 'NONE',  ( 0.000000000000000000, 0.000000000000000000, -1.000000000000000000 ) ) ;
#45 = DIRECTION ( 'NONE',  ( 0.000000000000000000, 0.000000000000000000, -1.000000000000000000 ) ) ;
#46 = ORIENTED_EDGE ( 'NONE', *, *, #52, .T. ) ;
#47 = FACE_OUTER_BOUND ( 'NONE', #132, .T. ) ;
#48 = LINE ( 'NONE', #3, #355 ) ;
#49 = LINE ( 'NONE', #258, #452 ) ;
#50 = LINE ( 'NONE', #647, #344 ) ;
#51 = LINE ( 'NONE', #161, #412 ) ;
#52 = EDGE_CURVE ( 'NONE', #604, #111, #563, .T. ) ;
#53 = AXIS2_PLACEMENT_3D ( 'NONE', #512, #618, #341 ) ;
#54 = DIRECTION ( 'NONE',  ( 1.000000000000000000, 0.000000000000000000, 0.000000000000000000 ) ) ;
#55 = DIRECTION ( 'NONE',  ( 0.8660254037844361541, 0.5000000000000043299, 0.000000000000000000 ) ) ;
#56 = DIRECTION ( 'NONE',  ( 1.000000000000000000, 0.000000000000000000, -1.241749088029210375E-16 ) ) ;
#57 = ORIENTED_EDGE ( 'NONE', *, *, #38, .F. ) ;
#58 = CARTESIAN_POINT ( 'NONE',  ( 54.05500000000001393, -38.38147464587956392, 6.819900000000037821 ) ) ;
#59 = CARTESIAN_POINT ( 'NONE',  ( 40.08500000000000796, -47.65247464587954340, 13.93189999999996509 ) ) ;
#60 = CARTESIAN_POINT ( 'NONE',  ( -54.05500000000001393, -47.65247464587955761, 20.75179999999999580 ) ) ;
#61 = DIRECTION ( 'NONE',  ( -0.000000000000000000, -0.000000000000000000, -1.000000000000000000 ) ) ;
#62 = CARTESIAN_POINT ( 'NONE',  ( 54.05500000000002814, -38.38147464587953550, 0.000000000000000000 ) ) ;
#63 = SHAPE_DEFINITION_REPRESENTATION ( #96, #428 ) ;
#64 = CARTESIAN_POINT ( 'NONE',  ( 8.821962482171042070E-15, -38.38147464587957103, 13.93189999999997042 ) ) ;
#65 = EDGE_LOOP ( 'NONE', ( #174, #615, #297, #389 ) ) ;
#66 = VECTOR ( 'NONE', #313, 1000.000000000000000 ) ;
#67 = LINE ( 'NONE', #202, #582 ) ;
#68 = ADVANCED_FACE ( 'NONE', ( #455 ), #687, .F. ) ;
#69 = LINE ( 'NONE', #543, #120 ) ;
#70 = ORIENTED_EDGE ( 'NONE', *, *, #4, .F. ) ;
#71 = ORIENTED_EDGE ( 'NONE', *, *, #469, .T. ) ;
#72 = CARTESIAN_POINT ( 'NONE',  ( 40.08500000000000796, -47.65247464587954340, 10.37589999999998902 ) ) ;
#73 = ORIENTED_EDGE ( 'NONE', *, *, #682, .F. ) ;
#74 = MECHANICAL_DESIGN_GEOMETRIC_PRESENTATION_REPRESENTATION (  '', ( #509 ), #329 ) ;
#75 = ORIENTED_EDGE ( 'NONE', *, *, #206, .T. ) ;
#76 = EDGE_CURVE ( 'NONE', #602, #226, #247, .T. ) ;
#77 = VERTEX_POINT ( 'NONE', #573 ) ;
#78 = AXIS2_PLACEMENT_3D ( 'NONE', #302, #651, #55 ) ;
#79 = ORIENTED_EDGE ( 'NONE', *, *, #40, .T. ) ;
#80 = EDGE_LOOP ( 'NONE', ( #444, #490, #387, #442 ) ) ;
#81 = CARTESIAN_POINT ( 'NONE',  ( 33.73500000000000654, 19.47691133111226236, 20.75179999999999580 ) ) ;
#82 = ORIENTED_EDGE ( 'NONE', *, *, #656, .F. ) ;
#83 = EDGE_LOOP ( 'NONE', ( #609, #308, #33, #314 ) ) ;
#84 = VECTOR ( 'NONE', #368, 1000.000000000000227 ) ;
#85 = ADVANCED_FACE ( 'NONE', ( #248 ), #453, .F. ) ;
#86 = ORIENTED_EDGE ( 'NONE', *, *, #682, .T. ) ;
#87 = CARTESIAN_POINT ( 'NONE',  ( -40.08500000000003638, -48.38147464587957813, 10.37589999999999790 ) ) ;
#88 = CARTESIAN_POINT ( 'NONE',  ( -54.05500000000001393, -38.38147464587954971, 20.75179999999999580 ) ) ;
#89 = VECTOR ( 'NONE', #122, 1000.000000000000000 ) ;
#90 = ADVANCED_FACE ( 'NONE', ( #626 ), #405, .F. ) ;
#91 = FACE_OUTER_BOUND ( 'NONE', #558, .T. ) ;
#92 = DIRECTION ( 'NONE',  ( -1.283672907946948010E-16, 1.000000000000000000, 0.000000000000000000 ) ) ;
#93 = PLANE ( 'NONE',  #231 ) ;
#94 = VECTOR ( 'NONE', #398, 1000.000000000000114 ) ;
#95 = DIRECTION ( 'NONE',  ( -0.000000000000000000, -0.000000000000000000, -1.000000000000000000 ) ) ;
#96 = PRODUCT_DEFINITION_SHAPE ( 'NONE', 'NONE',  #557 ) ;
#97 = FACE_OUTER_BOUND ( 'NONE', #497, .T. ) ;
#98 = CARTESIAN_POINT ( 'NONE',  ( -1.270000000000014229, 0.7332348418708396487, 20.75179999999999580 ) ) ;
#99 = ADVANCED_FACE ( 'NONE', ( #354 ), #244, .F. ) ;
#100 = ADVANCED_FACE ( 'NONE', ( #407 ), #345, .F. ) ;
#101 = VECTOR ( 'NONE', #158, 1000.000000000000227 ) ;
#102 = FACE_OUTER_BOUND ( 'NONE', #540, .T. ) ;
#103 = VECTOR ( 'NONE', #200, 1000.000000000000000 ) ;
#104 = LINE ( 'NONE', #631, #338 ) ;
#105 = ADVANCED_FACE ( 'NONE', ( #97 ), #195, .T. ) ;
#106 = AXIS2_PLACEMENT_3D ( 'NONE', #188, #92, #43 ) ;
#107 = VERTEX_POINT ( 'NONE', #569 ) ;
#108 = LINE ( 'NONE', #376, #249 ) ;
#109 = CARTESIAN_POINT ( 'NONE',  ( 54.05500000000002814, -38.38147464587953550, 20.75179999999999580 ) ) ;
#110 = DIRECTION ( 'NONE',  ( -1.000000000000000000, -1.847758622005156354E-16, 1.241749088029210375E-16 ) ) ;
#111 = VERTEX_POINT ( 'NONE', #146 ) ;
#112 = DIRECTION ( 'NONE',  ( -1.582423028416503956E-16, 1.000000000000000000, -0.000000000000000000 ) ) ;
#113 = ADVANCED_FACE ( 'NONE', ( #47 ), #93, .F. ) ;
#114 =( NAMED_UNIT ( * ) SI_UNIT ( $, .STERADIAN. ) SOLID_ANGLE_UNIT ( ) );
#115 = ORIENTED_EDGE ( 'NONE', *, *, #364, .F. ) ;
#116 =( NAMED_UNIT ( * ) PLANE_ANGLE_UNIT ( ) SI_UNIT ( $, .RADIAN. ) );
#117 = FACE_OUTER_BOUND ( 'NONE', #386, .T. ) ;
#118 = DIRECTION ( 'NONE',  ( 1.283672907946948010E-16, -1.000000000000000000, -0.000000000000000000 ) ) ;
#119 = ORIENTED_EDGE ( 'NONE', *, *, #450, .F. ) ;
#120 = VECTOR ( 'NONE', #169, 1000.000000000000000 ) ;
#121 = ORIENTED_EDGE ( 'NONE', *, *, #622, .F. ) ;
#122 = DIRECTION ( 'NONE',  ( -0.000000000000000000, -0.000000000000000000, 1.000000000000000000 ) ) ;
#123 = ORIENTED_EDGE ( 'NONE', *, *, #653, .T. ) ;
#124 = EDGE_CURVE ( 'NONE', #466, #131, #196, .T. ) ;
#125 = ORIENTED_EDGE ( 'NONE', *, *, #139, .T. ) ;
#126 = ORIENTED_EDGE ( 'NONE', *, *, #178, .F. ) ;
#127 = VECTOR ( 'NONE', #21, 1000.000000000000000 ) ;
#128 = ORIENTED_EDGE ( 'NONE', *, *, #173, .T. ) ;
#129 = ORIENTED_EDGE ( 'NONE', *, *, #364, .T. ) ;
#130 = CARTESIAN_POINT ( 'NONE',  ( 40.08500000000000796, -48.38147464587956392, 10.37589999999998902 ) ) ;
#131 = VERTEX_POINT ( 'NONE', #315 ) ;
#132 = EDGE_LOOP ( 'NONE', ( #544, #613, #286, #70 ) ) ;
#133 = DIRECTION ( 'NONE',  ( 1.000000000000000000, 0.000000000000000000, 0.000000000000000000 ) ) ;
#134 = ORIENTED_EDGE ( 'NONE', *, *, #347, .T. ) ;
#135 = EDGE_CURVE ( 'NONE', #414, #370, #306, .T. ) ;
#136 = CARTESIAN_POINT ( 'NONE',  ( 54.05500000000002814, -38.38147464587953550, 20.75179999999999580 ) ) ;
#137 = VECTOR ( 'NONE', #44, 1000.000000000000000 ) ;
#138 = VECTOR ( 'NONE', #422, 1000.000000000000000 ) ;
#139 = EDGE_CURVE ( 'NONE', #22, #602, #210, .T. ) ;
#140 = DIRECTION ( 'NONE',  ( -0.000000000000000000, 0.000000000000000000, -1.000000000000000000 ) ) ;
#141 = CARTESIAN_POINT ( 'NONE',  ( 1.040438551058754622E-14, -48.38147464587957103, 13.93189999999997042 ) ) ;
#142 = AXIS2_PLACEMENT_3D ( 'NONE', #259, #468, #424 ) ;
#143 = CARTESIAN_POINT ( 'NONE',  ( 9.521253559181179734E-15, -48.38147464587957103, 6.819900000000044926 ) ) ;
#144 = AXIS2_PLACEMENT_3D ( 'NONE', #566, #298, #140 ) ;
#145 = LINE ( 'NONE', #289, #517 ) ;
#146 = CARTESIAN_POINT ( 'NONE',  ( -40.08500000000003638, -38.38147464587957813, 6.819900000000048479 ) ) ;
#147 = CARTESIAN_POINT ( 'NONE',  ( -54.05500000000001393, -47.65247464587955761, 20.75179999999999580 ) ) ;
#148 = FACE_OUTER_BOUND ( 'NONE', #600, .T. ) ;
#149 = CIRCLE ( 'NONE', #503, 3.555999999999961858 ) ;
#150 = CARTESIAN_POINT ( 'NONE',  ( 0.000000000000000000, 2.932939367483306636, 20.75179999999999580 ) ) ;
#151 = ORIENTED_EDGE ( 'NONE', *, *, #19, .T. ) ;
#152 = CARTESIAN_POINT ( 'NONE',  ( 40.08500000000000796, -47.65247464587954340, 6.819900000000039597 ) ) ;
#153 = DIRECTION ( 'NONE',  ( -1.000000000000000000, 0.000000000000000000, 0.000000000000000000 ) ) ;
#154 = VERTEX_POINT ( 'NONE', #366 ) ;
#155 = LINE ( 'NONE', #363, #587 ) ;
#156 = EDGE_CURVE ( 'NONE', #604, #431, #108, .T. ) ;
#157 = VECTOR ( 'NONE', #489, 1000.000000000000000 ) ;
#158 = DIRECTION ( 'NONE',  ( -0.8660254037844360431, -0.5000000000000044409, 0.000000000000000000 ) ) ;
#159 = ORIENTED_EDGE ( 'NONE', *, *, #290, .T. ) ;
#160 = CARTESIAN_POINT ( 'NONE',  ( -33.73500000000000654, -38.38147464587955682, 20.75179999999999580 ) ) ;
#161 = CARTESIAN_POINT ( 'NONE',  ( 54.05500000000002814, -38.38147464587953550, 20.75179999999999580 ) ) ;
#162 = DIRECTION ( 'NONE',  ( -1.000000000000000000, -1.847758622005156354E-16, 1.241749088029210375E-16 ) ) ;
#163 = VECTOR ( 'NONE', #199, 1000.000000000000000 ) ;
#164 = FACE_OUTER_BOUND ( 'NONE', #501, .T. ) ;
#165 = DIRECTION ( 'NONE',  ( -1.000000000000000000, 0.000000000000000000, -0.000000000000000000 ) ) ;
#166 = PLANE ( 'NONE',  #42 ) ;
#167 = ORIENTED_EDGE ( 'NONE', *, *, #467, .F. ) ;
#168 = CARTESIAN_POINT ( 'NONE',  ( -33.73500000000000654, -38.38147464587955682, 20.75179999999999580 ) ) ;
#169 = DIRECTION ( 'NONE',  ( 1.000000000000000000, 1.847758622005156354E-16, -1.241749088029210375E-16 ) ) ;
#170 = ORIENTED_EDGE ( 'NONE', *, *, #676, .T. ) ;
#171 = DIRECTION ( 'NONE',  ( -1.582423028416503956E-16, 1.000000000000000000, -0.000000000000000000 ) ) ;
#172 = ORIENTED_EDGE ( 'NONE', *, *, #525, .T. ) ;
#173 = EDGE_CURVE ( 'NONE', #438, #554, #50, .T. ) ;
#174 = ORIENTED_EDGE ( 'NONE', *, *, #318, .F. ) ;
#175 = LINE ( 'NONE', #317, #572 ) ;
#176 = VERTEX_POINT ( 'NONE', #58 ) ;
#177 = ORIENTED_EDGE ( 'NONE', *, *, #462, .T. ) ;
#178 = EDGE_CURVE ( 'NONE', #602, #492, #429, .T. ) ;
#179 = APPLICATION_PROTOCOL_DEFINITION ( 'draft international standard', 'automotive_design', 1998, #479 ) ;
#180 = ORIENTED_EDGE ( 'NONE', *, *, #659, .F. ) ;
#181 = AXIS2_PLACEMENT_3D ( 'NONE', #130, #30, #625 ) ;
#182 = ORIENTED_EDGE ( 'NONE', *, *, #516, .T. ) ;
#183 = APPLICATION_PROTOCOL_DEFINITION ( 'draft international standard', 'automotive_design', 1998, #374 ) ;
#184 = ORIENTED_EDGE ( 'NONE', *, *, #135, .F. ) ;
#185 = FACE_OUTER_BOUND ( 'NONE', #80, .T. ) ;
#186 = AXIS2_PLACEMENT_3D ( 'NONE', #109, #153, #538 ) ;
#187 = ORIENTED_EDGE ( 'NONE', *, *, #318, .T. ) ;
#188 = CARTESIAN_POINT ( 'NONE',  ( -54.05500000000001393, -47.65247464587955761, 20.75179999999999580 ) ) ;
#189 = DIRECTION ( 'NONE',  ( -1.000000000000000000, 0.000000000000000000, 0.000000000000000000 ) ) ;
#190 = DIRECTION ( 'NONE',  ( 0.000000000000000000, 0.000000000000000000, 1.000000000000000000 ) ) ;
#191 = DIRECTION ( 'NONE',  ( 1.283672907946948010E-16, -1.000000000000000000, -0.000000000000000000 ) ) ;
#192 = VECTOR ( 'NONE', #215, 1000.000000000000000 ) ;
#193 = CARTESIAN_POINT ( 'NONE',  ( 40.08500000000000796, -38.38147464587956392, 13.93189999999996509 ) ) ;
#194 = EDGE_CURVE ( 'NONE', #282, #370, #416, .T. ) ;
#195 = PLANE ( 'NONE',  #555 ) ;
#196 = CIRCLE ( 'NONE', #53, 3.555999999999961858 ) ;
#197 = CARTESIAN_POINT ( 'NONE',  ( -33.73500000000000654, 19.47691133111225525, 20.75179999999999580 ) ) ;
#198 = DIRECTION ( 'NONE',  ( -1.000000000000000000, -2.398578455564445459E-16, 0.000000000000000000 ) ) ;
#199 = DIRECTION ( 'NONE',  ( 1.000000000000000000, 1.847758622005156354E-16, -1.241749088029210375E-16 ) ) ;
#200 = DIRECTION ( 'NONE',  ( 1.000000000000000000, 1.283672907946947763E-16, 0.000000000000000000 ) ) ;
#201 = EDGE_CURVE ( 'NONE', #494, #254, #155, .T. ) ;
#202 = CARTESIAN_POINT ( 'NONE',  ( -40.08500000000003638, -48.38147464587957813, 6.819900000000048479 ) ) ;
#203 = EDGE_CURVE ( 'NONE', #331, #604, #411, .T. ) ;
#204 = AXIS2_PLACEMENT_3D ( 'NONE', #348, #133, #493 ) ;
#205 = CARTESIAN_POINT ( 'NONE',  ( 33.73500000000000654, 19.47691133111226236, 0.000000000000000000 ) ) ;
#206 = EDGE_CURVE ( 'NONE', #661, #414, #537, .T. ) ;
#207 = CARTESIAN_POINT ( 'NONE',  ( -54.05500000000001393, -47.65247464587955761, 20.75179999999999580 ) ) ;
#208 = DIRECTION ( 'NONE',  ( -0.000000000000000000, -0.000000000000000000, -1.000000000000000000 ) ) ;
#209 = ORIENTED_EDGE ( 'NONE', *, *, #516, .F. ) ;
#210 = LINE ( 'NONE', #591, #27 ) ;
#211 = VECTOR ( 'NONE', #427, 1000.000000000000000 ) ;
#212 = CARTESIAN_POINT ( 'NONE',  ( -33.73500000000000654, -38.38147464587955682, 20.75179999999999580 ) ) ;
#213 = FACE_OUTER_BOUND ( 'NONE', #580, .T. ) ;
#214 = ORIENTED_EDGE ( 'NONE', *, *, #139, .F. ) ;
#215 = DIRECTION ( 'NONE',  ( -1.000000000000000000, -6.829619984160656074E-16, -0.000000000000000000 ) ) ;
#216 = FACE_OUTER_BOUND ( 'NONE', #283, .T. ) ;
#217 = LINE ( 'NONE', #212, #138 ) ;
#218 = VERTEX_POINT ( 'NONE', #255 ) ;
#219 = CARTESIAN_POINT ( 'NONE',  ( 54.05500000000002814, -38.38147464587953550, 0.000000000000000000 ) ) ;
#220 = CARTESIAN_POINT ( 'NONE',  ( 54.05500000000002814, -47.65247464587954340, 20.75179999999999580 ) ) ;
#221 = DIRECTION ( 'NONE',  ( -1.000000000000000000, 0.000000000000000000, 0.000000000000000000 ) ) ;
#222 = ORIENTED_EDGE ( 'NONE', *, *, #633, .F. ) ;
#223 = VECTOR ( 'NONE', #507, 1000.000000000000000 ) ;
#224 = CARTESIAN_POINT ( 'NONE',  ( 1.270000000000010676, 0.7332348418708396487, 20.75179999999999580 ) ) ;
#225 = ADVANCED_FACE ( 'NONE', ( #102 ), #372, .F. ) ;
#226 = VERTEX_POINT ( 'NONE', #220 ) ;
#227 = CIRCLE ( 'NONE', #24, 3.555999999999961858 ) ;
#228 = VERTEX_POINT ( 'NONE', #98 ) ;
#229 = DIRECTION ( 'NONE',  ( -0.000000000000000000, -0.000000000000000000, -1.000000000000000000 ) ) ;
#230 = ORIENTED_EDGE ( 'NONE', *, *, #316, .T. ) ;
#231 = AXIS2_PLACEMENT_3D ( 'NONE', #197, #570, #295 ) ;
#232 = EDGE_CURVE ( 'NONE', #154, #31, #641, .T. ) ;
#233 = ADVANCED_FACE ( 'NONE', ( #164 ), #528, .F. ) ;
#234 = ORIENTED_EDGE ( 'NONE', *, *, #232, .F. ) ;
#235 = ORIENTED_EDGE ( 'NONE', *, *, #499, .T. ) ;
#236 = ORIENTED_EDGE ( 'NONE', *, *, #420, .F. ) ;
#237 = DIRECTION ( 'NONE',  ( 0.000000000000000000, 0.000000000000000000, 1.000000000000000000 ) ) ;
#238 = VERTEX_POINT ( 'NONE', #160 ) ;
#239 = ORIENTED_EDGE ( 'NONE', *, *, #415, .T. ) ;
#240 = AXIS2_PLACEMENT_3D ( 'NONE', #141, #342, #564 ) ;
#241 = ORIENTED_EDGE ( 'NONE', *, *, #173, .F. ) ;
#242 = FACE_OUTER_BOUND ( 'NONE', #417, .T. ) ;
#243 = DIRECTION ( 'NONE',  ( -0.000000000000000000, -0.000000000000000000, -1.000000000000000000 ) ) ;
#244 = CYLINDRICAL_SURFACE ( 'NONE', #454, 3.555999999999961858 ) ;
#245 = ADVANCED_FACE ( 'NONE', ( #117 ), #263, .F. ) ;
#246 = CYLINDRICAL_SURFACE ( 'NONE', #181, 3.555999999999961858 ) ;
#247 = LINE ( 'NONE', #147, #367 ) ;
#248 = FACE_OUTER_BOUND ( 'NONE', #380, .T. ) ;
#249 = VECTOR ( 'NONE', #312, 1000.000000000000000 ) ;
#250 = CARTESIAN_POINT ( 'NONE',  ( 7.938830530764675581E-15, -38.38147464587957103, 6.819900000000044038 ) ) ;
#251 = ORIENTED_EDGE ( 'NONE', *, *, #203, .F. ) ;
#252 = CARTESIAN_POINT ( 'NONE',  ( 54.05500000000002814, -38.38147464587953550, 20.75179999999999580 ) ) ;
#253 = EDGE_CURVE ( 'NONE', #333, #658, #476, .T. ) ;
#254 = VERTEX_POINT ( 'NONE', #541 ) ;
#255 = CARTESIAN_POINT ( 'NONE',  ( -40.08500000000003638, -38.38147464587957813, 13.93189999999997575 ) ) ;
#256 = VECTOR ( 'NONE', #577, 1000.000000000000000 ) ;
#257 = PLANE ( 'NONE',  #35 ) ;
#258 = CARTESIAN_POINT ( 'NONE',  ( 54.05500000000001393, -48.38147464587956392, 6.819900000000037821 ) ) ;
#259 = CARTESIAN_POINT ( 'NONE',  ( -40.08500000000003638, -38.38147464587957813, 10.37589999999999790 ) ) ;
#260 = DIRECTION ( 'NONE',  ( -1.000000000000000000, 0.000000000000000000, 0.000000000000000000 ) ) ;
#261 = DIRECTION ( 'NONE',  ( -1.000000000000000000, 0.000000000000000000, 0.000000000000000000 ) ) ;
#262 = LINE ( 'NONE', #648, #276 ) ;
#263 = PLANE ( 'NONE',  #488 ) ;
#264 = VECTOR ( 'NONE', #531, 1000.000000000000000 ) ;
#265 = DIRECTION ( 'NONE',  ( -1.582423028416503956E-16, 1.000000000000000000, -0.000000000000000000 ) ) ;
#266 = FACE_OUTER_BOUND ( 'NONE', #434, .T. ) ;
#267 = AXIS2_PLACEMENT_3D ( 'NONE', #421, #524, #56 ) ;
#268 = ORIENTED_EDGE ( 'NONE', *, *, #316, .F. ) ;
#269 = CARTESIAN_POINT ( 'NONE',  ( 40.08500000000000796, -48.38147464587956392, 13.93189999999996509 ) ) ;
#270 = DIRECTION ( 'NONE',  ( -0.8660254037844361541, 0.5000000000000042188, -0.000000000000000000 ) ) ;
#271 = DIRECTION ( 'NONE',  ( -2.398578455564444966E-16, 1.000000000000000000, 0.000000000000000000 ) ) ;
#272 = ORIENTED_EDGE ( 'NONE', *, *, #307, .T. ) ;
#273 = CARTESIAN_POINT ( 'NONE',  ( -33.73500000000000654, -38.38147464587955682, 0.000000000000000000 ) ) ;
#274 = ORIENTED_EDGE ( 'NONE', *, *, #293, .T. ) ;
#275 = LINE ( 'NONE', #383, #542 ) ;
#276 = VECTOR ( 'NONE', #472, 1000.000000000000000 ) ;
#277 = EDGE_CURVE ( 'NONE', #131, #111, #67, .T. ) ;
#278 = ORIENTED_EDGE ( 'NONE', *, *, #462, .F. ) ;
#279 = ORIENTED_EDGE ( 'NONE', *, *, #450, .T. ) ;
#280 = VERTEX_POINT ( 'NONE', #634 ) ;
#281 = AXIS2_PLACEMENT_3D ( 'NONE', #359, #2, #13 ) ;
#282 = VERTEX_POINT ( 'NONE', #152 ) ;
#283 = EDGE_LOOP ( 'NONE', ( #79, #128, #115, #57 ) ) ;
#284 = ORIENTED_EDGE ( 'NONE', *, *, #293, .F. ) ;
#285 = PLANE ( 'NONE',  #204 ) ;
#286 = ORIENTED_EDGE ( 'NONE', *, *, #232, .T. ) ;
#287 = DIRECTION ( 'NONE',  ( -1.582423028416503956E-16, 1.000000000000000000, -0.000000000000000000 ) ) ;
#288 = AXIS2_PLACEMENT_3D ( 'NONE', #11, #635, #165 ) ;
#289 = CARTESIAN_POINT ( 'NONE',  ( 54.05500000000002814, -47.65247464587954340, 20.75179999999999580 ) ) ;
#290 = EDGE_CURVE ( 'NONE', #218, #111, #435, .T. ) ;
#291 = LINE ( 'NONE', #629, #137 ) ;
#292 = CIRCLE ( 'NONE', #480, 2.540000000000000036 ) ;
#293 = EDGE_CURVE ( 'NONE', #331, #131, #498, .T. ) ;
#294 = CARTESIAN_POINT ( 'NONE',  ( -33.73500000000000654, -38.38147464587955682, 20.75179999999999580 ) ) ;
#295 = DIRECTION ( 'NONE',  ( 0.8660254037844361541, -0.5000000000000042188, 0.000000000000000000 ) ) ;
#296 = DIRECTION ( 'NONE',  ( -0.000000000000000000, -0.000000000000000000, -1.000000000000000000 ) ) ;
#297 = ORIENTED_EDGE ( 'NONE', *, *, #653, .F. ) ;
#298 = DIRECTION ( 'NONE',  ( 1.000000000000000000, 0.000000000000000000, -0.000000000000000000 ) ) ;
#299 = CARTESIAN_POINT ( 'NONE',  ( 33.73500000000000654, 19.47691133111226236, 20.75179999999999580 ) ) ;
#300 = DIRECTION ( 'NONE',  ( 0.000000000000000000, 0.000000000000000000, 1.000000000000000000 ) ) ;
#301 = ORIENTED_EDGE ( 'NONE', *, *, #253, .F. ) ;
#302 = CARTESIAN_POINT ( 'NONE',  ( 33.73500000000000654, 19.47691133111226236, 20.75179999999999580 ) ) ;
#303 = LINE ( 'NONE', #205, #101 ) ;
#304 = AXIS2_PLACEMENT_3D ( 'NONE', #513, #45, #458 ) ;
#305 = CARTESIAN_POINT ( 'NONE',  ( -33.73500000000000654, 19.47691133111225525, 0.000000000000000000 ) ) ;
#306 = CIRCLE ( 'NONE', #660, 3.555999999999961858 ) ;
#307 = EDGE_CURVE ( 'NONE', #661, #282, #227, .T. ) ;
#308 = ORIENTED_EDGE ( 'NONE', *, *, #574, .T. ) ;
#309 = DIRECTION ( 'NONE',  ( 0.000000000000000000, -1.000000000000000000, 0.000000000000000000 ) ) ;
#310 = DIRECTION ( 'NONE',  ( 1.241749088029210375E-16, 1.964972352412615269E-32, 1.000000000000000000 ) ) ;
#311 = ORIENTED_EDGE ( 'NONE', *, *, #598, .T. ) ;
#312 = DIRECTION ( 'NONE',  ( -0.000000000000000000, -0.000000000000000000, -1.000000000000000000 ) ) ;
#313 = DIRECTION ( 'NONE',  ( -1.582423028416503956E-16, 1.000000000000000000, -0.000000000000000000 ) ) ;
#314 = ORIENTED_EDGE ( 'NONE', *, *, #510, .F. ) ;
#315 = CARTESIAN_POINT ( 'NONE',  ( -40.08500000000003638, -47.65247464587955761, 6.819900000000035156 ) ) ;
#316 = EDGE_CURVE ( 'NONE', #658, #494, #571, .T. ) ;
#317 = CARTESIAN_POINT ( 'NONE',  ( -54.05500000000001393, -47.65247464587955761, 20.75179999999999580 ) ) ;
#318 = EDGE_CURVE ( 'NONE', #29, #228, #621, .T. ) ;
#319 = VECTOR ( 'NONE', #601, 1000.000000000000000 ) ;
#320 = ORIENTED_EDGE ( 'NONE', *, *, #420, .T. ) ;
#321 = CARTESIAN_POINT ( 'NONE',  ( -54.05500000000001393, -38.38147464587957813, 6.819900000000050255 ) ) ;
#322 = ORIENTED_EDGE ( 'NONE', *, *, #253, .T. ) ;
#323 = EDGE_CURVE ( 'NONE', #77, #556, #688, .T. ) ;
#324 = CARTESIAN_POINT ( 'NONE',  ( -33.73500000000000654, -38.38147464587955682, 0.000000000000000000 ) ) ;
#325 = ORIENTED_EDGE ( 'NONE', *, *, #574, .F. ) ;
#326 = CARTESIAN_POINT ( 'NONE',  ( -33.73500000000000654, -38.38147464587955682, 0.000000000000000000 ) ) ;
#327 = ORIENTED_EDGE ( 'NONE', *, *, #559, .T. ) ;
#328 = CARTESIAN_POINT ( 'NONE',  ( -33.73500000000000654, -38.38147464587955682, 20.75179999999999580 ) ) ;
#329 =( GEOMETRIC_REPRESENTATION_CONTEXT ( 3 ) GLOBAL_UNCERTAINTY_ASSIGNED_CONTEXT ( ( #680 ) ) GLOBAL_UNIT_ASSIGNED_CONTEXT ( ( #646, #116, #628 ) ) REPRESENTATION_CONTEXT ( 'NONE', 'WORKASPACE' ) );
#330 = DIRECTION ( 'NONE',  ( 1.000000000000000000, 1.283672907946948010E-16, -1.241749088029210375E-16 ) ) ;
#331 = VERTEX_POINT ( 'NONE', #402 ) ;
#332 = VERTEX_POINT ( 'NONE', #616 ) ;
#333 = VERTEX_POINT ( 'NONE', #136 ) ;
#334 = CARTESIAN_POINT ( 'NONE',  ( 54.05500000000001393, -47.65247464587954340, 6.819900000000037821 ) ) ;
#335 = LINE ( 'NONE', #406, #579 ) ;
#336 = ORIENTED_EDGE ( 'NONE', *, *, #642, .F. ) ;
#337 = ORIENTED_EDGE ( 'NONE', *, *, #178, .T. ) ;
#338 = VECTOR ( 'NONE', #8, 1000.000000000000000 ) ;
#339 = CARTESIAN_POINT ( 'NONE',  ( 54.05500000000002814, -38.38147464587953550, 20.75179999999999580 ) ) ;
#340 = ADVANCED_FACE ( 'NONE', ( #242 ), #397, .T. ) ;
#341 = DIRECTION ( 'NONE',  ( -1.000000000000000000, 0.000000000000000000, 0.000000000000000000 ) ) ;
#342 = DIRECTION ( 'NONE',  ( -1.241749088029210375E-16, -1.964972352412615269E-32, -1.000000000000000000 ) ) ;
#343 = FACE_OUTER_BOUND ( 'NONE', #674, .T. ) ;
#344 = VECTOR ( 'NONE', #265, 1000.000000000000000 ) ;
#345 = PLANE ( 'NONE',  #106 ) ;
#346 = ADVANCED_FACE ( 'NONE', ( #91 ), #506, .F. ) ;
#347 = EDGE_CURVE ( 'NONE', #527, #414, #672, .T. ) ;
#348 = CARTESIAN_POINT ( 'NONE',  ( -33.73500000000000654, -38.38147464587955682, 20.75179999999999580 ) ) ;
#349 = CARTESIAN_POINT ( 'NONE',  ( 0.000000000000000000, 0.000000000000000000, 0.000000000000000000 ) ) ;
#350 = PRODUCT_RELATED_PRODUCT_CATEGORY ( 'part', '', ( #617 ) ) ;
#351 = CARTESIAN_POINT ( 'NONE',  ( 54.05500000000001393, -38.38147464587956392, 13.93189999999996331 ) ) ;
#352 = LINE ( 'NONE', #294, #18 ) ;
#353 = CARTESIAN_POINT ( 'NONE',  ( 33.73500000000002075, -38.38147464587954971, 20.75179999999999580 ) ) ;
#354 = FACE_OUTER_BOUND ( 'NONE', #655, .T. ) ;
#355 = VECTOR ( 'NONE', #208, 1000.000000000000000 ) ;
#356 = DIRECTION ( 'NONE',  ( -0.000000000000000000, -0.000000000000000000, 1.000000000000000000 ) ) ;
#357 = PLANE ( 'NONE',  #362 ) ;
#358 = ORIENTED_EDGE ( 'NONE', *, *, #201, .T. ) ;
#359 = CARTESIAN_POINT ( 'NONE',  ( 33.73500000000002075, -38.38147464587954971, 20.75179999999999580 ) ) ;
#360 = DIRECTION ( 'NONE',  ( 1.847758622005156354E-16, -1.000000000000000000, 1.232595164407830672E-32 ) ) ;
#361 = ORIENTED_EDGE ( 'NONE', *, *, #469, .F. ) ;
#362 = AXIS2_PLACEMENT_3D ( 'NONE', #456, #198, #526 ) ;
#363 = CARTESIAN_POINT ( 'NONE',  ( 33.73500000000002075, -38.38147464587954971, 0.000000000000000000 ) ) ;
#364 = EDGE_CURVE ( 'NONE', #333, #554, #51, .T. ) ;
#365 = ORIENTED_EDGE ( 'NONE', *, *, #567, .T. ) ;
#366 = CARTESIAN_POINT ( 'NONE',  ( -1.270000000000014229, 0.7332348418708396487, 0.000000000000000000 ) ) ;
#367 = VECTOR ( 'NONE', #457, 1000.000000000000000 ) ;
#368 = DIRECTION ( 'NONE',  ( -0.8660254037844360431, -0.5000000000000044409, 0.000000000000000000 ) ) ;
#369 = CARTESIAN_POINT ( 'NONE',  ( 9.521253559181179734E-15, -48.38147464587957103, 6.819900000000044038 ) ) ;
#370 = VERTEX_POINT ( 'NONE', #518 ) ;
#371 = LINE ( 'NONE', #273, #7 ) ;
#372 = PLANE ( 'NONE',  #281 ) ;
#373 = LINE ( 'NONE', #588, #66 ) ;
#374 = APPLICATION_CONTEXT ( 'automotive_design' ) ;
#375 = EDGE_LOOP ( 'NONE', ( #327, #86, #15, #236 ) ) ;
#376 = CARTESIAN_POINT ( 'NONE',  ( -54.05500000000001393, -38.38147464587954971, 20.75179999999999580 ) ) ;
#377 = PRODUCT_DEFINITION_FORMATION_WITH_SPECIFIED_SOURCE ( 'ANY', '', #617, .NOT_KNOWN. ) ;
#378 = ADVANCED_FACE ( 'NONE', ( #148 ), #425, .F. ) ;
#379 = LINE ( 'NONE', #657, #599 ) ;
#380 = EDGE_LOOP ( 'NONE', ( #532, #126, #214, #239 ) ) ;
#381 = EDGE_CURVE ( 'NONE', #492, #332, #373, .T. ) ;
#382 = ORIENTED_EDGE ( 'NONE', *, *, #290, .F. ) ;
#383 = CARTESIAN_POINT ( 'NONE',  ( 33.73500000000002075, -38.38147464587954971, 20.75179999999999580 ) ) ;
#384 = VECTOR ( 'NONE', #243, 1000.000000000000000 ) ;
#385 = CARTESIAN_POINT ( 'NONE',  ( -54.05500000000001393, -47.65247464587955761, 6.819900000000050255 ) ) ;
#386 = EDGE_LOOP ( 'NONE', ( #391, #9, #119, #170, #550, #664, #46, #382 ) ) ;
#387 = ORIENTED_EDGE ( 'NONE', *, *, #19, .F. ) ;
#388 = CARTESIAN_POINT ( 'NONE',  ( -40.08500000000003638, -47.65247464587955761, 13.93189999999997575 ) ) ;
#389 = ORIENTED_EDGE ( 'NONE', *, *, #36, .F. ) ;
#390 = ORIENTED_EDGE ( 'NONE', *, *, #656, .T. ) ;
#391 = ORIENTED_EDGE ( 'NONE', *, *, #446, .F. ) ;
#392 = ORIENTED_EDGE ( 'NONE', *, *, #686, .T. ) ;
#393 = VECTOR ( 'NONE', #611, 1000.000000000000000 ) ;
#394 = ORIENTED_EDGE ( 'NONE', *, *, #598, .F. ) ;
#395 = ORIENTED_EDGE ( 'NONE', *, *, #201, .F. ) ;
#396 = DIRECTION ( 'NONE',  ( -1.000000000000000000, 0.000000000000000000, -0.000000000000000000 ) ) ;
#397 = PLANE ( 'NONE',  #240 ) ;
#398 = DIRECTION ( 'NONE',  ( -0.8660254037844361541, 0.5000000000000042188, -0.000000000000000000 ) ) ;
#399 = ADVANCED_FACE ( 'NONE', ( #216 ), #534, .F. ) ;
#400 = CARTESIAN_POINT ( 'NONE',  ( 54.05500000000002814, -38.38147464587953550, 20.75179999999999580 ) ) ;
#401 = VECTOR ( 'NONE', #296, 1000.000000000000000 ) ;
#402 = CARTESIAN_POINT ( 'NONE',  ( -54.05500000000001393, -47.65247464587955761, 6.819900000000050255 ) ) ;
#403 = VECTOR ( 'NONE', #61, 1000.000000000000000 ) ;
#404 = UNCERTAINTY_MEASURE_WITH_UNIT (LENGTH_MEASURE( 1.000000000000000082E-05 ), #519, 'distance_accuracy_value', 'NONE');
#405 = PLANE ( 'NONE',  #529 ) ;
#406 = CARTESIAN_POINT ( 'NONE',  ( -33.73500000000000654, 19.47691133111225525, 20.75179999999999580 ) ) ;
#407 = FACE_OUTER_BOUND ( 'NONE', #649, .T. ) ;
#408 = CARTESIAN_POINT ( 'NONE',  ( 0.000000000000000000, 2.932939367483306636, 0.000000000000000000 ) ) ;
#409 = DIRECTION ( 'NONE',  ( 1.000000000000000000, 0.000000000000000000, -0.000000000000000000 ) ) ;
#410 = VERTEX_POINT ( 'NONE', #62 ) ;
#411 = LINE ( 'NONE', #6, #491 ) ;
#412 = VECTOR ( 'NONE', #470, 1000.000000000000000 ) ;
#413 = ADVANCED_FACE ( 'NONE', ( #266 ), #257, .F. ) ;
#414 = VERTEX_POINT ( 'NONE', #465 ) ;
#415 = EDGE_CURVE ( 'NONE', #22, #332, #48, .T. ) ;
#416 = LINE ( 'NONE', #638, #565 ) ;
#417 = EDGE_LOOP ( 'NONE', ( #637, #585, #394, #241 ) ) ;
#418 = COLOUR_RGB ( '',0.7921568627450980005, 0.8196078431372548767, 0.9333333333333333481 ) ;
#419 = CARTESIAN_POINT ( 'NONE',  ( 36.52900000000004610, -48.38147464587956392, 10.37589999999998902 ) ) ;
#420 = EDGE_CURVE ( 'NONE', #546, #282, #639, .T. ) ;
#421 = CARTESIAN_POINT ( 'NONE',  ( 1.040438551058754622E-14, -48.38147464587957103, 13.93189999999997042 ) ) ;
#422 = DIRECTION ( 'NONE',  ( -0.000000000000000000, -0.000000000000000000, -1.000000000000000000 ) ) ;
#423 = ORIENTED_EDGE ( 'NONE', *, *, #203, .T. ) ;
#424 = DIRECTION ( 'NONE',  ( -1.000000000000000000, 0.000000000000000000, 0.000000000000000000 ) ) ;
#425 = PLANE ( 'NONE',  #288 ) ;
#426 = CARTESIAN_POINT ( 'NONE',  ( 7.938830530764675581E-15, -38.38147464587957103, 6.819900000000044926 ) ) ;
#427 = DIRECTION ( 'NONE',  ( -0.000000000000000000, 1.000000000000000000, -0.000000000000000000 ) ) ;
#428 = ADVANCED_BREP_SHAPE_REPRESENTATION ( 'coil-holder', ( #644, #619 ), #654 ) ;
#429 = LINE ( 'NONE', #207, #403 ) ;
#430 = DIRECTION ( 'NONE',  ( -1.000000000000000000, -1.283672907946948010E-16, 1.241749088029210375E-16 ) ) ;
#431 = VERTEX_POINT ( 'NONE', #662 ) ;
#432 = CLOSED_SHELL ( 'NONE', ( #545, #85, #90, #245, #225, #502, #413, #100, #399, #548, #233, #113, #378, #105, #68, #340, #99, #346, #578, #521, #552 ) ) ;
#433 = VECTOR ( 'NONE', #162, 1000.000000000000000 ) ;
#434 = EDGE_LOOP ( 'NONE', ( #278, #423, #549, #365 ) ) ;
#435 = CIRCLE ( 'NONE', #142, 3.555999999999961858 ) ;
#436 = ORIENTED_EDGE ( 'NONE', *, *, #439, .T. ) ;
#437 = LINE ( 'NONE', #81, #1 ) ;
#438 = VERTEX_POINT ( 'NONE', #482 ) ;
#439 = EDGE_CURVE ( 'NONE', #466, #218, #379, .T. ) ;
#440 = ORIENTED_EDGE ( 'NONE', *, *, #499, .F. ) ;
#441 = ORIENTED_EDGE ( 'NONE', *, *, #40, .F. ) ;
#442 = ORIENTED_EDGE ( 'NONE', *, *, #4, .T. ) ;
#443 = DIRECTION ( 'NONE',  ( 1.000000000000000000, 0.000000000000000000, 0.000000000000000000 ) ) ;
#444 = ORIENTED_EDGE ( 'NONE', *, *, #605, .T. ) ;
#445 = VERTEX_POINT ( 'NONE', #652 ) ;
#446 = EDGE_CURVE ( 'NONE', #332, #218, #69, .T. ) ;
#447 = VECTOR ( 'NONE', #430, 1000.000000000000000 ) ;
#448 = ORIENTED_EDGE ( 'NONE', *, *, #467, .T. ) ;
#449 = CARTESIAN_POINT ( 'NONE',  ( -54.05500000000001393, -47.65247464587955761, 0.000000000000000000 ) ) ;
#450 = EDGE_CURVE ( 'NONE', #238, #22, #595, .T. ) ;
#451 = CARTESIAN_POINT ( 'NONE',  ( -33.73500000000000654, 19.47691133111225525, 0.000000000000000000 ) ) ;
#452 = VECTOR ( 'NONE', #640, 1000.000000000000000 ) ;
#453 = PLANE ( 'NONE',  #144 ) ;
#454 = AXIS2_PLACEMENT_3D ( 'NONE', #684, #681, #623 ) ;
#455 = FACE_OUTER_BOUND ( 'NONE', #375, .T. ) ;
#456 = CARTESIAN_POINT ( 'NONE',  ( 33.73500000000002075, -38.38147464587954971, 20.75179999999999580 ) ) ;
#457 = DIRECTION ( 'NONE',  ( 1.000000000000000000, 1.283672907946947763E-16, 0.000000000000000000 ) ) ;
#458 = DIRECTION ( 'NONE',  ( -1.000000000000000000, 0.000000000000000000, 0.000000000000000000 ) ) ;
#459 = VECTOR ( 'NONE', #471, 1000.000000000000000 ) ;
#460 = CYLINDRICAL_SURFACE ( 'NONE', #668, 2.540000000000000036 ) ;
#461 = DIRECTION ( 'NONE',  ( -1.000000000000000000, 0.000000000000000000, 0.000000000000000000 ) ) ;
#462 = EDGE_CURVE ( 'NONE', #331, #77, #175, .T. ) ;
#463 = ORIENTED_EDGE ( 'NONE', *, *, #446, .T. ) ;
#464 = DIRECTION ( 'NONE',  ( 1.847758622005156354E-16, -1.000000000000000000, 1.232595164407830672E-32 ) ) ;
#465 = CARTESIAN_POINT ( 'NONE',  ( 36.52900000000004610, -38.38147464587956392, 10.37589999999998902 ) ) ;
#466 = VERTEX_POINT ( 'NONE', #388 ) ;
#467 = EDGE_CURVE ( 'NONE', #666, #661, #149, .T. ) ;
#468 = DIRECTION ( 'NONE',  ( -1.847758622005156354E-16, 1.000000000000000000, -1.232595164407830672E-32 ) ) ;
#469 = EDGE_CURVE ( 'NONE', #658, #280, #275, .T. ) ;
#470 = DIRECTION ( 'NONE',  ( -0.000000000000000000, -0.000000000000000000, -1.000000000000000000 ) ) ;
#471 = DIRECTION ( 'NONE',  ( -1.000000000000000000, -1.283672907946948010E-16, 1.241749088029210375E-16 ) ) ;
#472 = DIRECTION ( 'NONE',  ( -0.000000000000000000, -0.000000000000000000, -1.000000000000000000 ) ) ;
#473 = ORIENTED_EDGE ( 'NONE', *, *, #52, .F. ) ;
#474 = AXIS2_PLACEMENT_3D ( 'NONE', #87, #287, #189 ) ;
#475 = SURFACE_SIDE_STYLE ('',( #553 ) ) ;
#476 = LINE ( 'NONE', #10, #192 ) ;
#477 = LINE ( 'NONE', #269, #127 ) ;
#478 = CARTESIAN_POINT ( 'NONE',  ( 40.08500000000000796, -38.38147464587956392, 10.37589999999998902 ) ) ;
#479 = APPLICATION_CONTEXT ( 'automotive_design' ) ;
#480 = AXIS2_PLACEMENT_3D ( 'NONE', #408, #356, #261 ) ;
#481 = ORIENTED_EDGE ( 'NONE', *, *, #567, .F. ) ;
#482 = CARTESIAN_POINT ( 'NONE',  ( 54.05500000000001393, -47.65247464587954340, 13.93189999999996331 ) ) ;
#483 = ORIENTED_EDGE ( 'NONE', *, *, #686, .F. ) ;
#484 = EDGE_LOOP ( 'NONE', ( #436, #159, #576, #562 ) ) ;
#485 = CARTESIAN_POINT ( 'NONE',  ( 33.73500000000002075, -38.38147464587954971, 0.000000000000000000 ) ) ;
#486 = EDGE_CURVE ( 'NONE', #107, #29, #17, .T. ) ;
#487 = VERTEX_POINT ( 'NONE', #324 ) ;
#488 = AXIS2_PLACEMENT_3D ( 'NONE', #168, #586, #594 ) ;
#489 = DIRECTION ( 'NONE',  ( -1.000000000000000000, 3.414809992080328037E-16, 0.000000000000000000 ) ) ;
#490 = ORIENTED_EDGE ( 'NONE', *, *, #676, .F. ) ;
#491 = VECTOR ( 'NONE', #581, 1000.000000000000000 ) ;
#492 = VERTEX_POINT ( 'NONE', #547 ) ;
#493 = DIRECTION ( 'NONE',  ( 0.000000000000000000, 0.000000000000000000, -1.000000000000000000 ) ) ;
#494 = VERTEX_POINT ( 'NONE', #485 ) ;
#495 = ORIENTED_EDGE ( 'NONE', *, *, #439, .F. ) ;
#496 = FACE_OUTER_BOUND ( 'NONE', #667, .T. ) ;
#497 = EDGE_LOOP ( 'NONE', ( #560, #234, #123, #82, #395, #180, #336, #671, #481, #222 ) ) ;
#498 = LINE ( 'NONE', #385, #523 ) ;
#499 = EDGE_CURVE ( 'NONE', #280, #254, #437, .T. ) ;
#500 = CARTESIAN_POINT ( 'NONE',  ( -54.05500000000001393, -47.65247464587955761, 13.93189999999997752 ) ) ;
#501 = EDGE_LOOP ( 'NONE', ( #390, #670, #483, #235 ) ) ;
#502 = ADVANCED_FACE ( 'NONE', ( #185 ), #285, .F. ) ;
#503 = AXIS2_PLACEMENT_3D ( 'NONE', #72, #118, #221 ) ;
#504 = LINE ( 'NONE', #39, #94 ) ;
#505 = DIRECTION ( 'NONE',  ( -1.000000000000000000, 0.000000000000000000, 1.241749088029210375E-16 ) ) ;
#506 = PLANE ( 'NONE',  #267 ) ;
#507 = DIRECTION ( 'NONE',  ( -0.000000000000000000, 1.000000000000000000, -0.000000000000000000 ) ) ;
#508 = DIRECTION ( 'NONE',  ( -1.000000000000000000, 0.000000000000000000, 0.000000000000000000 ) ) ;
#509 = STYLED_ITEM ( 'NONE', ( #650 ), #644 ) ;
#510 = EDGE_CURVE ( 'NONE', #176, #410, #677, .T. ) ;
#511 = LINE ( 'NONE', #252, #223 ) ;
#512 = CARTESIAN_POINT ( 'NONE',  ( -40.08500000000003638, -47.65247464587955761, 10.37589999999999790 ) ) ;
#513 = CARTESIAN_POINT ( 'NONE',  ( 0.000000000000000000, 2.932939367483306636, 20.75179999999999580 ) ) ;
#514 = ORIENTED_EDGE ( 'NONE', *, *, #659, .T. ) ;
#515 = DIRECTION ( 'NONE',  ( 0.000000000000000000, 0.000000000000000000, -1.000000000000000000 ) ) ;
#516 = EDGE_CURVE ( 'NONE', #492, #466, #561, .T. ) ;
#517 = VECTOR ( 'NONE', #95, 1000.000000000000000 ) ;
#518 = CARTESIAN_POINT ( 'NONE',  ( 40.08500000000000796, -38.38147464587954261, 6.819900000000024498 ) ) ;
#519 =( LENGTH_UNIT ( ) NAMED_UNIT ( * ) SI_UNIT ( .MILLI., .METRE. ) );
#520 = CARTESIAN_POINT ( 'NONE',  ( 54.05500000000002814, -47.65247464587954340, 0.000000000000000000 ) ) ;
#521 = ADVANCED_FACE ( 'NONE', ( #673 ), #620, .F. ) ;
#522 = DIRECTION ( 'NONE',  ( -1.000000000000000000, 0.000000000000000000, 0.000000000000000000 ) ) ;
#523 = VECTOR ( 'NONE', #330, 1000.000000000000000 ) ;
#524 = DIRECTION ( 'NONE',  ( 1.241749088029210375E-16, 1.964972352412615269E-32, 1.000000000000000000 ) ) ;
#525 = EDGE_CURVE ( 'NONE', #228, #445, #504, .T. ) ;
#526 = DIRECTION ( 'NONE',  ( 2.398578455564445459E-16, -1.000000000000000000, 0.000000000000000000 ) ) ;
#527 = VERTEX_POINT ( 'NONE', #193 ) ;
#528 = PLANE ( 'NONE',  #78 ) ;
#529 = AXIS2_PLACEMENT_3D ( 'NONE', #400, #461, #190 ) ;
#530 = CARTESIAN_POINT ( 'NONE',  ( -54.05500000000001393, -47.65247464587955761, 13.93189999999997752 ) ) ;
#531 = DIRECTION ( 'NONE',  ( 0.000000000000000000, -1.000000000000000000, 0.000000000000000000 ) ) ;
#532 = ORIENTED_EDGE ( 'NONE', *, *, #381, .F. ) ;
#533 = DIRECTION ( 'NONE',  ( -2.398578455564444966E-16, 1.000000000000000000, 0.000000000000000000 ) ) ;
#534 = PLANE ( 'NONE',  #186 ) ;
#535 = LINE ( 'NONE', #299, #84 ) ;
#536 = DIRECTION ( 'NONE',  ( 1.000000000000000000, 0.000000000000000000, -1.241749088029210375E-16 ) ) ;
#537 = LINE ( 'NONE', #419, #256 ) ;
#538 = DIRECTION ( 'NONE',  ( 0.000000000000000000, 0.000000000000000000, 1.000000000000000000 ) ) ;
#539 = LINE ( 'NONE', #64, #679 ) ;
#540 = EDGE_LOOP ( 'NONE', ( #129, #311, #134, #25, #73, #28, #514, #268, #301 ) ) ;
#541 = CARTESIAN_POINT ( 'NONE',  ( 33.73500000000000654, 19.47691133111226236, 0.000000000000000000 ) ) ;
#542 = VECTOR ( 'NONE', #271, 1000.000000000000000 ) ;
#543 = CARTESIAN_POINT ( 'NONE',  ( 8.821962482171042070E-15, -38.38147464587957103, 13.93189999999997042 ) ) ;
#544 = ORIENTED_EDGE ( 'NONE', *, *, #525, .F. ) ;
#545 = ADVANCED_FACE ( 'NONE', ( #343 ), #246, .F. ) ;
#546 = VERTEX_POINT ( 'NONE', #334 ) ;
#547 = CARTESIAN_POINT ( 'NONE',  ( -54.05500000000001393, -47.65247464587955761, 13.93189999999997752 ) ) ;
#548 = ADVANCED_FACE ( 'NONE', ( #496 ), #357, .F. ) ;
#549 = ORIENTED_EDGE ( 'NONE', *, *, #156, .T. ) ;
#550 = ORIENTED_EDGE ( 'NONE', *, *, #633, .T. ) ;
#551 = ORIENTED_EDGE ( 'NONE', *, *, #76, .F. ) ;
#552 = ADVANCED_FACE ( 'NONE', ( #575 ), #460, .F. ) ;
#553 = SURFACE_STYLE_FILL_AREA ( #607 ) ;
#554 = VERTEX_POINT ( 'NONE', #351 ) ;
#555 = AXIS2_PLACEMENT_3D ( 'NONE', #349, #515, #396 ) ;
#556 = VERTEX_POINT ( 'NONE', #520 ) ;
#557 = PRODUCT_DEFINITION ( 'UNKNOWN', '', #377, #568 ) ;
#558 = EDGE_LOOP ( 'NONE', ( #20, #463, #495, #209 ) ) ;
#559 = EDGE_CURVE ( 'NONE', #546, #176, #49, .T. ) ;
#560 = ORIENTED_EDGE ( 'NONE', *, *, #605, .F. ) ;
#561 = LINE ( 'NONE', #500, #393 ) ;
#562 = ORIENTED_EDGE ( 'NONE', *, *, #124, .F. ) ;
#563 = LINE ( 'NONE', #250, #163 ) ;
#564 = DIRECTION ( 'NONE',  ( -1.000000000000000000, 0.000000000000000000, 1.241749088029210375E-16 ) ) ;
#565 = VECTOR ( 'NONE', #690, 1000.000000000000000 ) ;
#566 = CARTESIAN_POINT ( 'NONE',  ( -54.05500000000001393, -38.38147464587954971, 20.75179999999999580 ) ) ;
#567 = EDGE_CURVE ( 'NONE', #431, #77, #584, .T. ) ;
#568 = PRODUCT_DEFINITION_CONTEXT ( 'detailed design', #479, 'design' ) ;
#569 = CARTESIAN_POINT ( 'NONE',  ( 1.270000000000000240, 0.7332348418708327653, 0.000000000000000000 ) ) ;
#570 = DIRECTION ( 'NONE',  ( -0.5000000000000043299, -0.8660254037844362651, 0.000000000000000000 ) ) ;
#571 = LINE ( 'NONE', #353, #401 ) ;
#572 = VECTOR ( 'NONE', #229, 1000.000000000000000 ) ;
#573 = CARTESIAN_POINT ( 'NONE',  ( -54.05500000000001393, -47.65247464587955761, 0.000000000000000000 ) ) ;
#574 = EDGE_CURVE ( 'NONE', #546, #556, #262, .T. ) ;
#575 = FACE_OUTER_BOUND ( 'NONE', #65, .T. ) ;
#576 = ORIENTED_EDGE ( 'NONE', *, *, #277, .F. ) ;
#577 = DIRECTION ( 'NONE',  ( -1.582423028416503956E-16, 1.000000000000000000, -0.000000000000000000 ) ) ;
#578 = ADVANCED_FACE ( 'NONE', ( #213 ), #166, .T. ) ;
#579 = VECTOR ( 'NONE', #678, 1000.000000000000000 ) ;
#580 = EDGE_LOOP ( 'NONE', ( #274, #34, #473, #251 ) ) ;
#581 = DIRECTION ( 'NONE',  ( -1.582423028416503956E-16, 1.000000000000000000, -0.000000000000000000 ) ) ;
#582 = VECTOR ( 'NONE', #112, 1000.000000000000000 ) ;
#583 = CARTESIAN_POINT ( 'NONE',  ( 33.73500000000002075, -38.38147464587954971, 20.75179999999999580 ) ) ;
#584 = LINE ( 'NONE', #12, #264 ) ;
#585 = ORIENTED_EDGE ( 'NONE', *, *, #622, .T. ) ;
#586 = DIRECTION ( 'NONE',  ( -3.414809992080328530E-16, -1.000000000000000000, 0.000000000000000000 ) ) ;
#587 = VECTOR ( 'NONE', #533, 1000.000000000000000 ) ;
#588 = CARTESIAN_POINT ( 'NONE',  ( -54.05500000000001393, -48.38147464587957813, 13.93189999999997752 ) ) ;
#589 = LINE ( 'NONE', #530, #459 ) ;
#590 = DIRECTION ( 'NONE',  ( -0.000000000000000000, -1.000000000000000000, -0.000000000000000000 ) ) ;
#591 = CARTESIAN_POINT ( 'NONE',  ( -54.05500000000001393, -38.38147464587954971, 20.75179999999999580 ) ) ;
#592 =( NAMED_UNIT ( * ) PLANE_ANGLE_UNIT ( ) SI_UNIT ( $, .RADIAN. ) );
#593 = ORIENTED_EDGE ( 'NONE', *, *, #323, .T. ) ;
#594 = DIRECTION ( 'NONE',  ( 1.000000000000000000, -3.414809992080328530E-16, 0.000000000000000000 ) ) ;
#595 = LINE ( 'NONE', #328, #319 ) ;
#596 = PRODUCT_CONTEXT ( 'NONE', #374, 'mechanical' ) ;
#597 = ORIENTED_EDGE ( 'NONE', *, *, #675, .F. ) ;
#598 = EDGE_CURVE ( 'NONE', #554, #527, #539, .T. ) ;
#599 = VECTOR ( 'NONE', #171, 1000.000000000000000 ) ;
#600 = EDGE_LOOP ( 'NONE', ( #151, #279, #125, #610, #645, #322, #71, #392, #187, #172 ) ) ;
#601 = DIRECTION ( 'NONE',  ( -1.000000000000000000, 3.414809992080328037E-16, 0.000000000000000000 ) ) ;
#602 = VERTEX_POINT ( 'NONE', #60 ) ;
#603 = LINE ( 'NONE', #326, #157 ) ;
#604 = VERTEX_POINT ( 'NONE', #321 ) ;
#605 = EDGE_CURVE ( 'NONE', #31, #487, #371, .T. ) ;
#606 = ORIENTED_EDGE ( 'NONE', *, *, #124, .T. ) ;
#607 = FILL_AREA_STYLE ('',( #665 ) ) ;
#608 = PRESENTATION_LAYER_ASSIGNMENT (  '', '', ( #509 ) ) ;
#609 = ORIENTED_EDGE ( 'NONE', *, *, #559, .F. ) ;
#610 = ORIENTED_EDGE ( 'NONE', *, *, #76, .T. ) ;
#611 = DIRECTION ( 'NONE',  ( 1.000000000000000000, 1.283672907946948010E-16, -1.241749088029210375E-16 ) ) ;
#612 = ORIENTED_EDGE ( 'NONE', *, *, #194, .T. ) ;
#613 = ORIENTED_EDGE ( 'NONE', *, *, #36, .T. ) ;
#614 = DIRECTION ( 'NONE',  ( -0.000000000000000000, -0.000000000000000000, -1.000000000000000000 ) ) ;
#615 = ORIENTED_EDGE ( 'NONE', *, *, #486, .F. ) ;
#616 = CARTESIAN_POINT ( 'NONE',  ( -54.05500000000001393, -38.38147464587957813, 13.93189999999997752 ) ) ;
#617 = PRODUCT ( 'coil-holder', 'coil-holder', '', ( #596 ) ) ;
#618 = DIRECTION ( 'NONE',  ( -1.283672907946948010E-16, 1.000000000000000000, 0.000000000000000000 ) ) ;
#619 = AXIS2_PLACEMENT_3D ( 'NONE', #663, #237, #443 ) ;
#620 = CYLINDRICAL_SURFACE ( 'NONE', #474, 3.555999999999961858 ) ;
#621 = CIRCLE ( 'NONE', #304, 2.540000000000000036 ) ;
#622 = EDGE_CURVE ( 'NONE', #666, #527, #477, .T. ) ;
#623 = DIRECTION ( 'NONE',  ( -1.000000000000000000, 0.000000000000000000, 0.000000000000000000 ) ) ;
#624 = AXIS2_PLACEMENT_3D ( 'NONE', #143, #41, #505 ) ;
#625 = DIRECTION ( 'NONE',  ( -1.000000000000000000, 0.000000000000000000, 0.000000000000000000 ) ) ;
#626 = FACE_OUTER_BOUND ( 'NONE', #83, .T. ) ;
#627 = DIRECTION ( 'NONE',  ( -0.000000000000000000, -1.000000000000000000, -0.000000000000000000 ) ) ;
#628 =( NAMED_UNIT ( * ) SI_UNIT ( $, .STERADIAN. ) SOLID_ANGLE_UNIT ( ) );
#629 = CARTESIAN_POINT ( 'NONE',  ( -1.270000000000012230, 0.7332348418708366511, 0.000000000000000000 ) ) ;
#630 = DIRECTION ( 'NONE',  ( -0.000000000000000000, 0.000000000000000000, -1.000000000000000000 ) ) ;
#631 = CARTESIAN_POINT ( 'NONE',  ( 33.73500000000002075, -38.38147464587954971, 0.000000000000000000 ) ) ;
#632 = AXIS2_PLACEMENT_3D ( 'NONE', #643, #360, #260 ) ;
#633 = EDGE_CURVE ( 'NONE', #487, #431, #603, .T. ) ;
#634 = CARTESIAN_POINT ( 'NONE',  ( 33.73500000000000654, 19.47691133111226236, 20.75179999999999580 ) ) ;
#635 = DIRECTION ( 'NONE',  ( 0.000000000000000000, 0.000000000000000000, -1.000000000000000000 ) ) ;
#636 = CARTESIAN_POINT ( 'NONE',  ( 36.52900000000004610, -47.65247464587954340, 10.37589999999998902 ) ) ;
#637 = ORIENTED_EDGE ( 'NONE', *, *, #675, .T. ) ;
#638 = CARTESIAN_POINT ( 'NONE',  ( 40.08500000000000796, -48.38147464587956392, 6.819900000000039597 ) ) ;
#639 = LINE ( 'NONE', #23, #447 ) ;
#640 = DIRECTION ( 'NONE',  ( -1.582423028416503956E-16, 1.000000000000000000, -0.000000000000000000 ) ) ;
#641 = LINE ( 'NONE', #305, #683 ) ;
#642 = EDGE_CURVE ( 'NONE', #556, #410, #26, .T. ) ;
#643 = CARTESIAN_POINT ( 'NONE',  ( 40.08500000000000796, -38.38147464587956392, 10.37589999999998902 ) ) ;
#644 = MANIFOLD_SOLID_BREP ( 'Fillet1', #432 ) ;
#645 = ORIENTED_EDGE ( 'NONE', *, *, #38, .T. ) ;
#646 =( LENGTH_UNIT ( ) NAMED_UNIT ( * ) SI_UNIT ( .MILLI., .METRE. ) );
#647 = CARTESIAN_POINT ( 'NONE',  ( 54.05500000000001393, -48.38147464587956392, 13.93189999999996331 ) ) ;
#648 = CARTESIAN_POINT ( 'NONE',  ( 54.05500000000002814, -47.65247464587954340, 20.75179999999999580 ) ) ;
#649 = EDGE_LOOP ( 'NONE', ( #337, #182, #606, #284, #177, #593, #325, #320, #5, #167, #597, #441, #551 ) ) ;
#650 = PRESENTATION_STYLE_ASSIGNMENT (( #16 ) ) ;
#651 = DIRECTION ( 'NONE',  ( 0.5000000000000043299, -0.8660254037844361541, 0.000000000000000000 ) ) ;
#652 = CARTESIAN_POINT ( 'NONE',  ( -33.73500000000000654, 19.47691133111225525, 20.75179999999999580 ) ) ;
#653 = EDGE_CURVE ( 'NONE', #154, #107, #292, .T. ) ;
#654 =( GEOMETRIC_REPRESENTATION_CONTEXT ( 3 ) GLOBAL_UNCERTAINTY_ASSIGNED_CONTEXT ( ( #404 ) ) GLOBAL_UNIT_ASSIGNED_CONTEXT ( ( #519, #592, #114 ) ) REPRESENTATION_CONTEXT ( 'NONE', 'WORKASPACE' ) );
#655 = EDGE_LOOP ( 'NONE', ( #32, #272, #612, #184 ) ) ;
#656 = EDGE_CURVE ( 'NONE', #254, #107, #303, .T. ) ;
#657 = CARTESIAN_POINT ( 'NONE',  ( -40.08500000000003638, -48.38147464587957813, 13.93189999999997575 ) ) ;
#658 = VERTEX_POINT ( 'NONE', #583 ) ;
#659 = EDGE_CURVE ( 'NONE', #410, #494, #104, .T. ) ;
#660 = AXIS2_PLACEMENT_3D ( 'NONE', #478, #464, #522 ) ;
#661 = VERTEX_POINT ( 'NONE', #636 ) ;
#662 = CARTESIAN_POINT ( 'NONE',  ( -54.05500000000001393, -38.38147464587954971, 0.000000000000000000 ) ) ;
#663 = CARTESIAN_POINT ( 'NONE',  ( 0.000000000000000000, 0.000000000000000000, 0.000000000000000000 ) ) ;
#664 = ORIENTED_EDGE ( 'NONE', *, *, #156, .F. ) ;
#665 = FILL_AREA_STYLE_COLOUR ( '', #418 ) ;
#666 = VERTEX_POINT ( 'NONE', #59 ) ;
#667 = EDGE_LOOP ( 'NONE', ( #358, #440, #361, #230 ) ) ;
#668 = AXIS2_PLACEMENT_3D ( 'NONE', #150, #300, #54 ) ;
#669 = ORIENTED_EDGE ( 'NONE', *, *, #347, .F. ) ;
#670 = ORIENTED_EDGE ( 'NONE', *, *, #486, .T. ) ;
#671 = ORIENTED_EDGE ( 'NONE', *, *, #323, .F. ) ;
#672 = CIRCLE ( 'NONE', #632, 3.555999999999961858 ) ;
#673 = FACE_OUTER_BOUND ( 'NONE', #484, .T. ) ;
#674 = EDGE_LOOP ( 'NONE', ( #448, #75, #669, #121 ) ) ;
#675 = EDGE_CURVE ( 'NONE', #438, #666, #589, .T. ) ;
#676 = EDGE_CURVE ( 'NONE', #238, #487, #217, .T. ) ;
#677 = LINE ( 'NONE', #339, #384 ) ;
#678 = DIRECTION ( 'NONE',  ( -0.000000000000000000, -0.000000000000000000, -1.000000000000000000 ) ) ;
#679 = VECTOR ( 'NONE', #110, 1000.000000000000000 ) ;
#680 = UNCERTAINTY_MEASURE_WITH_UNIT (LENGTH_MEASURE( 1.000000000000000082E-05 ), #646, 'distance_accuracy_value', 'NONE');
#681 = DIRECTION ( 'NONE',  ( -1.582423028416503956E-16, 1.000000000000000000, -0.000000000000000000 ) ) ;
#682 = EDGE_CURVE ( 'NONE', #176, #370, #689, .T. ) ;
#683 = VECTOR ( 'NONE', #270, 1000.000000000000114 ) ;
#684 = CARTESIAN_POINT ( 'NONE',  ( 40.08500000000000796, -48.38147464587956392, 10.37589999999998902 ) ) ;
#685 = CARTESIAN_POINT ( 'NONE',  ( 40.08500000000000796, -47.65247464587954340, 10.37589999999998902 ) ) ;
#686 = EDGE_CURVE ( 'NONE', #280, #29, #535, .T. ) ;
#687 = PLANE ( 'NONE',  #624 ) ;
#688 = LINE ( 'NONE', #449, #103 ) ;
#689 = LINE ( 'NONE', #426, #433 ) ;
#690 = DIRECTION ( 'NONE',  ( -1.582423028416503956E-16, 1.000000000000000000, -0.000000000000000000 ) ) ;
ENDSEC;
END-ISO-10303-21;
