ISO-10303-21;
HEADER;
FILE_DESCRIPTION (( 'STEP AP214' ),
    '1' );
FILE_NAME ('copper-tube-mount.STEP',
    '2026-07-24T16:39:55',
    ( '' ),
    ( '' ),
    'SwSTEP 2.0',
    'SolidWorks 2026',
    '' );
FILE_SCHEMA (( 'AUTOMOTIVE_DESIGN' ));
ENDSEC;

DATA;
#1 = AXIS2_PLACEMENT_3D ( 'NONE', #416, #301, #160 ) ;
#2 = LINE ( 'NONE', #454, #87 ) ;
#3 = PRESENTATION_STYLE_ASSIGNMENT (( #33 ) ) ;
#4 = CARTESIAN_POINT ( 'NONE',  ( 0.000000000000000000, -3.299556788418711140, 8.254999999999999005 ) ) ;
#5 = AXIS2_PLACEMENT_3D ( 'NONE', #314, #306, #202 ) ;
#6 = DIRECTION ( 'NONE',  ( 0.000000000000000000, 1.000000000000000000, 0.000000000000000000 ) ) ;
#7 = CARTESIAN_POINT ( 'NONE',  ( 4.375503626041929550, -22.25745751532345906, -0.8077806532359570468 ) ) ;
#8 = CARTESIAN_POINT ( 'NONE',  ( -3.488123815571067876, -23.69153518798739810, 2.757673338962785881 ) ) ;
#9 = EDGE_CURVE ( 'NONE', #106, #367, #392, .T. ) ;
#10 = CARTESIAN_POINT ( 'NONE',  ( -3.076193741227612133, -24.96088135593220514, 3.208591134194580086 ) ) ;
#11 = DIRECTION ( 'NONE',  ( 0.000000000000000000, 0.000000000000000000, -1.000000000000000000 ) ) ;
#12 = VERTEX_POINT ( 'NONE', #28 ) ;
#13 = B_SPLINE_CURVE_WITH_KNOTS ( 'NONE', 3,
 ( #243, #478, #436, #138, #282, #311, #351, #233 ),
 .UNSPECIFIED., .F., .F.,
 ( 4, 2, 2, 4 ),
 ( 3.679904200040097469E-18, 0.0002468910659653030491, 0.0004937821319306024120, 0.0009875642638612035229 ),
 .UNSPECIFIED. ) ;
#14 = CARTESIAN_POINT ( 'NONE',  ( -3.076193741227614797, -24.96088135593218738, -3.208591134194577421 ) ) ;
#15 = ORIENTED_EDGE ( 'NONE', *, *, #187, .F. ) ;
#16 = CIRCLE ( 'NONE', #1, 4.444999999999999396 ) ;
#17 = CARTESIAN_POINT ( 'NONE',  ( 0.000000000000000000, -0.1399748469298285336, 6.125882352941172115 ) ) ;
#18 = ORIENTED_EDGE ( 'NONE', *, *, #153, .F. ) ;
#19 = AXIS2_PLACEMENT_3D ( 'NONE', #108, #260, #44 ) ;
#20 = CARTESIAN_POINT ( 'NONE',  ( -4.430142672904443302, -22.18181644576015543, 0.4139776116645126902 ) ) ;
#21 = VERTEX_POINT ( 'NONE', #148 ) ;
#22 = DIRECTION ( 'NONE',  ( 0.000000000000000000, -0.000000000000000000, 1.000000000000000000 ) ) ;
#23 = CARTESIAN_POINT ( 'NONE',  ( 2.583808613054080272, -25.40000000000000924, 3.620696309613993691 ) ) ;
#24 = EDGE_CURVE ( 'NONE', #289, #12, #99, .T. ) ;
#25 = CARTESIAN_POINT ( 'NONE',  ( 3.076193741227611689, -24.96088135593220514, -3.208591134194580086 ) ) ;
#26 = ORIENTED_EDGE ( 'NONE', *, *, #132, .F. ) ;
#27 = CARTESIAN_POINT ( 'NONE',  ( 7.502042215482662096E-16, -0.1399748469298285336, -6.125882352941172115 ) ) ;
#28 = CARTESIAN_POINT ( 'NONE',  ( 3.076193741227615686, -24.96088135593218738, 3.208591134194577421 ) ) ;
#29 = DIRECTION ( 'NONE',  ( 0.000000000000000000, 0.000000000000000000, -1.000000000000000000 ) ) ;
#30 = EDGE_CURVE ( 'NONE', #367, #90, #163, .T. ) ;
#31 = VECTOR ( 'NONE', #290, 1000.000000000000000 ) ;
#32 = CARTESIAN_POINT ( 'NONE',  ( 3.151186473018709577, -24.56892008573945319, -3.136117615849570939 ) ) ;
#33 = SURFACE_STYLE_USAGE ( .BOTH. , #451 ) ;
#34 = DIRECTION ( 'NONE',  ( 0.000000000000000000, 1.000000000000000000, 0.000000000000000000 ) ) ;
#35 = CARTESIAN_POINT ( 'NONE',  ( -2.716603494055525481, -25.37743309778163336, 3.521536076620031430 ) ) ;
#36 = CARTESIAN_POINT ( 'NONE',  ( 4.044085539675497998, -22.73108010263320011, -1.872737080254080810 ) ) ;
#37 = CARTESIAN_POINT ( 'NONE',  ( 0.000000000000000000, 83.81999999999999318, 0.000000000000000000 ) ) ;
#38 = AXIS2_PLACEMENT_3D ( 'NONE', #61, #209, #22 ) ;
#39 = CARTESIAN_POINT ( 'NONE',  ( 0.000000000000000000, 83.81999999999999318, 0.000000000000000000 ) ) ;
#40 = AXIS2_PLACEMENT_3D ( 'NONE', #267, #6, #188 ) ;
#41 = CARTESIAN_POINT ( 'NONE',  ( 3.811987533677259954, -23.10420315298993899, 2.291860865214675691 ) ) ;
#42 = DIRECTION ( 'NONE',  ( 1.000000000000000000, -0.000000000000000000, -0.000000000000000000 ) ) ;
#43 = CARTESIAN_POINT ( 'NONE',  ( 0.000000000000000000, -25.39999999999999858, 0.000000000000000000 ) ) ;
#44 = DIRECTION ( 'NONE',  ( 0.000000000000000000, 0.000000000000000000, 1.000000000000000000 ) ) ;
#45 = CARTESIAN_POINT ( 'NONE',  ( 0.000000000000000000, -25.39999999999999858, 0.000000000000000000 ) ) ;
#46 = MANIFOLD_SOLID_BREP ( 'Fillet2', #49 ) ;
#47 = CARTESIAN_POINT ( 'NONE',  ( -2.445368428274152794, -25.39999999999999858, -3.711899547401571908 ) ) ;
#48 = EDGE_CURVE ( 'NONE', #92, #222, #453, .T. ) ;
#49 = CLOSED_SHELL ( 'NONE', ( #63, #68, #76, #53, #212, #140, #418, #394, #335, #169, #220, #113, #286, #457 ) ) ;
#50 = APPLICATION_PROTOCOL_DEFINITION ( 'draft international standard', 'automotive_design', 1998, #86 ) ;
#51 = CARTESIAN_POINT ( 'NONE',  ( 0.000000000000000000, 0.2813027452686911456, 0.000000000000000000 ) ) ;
#52 = DIRECTION ( 'NONE',  ( -1.224646799147352961E-16, 0.000000000000000000, -1.000000000000000000 ) ) ;
#53 = ADVANCED_FACE ( 'NONE', ( #300 ), #460, .T. ) ;
#54 = DIRECTION ( 'NONE',  ( 0.000000000000000000, 1.000000000000000000, 0.000000000000000000 ) ) ;
#55 = ORIENTED_EDGE ( 'NONE', *, *, #305, .T. ) ;
#56 = CARTESIAN_POINT ( 'NONE',  ( -3.269081313416782653, -24.19698458088157622, -3.013017197095636313 ) ) ;
#57 = EDGE_LOOP ( 'NONE', ( #279, #296, #393, #310 ) ) ;
#58 = AXIS2_PLACEMENT_3D ( 'NONE', #143, #70, #441 ) ;
#59 = CARTESIAN_POINT ( 'NONE',  ( -3.337905195762531640, -24.02397116417217759, 2.937713209501861655 ) ) ;
#60 = ORIENTED_EDGE ( 'NONE', *, *, #153, .T. ) ;
#61 = CARTESIAN_POINT ( 'NONE',  ( 0.000000000000000000, -25.39999999999999858, 0.000000000000000000 ) ) ;
#62 = FACE_OUTER_BOUND ( 'NONE', #406, .T. ) ;
#63 = ADVANCED_FACE ( 'NONE', ( #447 ), #338, .T. ) ;
#64 = CIRCLE ( 'NONE', #452, 4.444999999999999396 ) ;
#65 = CYLINDRICAL_SURFACE ( 'NONE', #328, 0.5080000000000002292 ) ;
#66 = ORIENTED_EDGE ( 'NONE', *, *, #325, .T. ) ;
#67 = DIRECTION ( 'NONE',  ( 0.000000000000000000, 1.000000000000000000, 0.000000000000000000 ) ) ;
#68 = ADVANCED_FACE ( 'NONE', ( #426 ), #427, .F. ) ;
#69 = ORIENTED_EDGE ( 'NONE', *, *, #291, .T. ) ;
#70 = DIRECTION ( 'NONE',  ( 1.000000000000000000, -0.000000000000000000, 1.224646799147353207E-16 ) ) ;
#71 = PRODUCT ( 'copper-tube-mount', 'copper-tube-mount', '', ( #273 ) ) ;
#72 = CARTESIAN_POINT ( 'NONE',  ( -3.076193741227612133, -24.96088135593220514, 3.208591134194580086 ) ) ;
#73 = CARTESIAN_POINT ( 'NONE',  ( 3.269081313416783097, -24.19698458088157622, 3.013017197095635424 ) ) ;
#74 = CARTESIAN_POINT ( 'NONE',  ( -2.892346045258592291, -25.27770255779688213, 3.376113271972637886 ) ) ;
#75 = CARTESIAN_POINT ( 'NONE',  ( 4.041463613342779482, -22.74127277541707670, 1.859004620571125699 ) ) ;
#76 = ADVANCED_FACE ( 'NONE', ( #388 ), #237, .T. ) ;
#77 = FACE_OUTER_BOUND ( 'NONE', #326, .T. ) ;
#78 = CIRCLE ( 'NONE', #321, 6.125882352941177444 ) ;
#79 = FACE_OUTER_BOUND ( 'NONE', #359, .T. ) ;
#80 =( NAMED_UNIT ( * ) SI_UNIT ( $, .STERADIAN. ) SOLID_ANGLE_UNIT ( ) );
#81 = ORIENTED_EDGE ( 'NONE', *, *, #399, .T. ) ;
#82 = PLANE ( 'NONE',  #255 ) ;
#83 = CARTESIAN_POINT ( 'NONE',  ( 0.000000000000000000, -25.39999999999999858, 4.444999999999999396 ) ) ;
#84 = CARTESIAN_POINT ( 'NONE',  ( -3.490134555422736540, -23.68742624626753468, -2.755147459481532390 ) ) ;
#85 = ORIENTED_EDGE ( 'NONE', *, *, #240, .T. ) ;
#86 = APPLICATION_CONTEXT ( 'automotive_design' ) ;
#87 = VECTOR ( 'NONE', #331, 1000.000000000000000 ) ;
#88 = DIRECTION ( 'NONE',  ( 0.000000000000000000, 0.000000000000000000, 1.000000000000000000 ) ) ;
#89 = LINE ( 'NONE', #235, #157 ) ;
#90 = VERTEX_POINT ( 'NONE', #83 ) ;
#91 = CARTESIAN_POINT ( 'NONE',  ( -4.431631435513261330, -22.17977053144757349, -0.3985465590997380181 ) ) ;
#92 = VERTEX_POINT ( 'NONE', #423 ) ;
#93 = DIRECTION ( 'NONE',  ( 1.000000000000000000, 0.000000000000000000, -1.224646799147353207E-16 ) ) ;
#94 = ORIENTED_EDGE ( 'NONE', *, *, #199, .T. ) ;
#95 = FACE_OUTER_BOUND ( 'NONE', #425, .T. ) ;
#96 = EDGE_LOOP ( 'NONE', ( #213, #374, #81, #118 ) ) ;
#97 = DIRECTION ( 'NONE',  ( -1.000000000000000000, 0.000000000000000000, 0.000000000000000000 ) ) ;
#98 = LINE ( 'NONE', #257, #197 ) ;
#99 = B_SPLINE_CURVE_WITH_KNOTS ( 'NONE', 3,
 ( #292, #410, #32, #332, #151, #266, #115, #264, #110, #36, #114, #224, #7, #491, #117, #262, #342, #419, #268, #195, #186, #75, #156, #41, #194, #152, #375, #162, #73, #302, #107, #372 ),
 .UNSPECIFIED., .F., .F.,
 ( 4, 2, 2, 2, 2, 2, 2, 2, 2, 2, 2, 2, 2, 2, 2, 4 ),
 ( 0.0004390407498545732074, 0.001043174973272685329, 0.001647309196690797343, 0.002251443420108909573, 0.002855577643527021803, 0.004063846090363240626, 0.004667980313781348520, 0.005272114537199455546, 0.005876248760617563439, 0.006480382984035671333, 0.007084517207453780094, 0.007688651430871886253, 0.008292785654289994146, 0.008896919877708102040, 0.009501054101126209933, 0.01010518832454431783 ),
 .UNSPECIFIED. ) ;
#100 = EDGE_CURVE ( 'NONE', #21, #259, #462, .T. ) ;
#101 = CIRCLE ( 'NONE', #379, 6.125882352941177444 ) ;
#102 = DIRECTION ( 'NONE',  ( -0.000000000000000000, -1.000000000000000000, -0.000000000000000000 ) ) ;
#103 = CIRCLE ( 'NONE', #19, 4.444999999999999396 ) ;
#104 = EDGE_LOOP ( 'NONE', ( #398, #60, #15 ) ) ;
#105 = CARTESIAN_POINT ( 'NONE',  ( 3.076193741227615686, -24.96088135593218738, 3.208591134194577421 ) ) ;
#106 = VERTEX_POINT ( 'NONE', #10 ) ;
#107 = CARTESIAN_POINT ( 'NONE',  ( 3.104777304819169803, -24.76064258080801750, 3.181187025741726959 ) ) ;
#108 = CARTESIAN_POINT ( 'NONE',  ( 0.000000000000000000, -3.299556788418710696, 0.000000000000000000 ) ) ;
#109 = ORIENTED_EDGE ( 'NONE', *, *, #9, .F. ) ;
#110 = CARTESIAN_POINT ( 'NONE',  ( 3.809906569189094760, -23.10764152126301241, -2.295337380439431918 ) ) ;
#111 = CIRCLE ( 'NONE', #470, 6.349999999999999645 ) ;
#112 =( LENGTH_UNIT ( ) NAMED_UNIT ( * ) SI_UNIT ( .MILLI., .METRE. ) );
#113 = ADVANCED_FACE ( 'NONE', ( #304 ), #178, .T. ) ;
#114 = CARTESIAN_POINT ( 'NONE',  ( 4.182721675314428289, -22.53023828148775820, -1.551750393480147983 ) ) ;
#115 = CARTESIAN_POINT ( 'NONE',  ( 3.568757393377323339, -23.53434800867081123, -2.653632172245557808 ) ) ;
#116 = DIRECTION ( 'NONE',  ( 0.000000000000000000, 0.000000000000000000, 1.000000000000000000 ) ) ;
#117 = CARTESIAN_POINT ( 'NONE',  ( 4.444741657806783763, -22.16185458756878290, -0.2088034727643881816 ) ) ;
#118 = ORIENTED_EDGE ( 'NONE', *, *, #476, .F. ) ;
#119 = EDGE_CURVE ( 'NONE', #106, #319, #126, .T. ) ;
#120 = FACE_OUTER_BOUND ( 'NONE', #438, .T. ) ;
#121 = DIRECTION ( 'NONE',  ( 0.000000000000000000, 1.000000000000000000, 0.000000000000000000 ) ) ;
#122 = SHAPE_DEFINITION_REPRESENTATION ( #477, #177 ) ;
#123 = DIRECTION ( 'NONE',  ( 0.000000000000000000, 0.000000000000000000, -1.000000000000000000 ) ) ;
#124 = CARTESIAN_POINT ( 'NONE',  ( 0.000000000000000000, 83.81999999999999318, 0.000000000000000000 ) ) ;
#125 =( NAMED_UNIT ( * ) SI_UNIT ( $, .STERADIAN. ) SOLID_ANGLE_UNIT ( ) );
#126 = B_SPLINE_CURVE_WITH_KNOTS ( 'NONE', 3,
 ( #270, #308, #467, #127, #59, #8, #358, #238, #431, #309, #353, #471, #429, #20, #466, #391, #91, #318, #241, #424, #207, #433, #200, #395, #167, #134, #84, #468, #56, #474, #128, #14 ),
 .UNSPECIFIED., .F., .F.,
 ( 4, 2, 2, 2, 2, 2, 2, 2, 2, 2, 2, 2, 2, 2, 2, 4 ),
 ( 0.0004390407498545733159, 0.001043174973272685546, 0.001647309196690797777, 0.002251443420108910007, 0.002855577643527022237, 0.004063846090363240626, 0.004667980313781347652, 0.005272114537199454679, 0.005876248760617562572, 0.006480382984035670466, 0.007084517207453778359, 0.007688651430871886253, 0.008292785654289994146, 0.008896919877708103774, 0.009501054101126209933, 0.01010518832454431609 ),
 .UNSPECIFIED. ) ;
#127 = CARTESIAN_POINT ( 'NONE',  ( -3.268460103290548258, -24.19852212548325099, 3.013698465569512486 ) ) ;
#128 = CARTESIAN_POINT ( 'NONE',  ( -3.104777304819171135, -24.76064258080803171, -3.181187025741728736 ) ) ;
#129 = ORIENTED_EDGE ( 'NONE', *, *, #382, .F. ) ;
#130 = TOROIDAL_SURFACE ( 'NONE', #245, 8.254999999999999005, 3.809999999999999609 ) ;
#131 = COLOUR_RGB ( '',0.7921568627450980005, 0.8196078431372548767, 0.9333333333333333481 ) ;
#132 = EDGE_CURVE ( 'NONE', #259, #369, #64, .T. ) ;
#133 = AXIS2_PLACEMENT_3D ( 'NONE', #344, #449, #116 ) ;
#134 = CARTESIAN_POINT ( 'NONE',  ( -3.569802035311588906, -23.53235717861192811, -2.652231944437299038 ) ) ;
#135 = ORIENTED_EDGE ( 'NONE', *, *, #100, .F. ) ;
#136 = CARTESIAN_POINT ( 'NONE',  ( 7.154386600618837618E-16, 0.2813027452686911456, 5.841999999999999638 ) ) ;
#137 = EDGE_LOOP ( 'NONE', ( #352, #317, #487, #485 ) ) ;
#138 = CARTESIAN_POINT ( 'NONE',  ( 2.945780096205389498, -25.23350465652753627, -3.329238010183571461 ) ) ;
#139 = ORIENTED_EDGE ( 'NONE', *, *, #30, .T. ) ;
#140 = ADVANCED_FACE ( 'NONE', ( #174 ), #274, .T. ) ;
#141 = PLANE ( 'NONE',  #312 ) ;
#142 = CARTESIAN_POINT ( 'NONE',  ( -3.064395971076298242, -25.04352923980185608, -3.219902088187172495 ) ) ;
#143 = CARTESIAN_POINT ( 'NONE',  ( 1.010945932696139745E-15, -3.299556788418711140, -8.254999999999999005 ) ) ;
#144 = ORIENTED_EDGE ( 'NONE', *, *, #448, .T. ) ;
#145 = AXIS2_PLACEMENT_3D ( 'NONE', #124, #280, #11 ) ;
#146 = CARTESIAN_POINT ( 'NONE',  ( 2.891335823397585436, -25.27847376623875775, 3.376984836983537797 ) ) ;
#147 = CIRCLE ( 'NONE', #133, 6.349999999999999645 ) ;
#148 = CARTESIAN_POINT ( 'NONE',  ( 2.445368428274152794, -25.39999999999999858, -3.711899547401571908 ) ) ;
#149 = DIRECTION ( 'NONE',  ( 0.000000000000000000, 0.000000000000000000, -1.000000000000000000 ) ) ;
#150 = DIRECTION ( 'NONE',  ( 0.000000000000000000, 0.000000000000000000, 1.000000000000000000 ) ) ;
#151 = CARTESIAN_POINT ( 'NONE',  ( 3.337905195762531196, -24.02397116417217404, -2.937713209501861211 ) ) ;
#152 = CARTESIAN_POINT ( 'NONE',  ( 3.569802035311588906, -23.53235717861193876, 2.652231944437299926 ) ) ;
#153 = EDGE_CURVE ( 'NONE', #367, #281, #89, .T. ) ;
#154 = CARTESIAN_POINT ( 'NONE',  ( 0.000000000000000000, 0.2813027452686911456, -5.841999999999999638 ) ) ;
#155 = ORIENTED_EDGE ( 'NONE', *, *, #249, .T. ) ;
#156 = CARTESIAN_POINT ( 'NONE',  ( 3.967606809230712184, -22.85415279357060925, 2.010465465945514563 ) ) ;
#157 = VECTOR ( 'NONE', #272, 1000.000000000000000 ) ;
#158 = CYLINDRICAL_SURFACE ( 'NONE', #443, 0.5080000000000002292 ) ;
#159 = EDGE_CURVE ( 'NONE', #490, #170, #275, .T. ) ;
#160 = DIRECTION ( 'NONE',  ( 0.000000000000000000, 0.000000000000000000, 1.000000000000000000 ) ) ;
#161 = DIRECTION ( 'NONE',  ( 0.000000000000000000, 1.000000000000000000, 0.000000000000000000 ) ) ;
#162 = CARTESIAN_POINT ( 'NONE',  ( 3.339446572293548687, -24.02022717224154391, 2.935979109128720843 ) ) ;
#163 = CIRCLE ( 'NONE', #437, 4.444999999999999396 ) ;
#164 = DIRECTION ( 'NONE',  ( 0.000000000000000000, 0.000000000000000000, 1.000000000000000000 ) ) ;
#165 = CARTESIAN_POINT ( 'NONE',  ( 0.000000000000000000, -25.39999999999999858, 0.000000000000000000 ) ) ;
#166 = DIRECTION ( 'NONE',  ( 0.000000000000000000, 1.000000000000000000, 0.000000000000000000 ) ) ;
#167 = CARTESIAN_POINT ( 'NONE',  ( -3.730390263296306408, -23.24120064539023645, -2.421158677557612826 ) ) ;
#168 = ORIENTED_EDGE ( 'NONE', *, *, #24, .T. ) ;
#169 = ADVANCED_FACE ( 'NONE', ( #278 ), #130, .F. ) ;
#170 = VERTEX_POINT ( 'NONE', #17 ) ;
#171 = VECTOR ( 'NONE', #361, 1000.000000000000000 ) ;
#172 = DIRECTION ( 'NONE',  ( 0.000000000000000000, 0.000000000000000000, 1.000000000000000000 ) ) ;
#173 = ORIENTED_EDGE ( 'NONE', *, *, #119, .T. ) ;
#174 = FACE_OUTER_BOUND ( 'NONE', #242, .T. ) ;
#175 = ORIENTED_EDGE ( 'NONE', *, *, #48, .F. ) ;
#176 = CARTESIAN_POINT ( 'NONE',  ( 0.000000000000000000, -0.1399748469298285336, 0.000000000000000000 ) ) ;
#177 = ADVANCED_BREP_SHAPE_REPRESENTATION ( 'copper-tube-mount', ( #46, #5 ), #215 ) ;
#178 = TOROIDAL_SURFACE ( 'NONE', #337, 5.841999999999999638, 0.5080000000000000071 ) ;
#179 = LINE ( 'NONE', #320, #192 ) ;
#180 = CARTESIAN_POINT ( 'NONE',  ( 0.000000000000000000, 83.81999999999999318, -6.349999999999999645 ) ) ;
#181 = CARTESIAN_POINT ( 'NONE',  ( -3.076193741227614797, -24.96088135593218738, -3.208591134194577421 ) ) ;
#182 = ORIENTED_EDGE ( 'NONE', *, *, #476, .T. ) ;
#183 = AXIS2_PLACEMENT_3D ( 'NONE', #165, #54, #172 ) ;
#184 = CYLINDRICAL_SURFACE ( 'NONE', #365, 3.238500000000000156 ) ;
#185 = ORIENTED_EDGE ( 'NONE', *, *, #382, .T. ) ;
#186 = CARTESIAN_POINT ( 'NONE',  ( 4.176430340854221157, -22.54028450562428532, 1.531912505749179809 ) ) ;
#187 = EDGE_CURVE ( 'NONE', #90, #281, #403, .T. ) ;
#188 = DIRECTION ( 'NONE',  ( 0.000000000000000000, 0.000000000000000000, -1.000000000000000000 ) ) ;
#189 = ORIENTED_EDGE ( 'NONE', *, *, #271, .F. ) ;
#190 = CARTESIAN_POINT ( 'NONE',  ( 0.000000000000000000, 0.2813027452686911456, -6.349999999999999645 ) ) ;
#191 = DIRECTION ( 'NONE',  ( 0.000000000000000000, 0.000000000000000000, 1.000000000000000000 ) ) ;
#192 = VECTOR ( 'NONE', #97, 1000.000000000000000 ) ;
#193 = EDGE_CURVE ( 'NONE', #289, #21, #13, .T. ) ;
#194 = CARTESIAN_POINT ( 'NONE',  ( 3.730390263296306852, -23.24120064539024000, 2.421158677557613714 ) ) ;
#195 = CARTESIAN_POINT ( 'NONE',  ( 4.237437551186953755, -22.45240994064399587, 1.355804962091091470 ) ) ;
#196 = CARTESIAN_POINT ( 'NONE',  ( -2.583808613054079384, -25.39999999999999858, -3.620696309613992359 ) ) ;
#197 = VECTOR ( 'NONE', #407, 1000.000000000000000 ) ;
#198 = CARTESIAN_POINT ( 'NONE',  ( 0.000000000000000000, -3.299556788418711140, 0.000000000000000000 ) ) ;
#199 = EDGE_CURVE ( 'NONE', #369, #319, #458, .T. ) ;
#200 = CARTESIAN_POINT ( 'NONE',  ( -3.967606809230707743, -22.85415279357060214, -2.010465465945513674 ) ) ;
#201 = VERTEX_POINT ( 'NONE', #27 ) ;
#202 = DIRECTION ( 'NONE',  ( 1.000000000000000000, 0.000000000000000000, 0.000000000000000000 ) ) ;
#203 = DIRECTION ( 'NONE',  ( 0.000000000000000000, 0.000000000000000000, 1.000000000000000000 ) ) ;
#204 = ORIENTED_EDGE ( 'NONE', *, *, #415, .F. ) ;
#205 = AXIS2_PLACEMENT_3D ( 'NONE', #198, #121, #88 ) ;
#206 = EDGE_CURVE ( 'NONE', #281, #12, #343, .T. ) ;
#207 = CARTESIAN_POINT ( 'NONE',  ( -4.176430340854222045, -22.54028450562428532, -1.531912505749179143 ) ) ;
#208 = ORIENTED_EDGE ( 'NONE', *, *, #119, .F. ) ;
#209 = DIRECTION ( 'NONE',  ( 0.000000000000000000, 1.000000000000000000, 0.000000000000000000 ) ) ;
#210 = CARTESIAN_POINT ( 'NONE',  ( -3.031766518648414177, -25.11710818369983045, -3.251123719020385661 ) ) ;
#211 = CARTESIAN_POINT ( 'NONE',  ( 7.776507174585692163E-16, 83.81999999999999318, 6.349999999999999645 ) ) ;
#212 = ADVANCED_FACE ( 'NONE', ( #368 ), #141, .F. ) ;
#213 = ORIENTED_EDGE ( 'NONE', *, *, #305, .F. ) ;
#214 = DIRECTION ( 'NONE',  ( 0.000000000000000000, 1.000000000000000000, 0.000000000000000000 ) ) ;
#215 =( GEOMETRIC_REPRESENTATION_CONTEXT ( 3 ) GLOBAL_UNCERTAINTY_ASSIGNED_CONTEXT ( ( #263 ) ) GLOBAL_UNIT_ASSIGNED_CONTEXT ( ( #112, #347, #125 ) ) REPRESENTATION_CONTEXT ( 'NONE', 'WORKASPACE' ) );
#216 = VERTEX_POINT ( 'NONE', #440 ) ;
#217 = CARTESIAN_POINT ( 'NONE',  ( 3.031766518648413733, -25.11710818369984466, 3.251123719020386993 ) ) ;
#218 = CARTESIAN_POINT ( 'NONE',  ( -2.945780096205391274, -25.23350465652753627, 3.329238010183573238 ) ) ;
#219 = STYLED_ITEM ( 'NONE', ( #3 ), #46 ) ;
#220 = ADVANCED_FACE ( 'NONE', ( #402 ), #184, .F. ) ;
#221 = DIRECTION ( 'NONE',  ( 0.000000000000000000, 0.000000000000000000, -1.000000000000000000 ) ) ;
#222 = VERTEX_POINT ( 'NONE', #211 ) ;
#223 =( LENGTH_UNIT ( ) NAMED_UNIT ( * ) SI_UNIT ( .MILLI., .METRE. ) );
#224 = CARTESIAN_POINT ( 'NONE',  ( 4.334983684686768868, -22.31380988742207805, -1.001103230292595958 ) ) ;
#225 = DIRECTION ( 'NONE',  ( -1.000000000000000000, 0.000000000000000000, 0.000000000000000000 ) ) ;
#226 = DIRECTION ( 'NONE',  ( 0.000000000000000000, 0.000000000000000000, 1.000000000000000000 ) ) ;
#227 = AXIS2_PLACEMENT_3D ( 'NONE', #45, #166, #348 ) ;
#228 = ORIENTED_EDGE ( 'NONE', *, *, #428, .T. ) ;
#229 = LINE ( 'NONE', #336, #315 ) ;
#230 = DIRECTION ( 'NONE',  ( -0.000000000000000000, -1.000000000000000000, -0.000000000000000000 ) ) ;
#231 = ORIENTED_EDGE ( 'NONE', *, *, #376, .T. ) ;
#232 = DIRECTION ( 'NONE',  ( 0.000000000000000000, 0.000000000000000000, -1.000000000000000000 ) ) ;
#233 = CARTESIAN_POINT ( 'NONE',  ( 2.445368428274152794, -25.39999999999999858, -3.711899547401571908 ) ) ;
#234 = DIRECTION ( 'NONE',  ( 0.000000000000000000, 1.000000000000000000, 0.000000000000000000 ) ) ;
#235 = CARTESIAN_POINT ( 'NONE',  ( 0.000000000000000000, -25.39999999999999858, 3.711899547401571908 ) ) ;
#236 = AXIS2_PLACEMENT_3D ( 'NONE', #37, #161, #191 ) ;
#237 = CYLINDRICAL_SURFACE ( 'NONE', #387, 4.444999999999999396 ) ;
#238 = CARTESIAN_POINT ( 'NONE',  ( -3.729328566305129211, -23.24303000126919727, 2.422787956652937780 ) ) ;
#239 = ORIENTED_EDGE ( 'NONE', *, *, #415, .T. ) ;
#240 = EDGE_CURVE ( 'NONE', #90, #216, #330, .T. ) ;
#241 = CARTESIAN_POINT ( 'NONE',  ( -4.337628902023551447, -22.31010766377286458, -0.9894744078398702847 ) ) ;
#242 = EDGE_LOOP ( 'NONE', ( #432, #175, #69, #66 ) ) ;
#243 = CARTESIAN_POINT ( 'NONE',  ( 3.076193741227611689, -24.96088135593220514, -3.208591134194580086 ) ) ;
#244 = ORIENTED_EDGE ( 'NONE', *, *, #9, .T. ) ;
#245 = AXIS2_PLACEMENT_3D ( 'NONE', #386, #355, #397 ) ;
#246 = PLANE ( 'NONE',  #38 ) ;
#247 = CARTESIAN_POINT ( 'NONE',  ( 0.000000000000000000, -25.39999999999999858, 0.000000000000000000 ) ) ;
#248 = CARTESIAN_POINT ( 'NONE',  ( 0.000000000000000000, -25.39999999999999858, -3.711899547401571908 ) ) ;
#249 = EDGE_CURVE ( 'NONE', #12, #106, #179, .T. ) ;
#250 = PRODUCT_DEFINITION_CONTEXT ( 'detailed design', #86, 'design' ) ;
#251 = AXIS2_PLACEMENT_3D ( 'NONE', #136, #93, #52 ) ;
#252 =( GEOMETRIC_REPRESENTATION_CONTEXT ( 3 ) GLOBAL_UNCERTAINTY_ASSIGNED_CONTEXT ( ( #411 ) ) GLOBAL_UNIT_ASSIGNED_CONTEXT ( ( #223, #298, #80 ) ) REPRESENTATION_CONTEXT ( 'NONE', 'WORKASPACE' ) );
#253 = ORIENTED_EDGE ( 'NONE', *, *, #271, .T. ) ;
#254 = CARTESIAN_POINT ( 'NONE',  ( 0.000000000000000000, 0.2813027452686911456, 0.000000000000000000 ) ) ;
#255 = AXIS2_PLACEMENT_3D ( 'NONE', #39, #34, #303 ) ;
#256 = ORIENTED_EDGE ( 'NONE', *, *, #249, .F. ) ;
#257 = CARTESIAN_POINT ( 'NONE',  ( 7.776507174585692163E-16, 83.81999999999999318, 6.349999999999999645 ) ) ;
#258 = PRODUCT_DEFINITION_FORMATION_WITH_SPECIFIED_SOURCE ( 'ANY', '', #71, .NOT_KNOWN. ) ;
#259 = VERTEX_POINT ( 'NONE', #482 ) ;
#260 = DIRECTION ( 'NONE',  ( -0.000000000000000000, -1.000000000000000000, -0.000000000000000000 ) ) ;
#261 = ORIENTED_EDGE ( 'NONE', *, *, #448, .F. ) ;
#262 = CARTESIAN_POINT ( 'NONE',  ( 4.445251352502026521, -22.16115500612834310, 0.1976555285347868229 ) ) ;
#263 = UNCERTAINTY_MEASURE_WITH_UNIT (LENGTH_MEASURE( 1.000000000000000082E-05 ), #112, 'distance_accuracy_value', 'NONE');
#264 = CARTESIAN_POINT ( 'NONE',  ( 3.729328566305128767, -23.24303000126919372, -2.422787956652937336 ) ) ;
#265 = DIRECTION ( 'NONE',  ( 1.000000000000000000, -0.000000000000000000, -0.000000000000000000 ) ) ;
#266 = CARTESIAN_POINT ( 'NONE',  ( 3.488123815571066988, -23.69153518798739455, -2.757673338962784992 ) ) ;
#267 = CARTESIAN_POINT ( 'NONE',  ( 0.000000000000000000, 0.2813027452686911456, 0.000000000000000000 ) ) ;
#268 = CARTESIAN_POINT ( 'NONE',  ( 4.337628902023551447, -22.31010766377286458, 0.9894744078398729492 ) ) ;
#269 = CARTESIAN_POINT ( 'NONE',  ( -7.619999999999999218, -24.89199999999999591, 3.711899547401571908 ) ) ;
#270 = CARTESIAN_POINT ( 'NONE',  ( -3.076193741227612133, -24.96088135593220514, 3.208591134194580086 ) ) ;
#271 = EDGE_CURVE ( 'NONE', #21, #369, #445, .T. ) ;
#272 = DIRECTION ( 'NONE',  ( 1.000000000000000000, 0.000000000000000000, -0.000000000000000000 ) ) ;
#273 = PRODUCT_CONTEXT ( 'NONE', #360, 'mechanical' ) ;
#274 = CYLINDRICAL_SURFACE ( 'NONE', #145, 6.349999999999999645 ) ;
#275 = CIRCLE ( 'NONE', #251, 0.5079999999999997851 ) ;
#276 = ORIENTED_EDGE ( 'NONE', *, *, #100, .T. ) ;
#277 = EDGE_CURVE ( 'NONE', #222, #490, #98, .T. ) ;
#278 = FACE_OUTER_BOUND ( 'NONE', #96, .T. ) ;
#279 = ORIENTED_EDGE ( 'NONE', *, *, #428, .F. ) ;
#280 = DIRECTION ( 'NONE',  ( -0.000000000000000000, -1.000000000000000000, -0.000000000000000000 ) ) ;
#281 = VERTEX_POINT ( 'NONE', #439 ) ;
#282 = CARTESIAN_POINT ( 'NONE',  ( 2.892346045258591403, -25.27770255779688569, -3.376113271972638330 ) ) ;
#283 = ORIENTED_EDGE ( 'NONE', *, *, #24, .F. ) ;
#284 = PRESENTATION_LAYER_ASSIGNMENT (  '', '', ( #219 ) ) ;
#285 = CARTESIAN_POINT ( 'NONE',  ( 3.064395971076299574, -25.04352923980187384, 3.219902088187174272 ) ) ;
#286 = ADVANCED_FACE ( 'NONE', ( #62 ), #65, .T. ) ;
#287 = CARTESIAN_POINT ( 'NONE',  ( 2.445368428274152794, -25.39999999999999858, 3.711899547401571908 ) ) ;
#288 = CARTESIAN_POINT ( 'NONE',  ( 0.000000000000000000, -25.39999999999999858, 4.444999999999999396 ) ) ;
#289 = VERTEX_POINT ( 'NONE', #25 ) ;
#290 = DIRECTION ( 'NONE',  ( 0.000000000000000000, 1.000000000000000000, 0.000000000000000000 ) ) ;
#291 = EDGE_CURVE ( 'NONE', #92, #421, #486, .T. ) ;
#292 = CARTESIAN_POINT ( 'NONE',  ( 3.076193741227611689, -24.96088135593220514, -3.208591134194580086 ) ) ;
#293 = CARTESIAN_POINT ( 'NONE',  ( 0.000000000000000000, -0.1399748469298285336, 0.000000000000000000 ) ) ;
#294 = ORIENTED_EDGE ( 'NONE', *, *, #193, .T. ) ;
#295 = FILL_AREA_STYLE ('',( #456 ) ) ;
#296 = ORIENTED_EDGE ( 'NONE', *, *, #159, .T. ) ;
#297 = AXIS2_PLACEMENT_3D ( 'NONE', #385, #463, #390 ) ;
#298 =( NAMED_UNIT ( * ) PLANE_ANGLE_UNIT ( ) SI_UNIT ( $, .RADIAN. ) );
#299 = CARTESIAN_POINT ( 'NONE',  ( 7.776507174585692163E-16, 0.2813027452686911456, 6.349999999999999645 ) ) ;
#300 = FACE_OUTER_BOUND ( 'NONE', #430, .T. ) ;
#301 = DIRECTION ( 'NONE',  ( -0.000000000000000000, -1.000000000000000000, -0.000000000000000000 ) ) ;
#302 = CARTESIAN_POINT ( 'NONE',  ( 3.152204984103226693, -24.56528464329982597, 3.135086761466038929 ) ) ;
#303 = DIRECTION ( 'NONE',  ( 0.000000000000000000, -0.000000000000000000, 1.000000000000000000 ) ) ;
#304 = FACE_OUTER_BOUND ( 'NONE', #137, .T. ) ;
#305 = EDGE_CURVE ( 'NONE', #201, #434, #442, .T. ) ;
#306 = DIRECTION ( 'NONE',  ( 0.000000000000000000, 0.000000000000000000, 1.000000000000000000 ) ) ;
#307 = CARTESIAN_POINT ( 'NONE',  ( -2.714888457108241226, -25.37800413531279986, -3.522882824758018394 ) ) ;
#308 = CARTESIAN_POINT ( 'NONE',  ( -3.104394074639659884, -24.76332725451881345, 3.181554442539426653 ) ) ;
#309 = CARTESIAN_POINT ( 'NONE',  ( -4.044085539675497998, -22.73108010263320011, 1.872737080254081476 ) ) ;
#310 = ORIENTED_EDGE ( 'NONE', *, *, #483, .F. ) ;
#311 = CARTESIAN_POINT ( 'NONE',  ( 2.716603494055525925, -25.37743309778165468, -3.521536076620033651 ) ) ;
#312 = AXIS2_PLACEMENT_3D ( 'NONE', #247, #67, #370 ) ;
#313 = ORIENTED_EDGE ( 'NONE', *, *, #322, .T. ) ;
#314 = CARTESIAN_POINT ( 'NONE',  ( 0.000000000000000000, 0.000000000000000000, 0.000000000000000000 ) ) ;
#315 = VECTOR ( 'NONE', #42, 1000.000000000000000 ) ;
#316 = DIRECTION ( 'NONE',  ( 0.000000000000000000, 1.000000000000000000, 0.000000000000000000 ) ) ;
#317 = ORIENTED_EDGE ( 'NONE', *, *, #325, .F. ) ;
#318 = CARTESIAN_POINT ( 'NONE',  ( -4.377778827135191619, -22.25429370264526341, -0.7957694896679589069 ) ) ;
#319 = VERTEX_POINT ( 'NONE', #488 ) ;
#320 = CARTESIAN_POINT ( 'NONE',  ( -7.619999999999999218, -24.96088135593220159, 3.208591134194579197 ) ) ;
#321 = AXIS2_PLACEMENT_3D ( 'NONE', #293, #102, #400 ) ;
#322 = EDGE_CURVE ( 'NONE', #170, #201, #78, .T. ) ;
#323 = CARTESIAN_POINT ( 'NONE',  ( -2.945587223066962856, -25.23359193640840203, -3.329403786157385081 ) ) ;
#324 = DIRECTION ( 'NONE',  ( -0.000000000000000000, -1.000000000000000000, -0.000000000000000000 ) ) ;
#325 = EDGE_CURVE ( 'NONE', #421, #490, #111, .T. ) ;
#326 = EDGE_LOOP ( 'NONE', ( #129, #329, #94, #208, #244, #139, #85, #231 ) ) ;
#327 = DIRECTION ( 'NONE',  ( 1.000000000000000000, -0.000000000000000000, -0.000000000000000000 ) ) ;
#328 = AXIS2_PLACEMENT_3D ( 'NONE', #409, #366, #29 ) ;
#329 = ORIENTED_EDGE ( 'NONE', *, *, #132, .T. ) ;
#330 = LINE ( 'NONE', #288, #31 ) ;
#331 = DIRECTION ( 'NONE',  ( 0.000000000000000000, 1.000000000000000000, 0.000000000000000000 ) ) ;
#332 = CARTESIAN_POINT ( 'NONE',  ( 3.268460103290548258, -24.19852212548324744, -3.013698465569512042 ) ) ;
#333 = CARTESIAN_POINT ( 'NONE',  ( -2.445368428274152794, -25.39999999999999858, 3.711899547401571908 ) ) ;
#334 = ORIENTED_EDGE ( 'NONE', *, *, #199, .F. ) ;
#335 = ADVANCED_FACE ( 'NONE', ( #95 ), #246, .F. ) ;
#336 = CARTESIAN_POINT ( 'NONE',  ( -7.619999999999999218, -24.96088135593220159, -3.208591134194579197 ) ) ;
#337 = AXIS2_PLACEMENT_3D ( 'NONE', #51, #350, #123 ) ;
#338 = TOROIDAL_SURFACE ( 'NONE', #297, 5.841999999999999638, 0.5080000000000000071 ) ;
#339 = DIRECTION ( 'NONE',  ( 0.000000000000000000, 1.000000000000000000, 0.000000000000000000 ) ) ;
#340 = CIRCLE ( 'NONE', #473, 3.809999999999999165 ) ;
#341 = DIRECTION ( 'NONE',  ( -0.000000000000000000, -1.000000000000000000, -0.000000000000000000 ) ) ;
#342 = CARTESIAN_POINT ( 'NONE',  ( 4.431631435513261330, -22.17977053144757349, 0.3985465590997389063 ) ) ;
#343 = B_SPLINE_CURVE_WITH_KNOTS ( 'NONE', 3,
 ( #287, #23, #481, #146, #364, #217, #285, #105 ),
 .UNSPECIFIED., .F., .F.,
 ( 4, 2, 2, 4 ),
 ( 0.000000000000000000, 0.0004896539670194328953, 0.0007344809505291512945, 0.0009793079340388699105 ),
 .UNSPECIFIED. ) ;
#344 = CARTESIAN_POINT ( 'NONE',  ( 0.000000000000000000, 83.81999999999999318, 0.000000000000000000 ) ) ;
#345 = SURFACE_STYLE_FILL_AREA ( #295 ) ;
#346 = PRODUCT_RELATED_PRODUCT_CATEGORY ( 'part', '', ( #71 ) ) ;
#347 =( NAMED_UNIT ( * ) PLANE_ANGLE_UNIT ( ) SI_UNIT ( $, .RADIAN. ) );
#348 = DIRECTION ( 'NONE',  ( 0.000000000000000000, 0.000000000000000000, 1.000000000000000000 ) ) ;
#349 = CARTESIAN_POINT ( 'NONE',  ( -2.891335823397585880, -25.27847376623875419, -3.376984836983534688 ) ) ;
#350 = DIRECTION ( 'NONE',  ( -0.000000000000000000, -1.000000000000000000, -0.000000000000000000 ) ) ;
#351 = CARTESIAN_POINT ( 'NONE',  ( 2.583749379807721791, -25.40000000000000924, -3.620735331982114502 ) ) ;
#352 = ORIENTED_EDGE ( 'NONE', *, *, #159, .F. ) ;
#353 = CARTESIAN_POINT ( 'NONE',  ( -4.182721675314427401, -22.53023828148775820, 1.551750393480147316 ) ) ;
#354 = ORIENTED_EDGE ( 'NONE', *, *, #206, .F. ) ;
#355 = DIRECTION ( 'NONE',  ( 0.000000000000000000, 1.000000000000000000, 0.000000000000000000 ) ) ;
#356 = EDGE_LOOP ( 'NONE', ( #313, #55, #469, #479 ) ) ;
#357 = AXIS2_PLACEMENT_3D ( 'NONE', #384, #459, #150 ) ;
#358 = CARTESIAN_POINT ( 'NONE',  ( -3.568757393377324227, -23.53434800867081478, 2.653632172245558696 ) ) ;
#359 = EDGE_LOOP ( 'NONE', ( #455, #239 ) ) ;
#360 = APPLICATION_CONTEXT ( 'automotive_design' ) ;
#361 = DIRECTION ( 'NONE',  ( -1.000000000000000000, -0.000000000000000000, 0.000000000000000000 ) ) ;
#362 = EDGE_CURVE ( 'NONE', #201, #170, #101, .T. ) ;
#363 = CIRCLE ( 'NONE', #378, 0.5079999999999997851 ) ;
#364 = CARTESIAN_POINT ( 'NONE',  ( 2.945587223066962412, -25.23359193640839848, 3.329403786157385081 ) ) ;
#365 = AXIS2_PLACEMENT_3D ( 'NONE', #484, #327, #401 ) ;
#366 = DIRECTION ( 'NONE',  ( 1.000000000000000000, -0.000000000000000000, -0.000000000000000000 ) ) ;
#367 = VERTEX_POINT ( 'NONE', #333 ) ;
#368 = FACE_OUTER_BOUND ( 'NONE', #104, .T. ) ;
#369 = VERTEX_POINT ( 'NONE', #422 ) ;
#370 = DIRECTION ( 'NONE',  ( 0.000000000000000000, -0.000000000000000000, 1.000000000000000000 ) ) ;
#371 = CARTESIAN_POINT ( 'NONE',  ( -2.583749379807720015, -25.39999999999999858, 3.620735331982111838 ) ) ;
#372 = CARTESIAN_POINT ( 'NONE',  ( 3.076193741227615686, -24.96088135593218738, 3.208591134194577421 ) ) ;
#373 = DIRECTION ( 'NONE',  ( -1.000000000000000000, 0.000000000000000000, 0.000000000000000000 ) ) ;
#374 = ORIENTED_EDGE ( 'NONE', *, *, #362, .T. ) ;
#375 = CARTESIAN_POINT ( 'NONE',  ( 3.490134555422736984, -23.68742624626754889, 2.755147459481533279 ) ) ;
#376 = EDGE_CURVE ( 'NONE', #216, #434, #16, .T. ) ;
#377 = DIRECTION ( 'NONE',  ( 0.000000000000000000, 0.000000000000000000, 1.000000000000000000 ) ) ;
#378 = AXIS2_PLACEMENT_3D ( 'NONE', #154, #373, #413 ) ;
#379 = AXIS2_PLACEMENT_3D ( 'NONE', #176, #341, #232 ) ;
#380 = ORIENTED_EDGE ( 'NONE', *, *, #187, .T. ) ;
#381 = CARTESIAN_POINT ( 'NONE',  ( 5.443555022209983922E-16, -3.299556788418710696, -4.444999999999999396 ) ) ;
#382 = EDGE_CURVE ( 'NONE', #259, #434, #2, .T. ) ;
#383 = DIRECTION ( 'NONE',  ( 0.000000000000000000, 0.000000000000000000, -1.000000000000000000 ) ) ;
#384 = CARTESIAN_POINT ( 'NONE',  ( 0.000000000000000000, -25.39999999999999858, 0.000000000000000000 ) ) ;
#385 = CARTESIAN_POINT ( 'NONE',  ( 0.000000000000000000, 0.2813027452686911456, 0.000000000000000000 ) ) ;
#386 = CARTESIAN_POINT ( 'NONE',  ( 0.000000000000000000, -3.299556788418711140, 0.000000000000000000 ) ) ;
#387 = AXIS2_PLACEMENT_3D ( 'NONE', #465, #234, #164 ) ;
#388 = FACE_OUTER_BOUND ( 'NONE', #444, .T. ) ;
#389 = CARTESIAN_POINT ( 'NONE',  ( 0.000000000000000000, -25.39999999999999858, 0.000000000000000000 ) ) ;
#390 = DIRECTION ( 'NONE',  ( 0.000000000000000000, 0.000000000000000000, -1.000000000000000000 ) ) ;
#391 = CARTESIAN_POINT ( 'NONE',  ( -4.445251352502026521, -22.16115500612833955, -0.1976555285347843804 ) ) ;
#392 = B_SPLINE_CURVE_WITH_KNOTS ( 'NONE', 3,
 ( #72, #414, #446, #218, #74, #35, #371, #489 ),
 .UNSPECIFIED., .F., .F.,
 ( 4, 2, 2, 4 ),
 ( 3.679904200040097469E-18, 0.0002468910659653039165, 0.0004937821319306041467, 0.0009875642638611996198 ),
 .UNSPECIFIED. ) ;
#393 = ORIENTED_EDGE ( 'NONE', *, *, #362, .F. ) ;
#394 = ADVANCED_FACE ( 'NONE', ( #77 ), #417, .T. ) ;
#395 = CARTESIAN_POINT ( 'NONE',  ( -3.811987533677259954, -23.10420315298993543, -2.291860865214675247 ) ) ;
#396 = ORIENTED_EDGE ( 'NONE', *, *, #291, .F. ) ;
#397 = DIRECTION ( 'NONE',  ( 0.000000000000000000, 0.000000000000000000, 1.000000000000000000 ) ) ;
#398 = ORIENTED_EDGE ( 'NONE', *, *, #30, .F. ) ;
#399 = EDGE_CURVE ( 'NONE', #170, #216, #340, .T. ) ;
#400 = DIRECTION ( 'NONE',  ( 0.000000000000000000, 0.000000000000000000, -1.000000000000000000 ) ) ;
#401 = DIRECTION ( 'NONE',  ( 0.000000000000000000, 0.000000000000000000, -1.000000000000000000 ) ) ;
#402 = FACE_OUTER_BOUND ( 'NONE', #450, .T. ) ;
#403 = CIRCLE ( 'NONE', #183, 4.444999999999999396 ) ;
#404 = AXIS2_PLACEMENT_3D ( 'NONE', #420, #230, #383 ) ;
#405 = CIRCLE ( 'NONE', #40, 6.349999999999999645 ) ;
#406 = EDGE_LOOP ( 'NONE', ( #475, #261, #334, #189 ) ) ;
#407 = DIRECTION ( 'NONE',  ( -0.000000000000000000, -1.000000000000000000, -0.000000000000000000 ) ) ;
#408 = ORIENTED_EDGE ( 'NONE', *, *, #277, .T. ) ;
#409 = CARTESIAN_POINT ( 'NONE',  ( -7.619999999999999218, -24.89199999999999591, -3.711899547401571908 ) ) ;
#410 = CARTESIAN_POINT ( 'NONE',  ( 3.104394074639661216, -24.76332725451882766, -3.181554442539428429 ) ) ;
#411 = UNCERTAINTY_MEASURE_WITH_UNIT (LENGTH_MEASURE( 1.000000000000000082E-05 ), #223, 'distance_accuracy_value', 'NONE');
#412 = MECHANICAL_DESIGN_GEOMETRIC_PRESENTATION_REPRESENTATION (  '', ( #219 ), #252 ) ;
#413 = DIRECTION ( 'NONE',  ( 0.000000000000000000, 0.000000000000000000, 1.000000000000000000 ) ) ;
#414 = CARTESIAN_POINT ( 'NONE',  ( -3.064455163030647356, -25.04311457756431025, 3.219845338694363956 ) ) ;
#415 = EDGE_CURVE ( 'NONE', #222, #92, #147, .T. ) ;
#416 = CARTESIAN_POINT ( 'NONE',  ( 0.000000000000000000, -3.299556788418710696, 0.000000000000000000 ) ) ;
#417 = CYLINDRICAL_SURFACE ( 'NONE', #357, 4.444999999999999396 ) ;
#418 = ADVANCED_FACE ( 'NONE', ( #79 ), #82, .T. ) ;
#419 = CARTESIAN_POINT ( 'NONE',  ( 4.377778827135191619, -22.25429370264526341, 0.7957694896679603502 ) ) ;
#420 = CARTESIAN_POINT ( 'NONE',  ( 0.000000000000000000, 83.81999999999999318, 0.000000000000000000 ) ) ;
#421 = VERTEX_POINT ( 'NONE', #190 ) ;
#422 = CARTESIAN_POINT ( 'NONE',  ( -2.445368428274152794, -25.39999999999999858, -3.711899547401571908 ) ) ;
#423 = CARTESIAN_POINT ( 'NONE',  ( 0.000000000000000000, 83.81999999999999318, -6.349999999999999645 ) ) ;
#424 = CARTESIAN_POINT ( 'NONE',  ( -4.237437551186954643, -22.45240994064399587, -1.355804962091088584 ) ) ;
#425 = EDGE_LOOP ( 'NONE', ( #135, #253, #26 ) ) ;
#426 = FACE_OUTER_BOUND ( 'NONE', #356, .T. ) ;
#427 = TOROIDAL_SURFACE ( 'NONE', #205, 8.254999999999999005, 3.809999999999999609 ) ;
#428 = EDGE_CURVE ( 'NONE', #490, #421, #405, .T. ) ;
#429 = CARTESIAN_POINT ( 'NONE',  ( -4.375503626041929550, -22.25745751532345906, 0.8077806532359581571 ) ) ;
#430 = EDGE_LOOP ( 'NONE', ( #204, #408, #228, #396 ) ) ;
#431 = CARTESIAN_POINT ( 'NONE',  ( -3.809906569189094760, -23.10764152126301241, 2.295337380439432806 ) ) ;
#432 = ORIENTED_EDGE ( 'NONE', *, *, #277, .F. ) ;
#433 = CARTESIAN_POINT ( 'NONE',  ( -4.041463613342777705, -22.74127277541706960, -1.859004620571124367 ) ) ;
#434 = VERTEX_POINT ( 'NONE', #381 ) ;
#435 = PRODUCT_DEFINITION ( 'UNKNOWN', '', #258, #250 ) ;
#436 = CARTESIAN_POINT ( 'NONE',  ( 3.032361539035393516, -25.11612892806106956, -3.250573734009092774 ) ) ;
#437 = AXIS2_PLACEMENT_3D ( 'NONE', #43, #339, #226 ) ;
#438 = EDGE_LOOP ( 'NONE', ( #109, #256, #354, #18 ) ) ;
#439 = CARTESIAN_POINT ( 'NONE',  ( 2.445368428274152794, -25.39999999999999858, 3.711899547401571908 ) ) ;
#440 = CARTESIAN_POINT ( 'NONE',  ( 0.000000000000000000, -3.299556788418710696, 4.444999999999999396 ) ) ;
#441 = DIRECTION ( 'NONE',  ( 1.224646799147353207E-16, 0.000000000000000000, -1.000000000000000000 ) ) ;
#442 = CIRCLE ( 'NONE', #58, 3.809999999999999165 ) ;
#443 = AXIS2_PLACEMENT_3D ( 'NONE', #269, #265, #221 ) ;
#444 = EDGE_LOOP ( 'NONE', ( #276, #185, #182, #472, #380, #461, #283, #294 ) ) ;
#445 = LINE ( 'NONE', #248, #171 ) ;
#446 = CARTESIAN_POINT ( 'NONE',  ( -3.032361539035393960, -25.11612892806106601, 3.250573734009091442 ) ) ;
#447 = FACE_OUTER_BOUND ( 'NONE', #57, .T. ) ;
#448 = EDGE_CURVE ( 'NONE', #319, #289, #229, .T. ) ;
#449 = DIRECTION ( 'NONE',  ( 0.000000000000000000, 1.000000000000000000, 0.000000000000000000 ) ) ;
#450 = EDGE_LOOP ( 'NONE', ( #173, #144, #168, #155 ) ) ;
#451 = SURFACE_SIDE_STYLE ('',( #345 ) ) ;
#452 = AXIS2_PLACEMENT_3D ( 'NONE', #389, #316, #203 ) ;
#453 = CIRCLE ( 'NONE', #236, 6.349999999999999645 ) ;
#454 = CARTESIAN_POINT ( 'NONE',  ( 5.443555022209983922E-16, -25.39999999999999858, -4.444999999999999396 ) ) ;
#455 = ORIENTED_EDGE ( 'NONE', *, *, #48, .T. ) ;
#456 = FILL_AREA_STYLE_COLOUR ( '', #131 ) ;
#457 = ADVANCED_FACE ( 'NONE', ( #120 ), #158, .T. ) ;
#458 = B_SPLINE_CURVE_WITH_KNOTS ( 'NONE', 3,
 ( #47, #196, #307, #349, #323, #210, #142, #181 ),
 .UNSPECIFIED., .F., .F.,
 ( 4, 2, 2, 4 ),
 ( 0.000000000000000000, 0.0004896539670194377742, 0.0007344809505291549807, 0.0009793079340388722957 ),
 .UNSPECIFIED. ) ;
#459 = DIRECTION ( 'NONE',  ( 0.000000000000000000, 1.000000000000000000, 0.000000000000000000 ) ) ;
#460 = CYLINDRICAL_SURFACE ( 'NONE', #404, 6.349999999999999645 ) ;
#461 = ORIENTED_EDGE ( 'NONE', *, *, #206, .T. ) ;
#462 = CIRCLE ( 'NONE', #227, 4.444999999999999396 ) ;
#463 = DIRECTION ( 'NONE',  ( -0.000000000000000000, -1.000000000000000000, -0.000000000000000000 ) ) ;
#464 = APPLICATION_PROTOCOL_DEFINITION ( 'draft international standard', 'automotive_design', 1998, #360 ) ;
#465 = CARTESIAN_POINT ( 'NONE',  ( 0.000000000000000000, -25.39999999999999858, 0.000000000000000000 ) ) ;
#466 = CARTESIAN_POINT ( 'NONE',  ( -4.444741657806784652, -22.16185458756879001, 0.2088034727643902633 ) ) ;
#467 = CARTESIAN_POINT ( 'NONE',  ( -3.151186473018711798, -24.56892008573946029, 3.136117615849571827 ) ) ;
#468 = CARTESIAN_POINT ( 'NONE',  ( -3.339446572293549576, -24.02022717224155812, -2.935979109128721731 ) ) ;
#469 = ORIENTED_EDGE ( 'NONE', *, *, #376, .F. ) ;
#470 = AXIS2_PLACEMENT_3D ( 'NONE', #254, #214, #149 ) ;
#471 = CARTESIAN_POINT ( 'NONE',  ( -4.334983684686767980, -22.31380988742207450, 1.001103230292596402 ) ) ;
#472 = ORIENTED_EDGE ( 'NONE', *, *, #240, .F. ) ;
#473 = AXIS2_PLACEMENT_3D ( 'NONE', #4, #225, #377 ) ;
#474 = CARTESIAN_POINT ( 'NONE',  ( -3.152204984103226693, -24.56528464329982597, -3.135086761466039373 ) ) ;
#475 = ORIENTED_EDGE ( 'NONE', *, *, #193, .F. ) ;
#476 = EDGE_CURVE ( 'NONE', #434, #216, #103, .T. ) ;
#477 = PRODUCT_DEFINITION_SHAPE ( 'NONE', 'NONE',  #435 ) ;
#478 = CARTESIAN_POINT ( 'NONE',  ( 3.064455163030646467, -25.04311457756431025, -3.219845338694363512 ) ) ;
#479 = ORIENTED_EDGE ( 'NONE', *, *, #399, .F. ) ;
#480 = VECTOR ( 'NONE', #324, 1000.000000000000000 ) ;
#481 = CARTESIAN_POINT ( 'NONE',  ( 2.714888457108240338, -25.37800413531280341, 3.522882824758021503 ) ) ;
#482 = CARTESIAN_POINT ( 'NONE',  ( 5.443555022209983922E-16, -25.39999999999999858, -4.444999999999999396 ) ) ;
#483 = EDGE_CURVE ( 'NONE', #421, #201, #363, .T. ) ;
#484 = CARTESIAN_POINT ( 'NONE',  ( -7.619999999999999218, -25.39999999999999858, 0.000000000000000000 ) ) ;
#485 = ORIENTED_EDGE ( 'NONE', *, *, #322, .F. ) ;
#486 = LINE ( 'NONE', #180, #480 ) ;
#487 = ORIENTED_EDGE ( 'NONE', *, *, #483, .T. ) ;
#488 = CARTESIAN_POINT ( 'NONE',  ( -3.076193741227614797, -24.96088135593218738, -3.208591134194577421 ) ) ;
#489 = CARTESIAN_POINT ( 'NONE',  ( -2.445368428274152794, -25.39999999999999858, 3.711899547401571908 ) ) ;
#490 = VERTEX_POINT ( 'NONE', #299 ) ;
#491 = CARTESIAN_POINT ( 'NONE',  ( 4.430142672904443302, -22.18181644576014833, -0.4139776116645110249 ) ) ;
ENDSEC;
END-ISO-10303-21;
