ISO-10303-21;
HEADER;
/* Generated by software containing ST-Developer
 * from STEP Tools, Inc. (www.steptools.com) 
 */

FILE_DESCRIPTION(
/* description */ (''),
/* implementation_level */ '2;1');

FILE_NAME(
/* name */ 'LoopGapResonator.step',
/* time_stamp */ '2026-08-04T22:41:57-07:00',
/* author */ (''),
/* organization */ (''),
/* preprocessor_version */ 'ST-DEVELOPER v20.1',
/* originating_system */ 'Autodesk Translation Framework v15.8.0.0',
/* authorisation */ '');

FILE_SCHEMA (('AUTOMOTIVE_DESIGN { 1 0 10303 214 3 1 1 }'));
ENDSEC;

DATA;
#10=MECHANICAL_DESIGN_GEOMETRIC_PRESENTATION_REPRESENTATION('',(#13,#14,
#15,#16,#17),#835);
#11=SHAPE_REPRESENTATION_RELATIONSHIP('SRR','None',#842,#12);
#12=ADVANCED_BREP_SHAPE_REPRESENTATION('',(#18,#19,#20,#21,#22),#834);
#13=STYLED_ITEM('',(#852),#18);
#14=STYLED_ITEM('',(#853),#19);
#15=STYLED_ITEM('',(#851),#20);
#16=STYLED_ITEM('',(#851),#21);
#17=STYLED_ITEM('',(#851),#22);
#18=MANIFOLD_SOLID_BREP('Body1',#489);
#19=MANIFOLD_SOLID_BREP('Body2',#490);
#20=MANIFOLD_SOLID_BREP('Body3',#491);
#21=MANIFOLD_SOLID_BREP('Body4',#492);
#22=MANIFOLD_SOLID_BREP('Body6',#493);
#23=PLANE('',#513);
#24=PLANE('',#518);
#25=PLANE('',#521);
#26=PLANE('',#522);
#27=PLANE('',#523);
#28=PLANE('',#524);
#29=PLANE('',#525);
#30=PLANE('',#526);
#31=PLANE('',#530);
#32=PLANE('',#531);
#33=PLANE('',#536);
#34=PLANE('',#537);
#35=PLANE('',#538);
#36=PLANE('',#539);
#37=PLANE('',#540);
#38=PLANE('',#542);
#39=PLANE('',#545);
#40=PLANE('',#546);
#41=PLANE('',#547);
#42=PLANE('',#548);
#43=PLANE('',#549);
#44=PLANE('',#550);
#45=PLANE('',#551);
#46=PLANE('',#552);
#47=FACE_OUTER_BOUND('',#78,.T.);
#48=FACE_OUTER_BOUND('',#79,.T.);
#49=FACE_OUTER_BOUND('',#80,.T.);
#50=FACE_OUTER_BOUND('',#81,.T.);
#51=FACE_OUTER_BOUND('',#82,.T.);
#52=FACE_OUTER_BOUND('',#83,.T.);
#53=FACE_OUTER_BOUND('',#84,.T.);
#54=FACE_OUTER_BOUND('',#85,.T.);
#55=FACE_OUTER_BOUND('',#86,.T.);
#56=FACE_OUTER_BOUND('',#87,.T.);
#57=FACE_OUTER_BOUND('',#88,.T.);
#58=FACE_OUTER_BOUND('',#89,.T.);
#59=FACE_OUTER_BOUND('',#90,.T.);
#60=FACE_OUTER_BOUND('',#91,.T.);
#61=FACE_OUTER_BOUND('',#92,.T.);
#62=FACE_OUTER_BOUND('',#93,.T.);
#63=FACE_OUTER_BOUND('',#94,.T.);
#64=FACE_OUTER_BOUND('',#95,.T.);
#65=FACE_OUTER_BOUND('',#96,.T.);
#66=FACE_OUTER_BOUND('',#97,.T.);
#67=FACE_OUTER_BOUND('',#98,.T.);
#68=FACE_OUTER_BOUND('',#99,.T.);
#69=FACE_OUTER_BOUND('',#100,.T.);
#70=FACE_OUTER_BOUND('',#101,.T.);
#71=FACE_OUTER_BOUND('',#102,.T.);
#72=FACE_OUTER_BOUND('',#103,.T.);
#73=FACE_OUTER_BOUND('',#104,.T.);
#74=FACE_OUTER_BOUND('',#105,.T.);
#75=FACE_OUTER_BOUND('',#106,.T.);
#76=FACE_OUTER_BOUND('',#107,.T.);
#77=FACE_OUTER_BOUND('',#108,.T.);
#78=EDGE_LOOP('',(#325,#326,#327,#328));
#79=EDGE_LOOP('',(#329,#330,#331,#332));
#80=EDGE_LOOP('',(#333,#334,#335,#336));
#81=EDGE_LOOP('',(#337,#338,#339,#340));
#82=EDGE_LOOP('',(#341,#342,#343,#344));
#83=EDGE_LOOP('',(#345,#346,#347,#348));
#84=EDGE_LOOP('',(#349,#350,#351,#352));
#85=EDGE_LOOP('',(#353,#354,#355,#356));
#86=EDGE_LOOP('',(#357,#358,#359,#360));
#87=EDGE_LOOP('',(#361,#362,#363,#364));
#88=EDGE_LOOP('',(#365,#366,#367,#368));
#89=EDGE_LOOP('',(#369,#370,#371,#372));
#90=EDGE_LOOP('',(#373,#374,#375,#376));
#91=EDGE_LOOP('',(#377));
#92=EDGE_LOOP('',(#378));
#93=EDGE_LOOP('',(#379,#380,#381,#382,#383,#384));
#94=EDGE_LOOP('',(#385,#386,#387,#388));
#95=EDGE_LOOP('',(#389,#390,#391,#392,#393));
#96=EDGE_LOOP('',(#394,#395,#396,#397));
#97=EDGE_LOOP('',(#398,#399,#400,#401));
#98=EDGE_LOOP('',(#402,#403,#404,#405));
#99=EDGE_LOOP('',(#406,#407,#408,#409,#410,#411,#412));
#100=EDGE_LOOP('',(#413,#414,#415,#416));
#101=EDGE_LOOP('',(#417,#418,#419,#420));
#102=EDGE_LOOP('',(#421,#422,#423,#424,#425,#426));
#103=EDGE_LOOP('',(#427,#428,#429,#430));
#104=EDGE_LOOP('',(#431,#432,#433,#434));
#105=EDGE_LOOP('',(#435,#436,#437,#438));
#106=EDGE_LOOP('',(#439,#440,#441,#442));
#107=EDGE_LOOP('',(#443,#444,#445,#446));
#108=EDGE_LOOP('',(#447,#448,#449,#450));
#109=CIRCLE('',#508,5.);
#110=CIRCLE('',#509,5.);
#111=CIRCLE('',#511,5.);
#112=CIRCLE('',#512,5.);
#113=CIRCLE('',#514,26.0452376636048);
#114=CIRCLE('',#515,30.);
#115=CIRCLE('',#517,26.0452376636048);
#116=CIRCLE('',#519,30.);
#117=CIRCLE('',#528,1.768706852125);
#118=CIRCLE('',#529,1.768706852125);
#119=CIRCLE('',#533,30.0123657975387);
#120=CIRCLE('',#534,30.0123657975388);
#121=CIRCLE('',#535,30.0123657975388);
#122=CIRCLE('',#541,28.5713654087993);
#123=CIRCLE('',#543,28.5713654087993);
#124=LINE('',#699,#172);
#125=LINE('',#703,#173);
#126=LINE('',#708,#174);
#127=LINE('',#712,#175);
#128=LINE('',#725,#176);
#129=LINE('',#727,#177);
#130=LINE('',#729,#178);
#131=LINE('',#730,#179);
#132=LINE('',#733,#180);
#133=LINE('',#735,#181);
#134=LINE('',#736,#182);
#135=LINE('',#739,#183);
#136=LINE('',#740,#184);
#137=LINE('',#743,#185);
#138=LINE('',#744,#186);
#139=LINE('',#746,#187);
#140=LINE('',#752,#188);
#141=LINE('',#759,#189);
#142=LINE('',#763,#190);
#143=LINE('',#767,#191);
#144=LINE('',#771,#192);
#145=LINE('',#773,#193);
#146=LINE('',#774,#194);
#147=LINE('',#777,#195);
#148=LINE('',#779,#196);
#149=LINE('',#780,#197);
#150=LINE('',#783,#198);
#151=LINE('',#785,#199);
#152=LINE('',#786,#200);
#153=LINE('',#788,#201);
#154=LINE('',#791,#202);
#155=LINE('',#794,#203);
#156=LINE('',#797,#204);
#157=LINE('',#800,#205);
#158=LINE('',#802,#206);
#159=LINE('',#803,#207);
#160=LINE('',#809,#208);
#161=LINE('',#811,#209);
#162=LINE('',#813,#210);
#163=LINE('',#814,#211);
#164=LINE('',#817,#212);
#165=LINE('',#819,#213);
#166=LINE('',#820,#214);
#167=LINE('',#823,#215);
#168=LINE('',#825,#216);
#169=LINE('',#826,#217);
#170=LINE('',#828,#218);
#171=LINE('',#829,#219);
#172=VECTOR('',#557,10.);
#173=VECTOR('',#560,10.);
#174=VECTOR('',#565,10.);
#175=VECTOR('',#568,10.);
#176=VECTOR('',#589,10.);
#177=VECTOR('',#590,10.);
#178=VECTOR('',#591,10.);
#179=VECTOR('',#592,10.);
#180=VECTOR('',#595,10.);
#181=VECTOR('',#596,10.);
#182=VECTOR('',#597,10.);
#183=VECTOR('',#600,10.);
#184=VECTOR('',#601,10.);
#185=VECTOR('',#604,10.);
#186=VECTOR('',#605,10.);
#187=VECTOR('',#608,10.);
#188=VECTOR('',#615,1.768706852125);
#189=VECTOR('',#624,10.);
#190=VECTOR('',#627,10.);
#191=VECTOR('',#630,10.);
#192=VECTOR('',#635,10.);
#193=VECTOR('',#636,10.);
#194=VECTOR('',#637,10.);
#195=VECTOR('',#640,10.);
#196=VECTOR('',#641,10.);
#197=VECTOR('',#642,10.);
#198=VECTOR('',#645,10.);
#199=VECTOR('',#646,10.);
#200=VECTOR('',#647,10.);
#201=VECTOR('',#650,10.);
#202=VECTOR('',#653,10.);
#203=VECTOR('',#656,10.);
#204=VECTOR('',#659,10.);
#205=VECTOR('',#662,10.);
#206=VECTOR('',#665,10.);
#207=VECTOR('',#666,10.);
#208=VECTOR('',#673,10.);
#209=VECTOR('',#674,10.);
#210=VECTOR('',#675,10.);
#211=VECTOR('',#676,10.);
#212=VECTOR('',#679,10.);
#213=VECTOR('',#680,10.);
#214=VECTOR('',#681,10.);
#215=VECTOR('',#684,10.);
#216=VECTOR('',#685,10.);
#217=VECTOR('',#686,10.);
#218=VECTOR('',#689,10.);
#219=VECTOR('',#690,10.);
#220=VERTEX_POINT('',#697);
#221=VERTEX_POINT('',#698);
#222=VERTEX_POINT('',#700);
#223=VERTEX_POINT('',#702);
#224=VERTEX_POINT('',#706);
#225=VERTEX_POINT('',#707);
#226=VERTEX_POINT('',#709);
#227=VERTEX_POINT('',#711);
#228=VERTEX_POINT('',#723);
#229=VERTEX_POINT('',#724);
#230=VERTEX_POINT('',#726);
#231=VERTEX_POINT('',#728);
#232=VERTEX_POINT('',#732);
#233=VERTEX_POINT('',#734);
#234=VERTEX_POINT('',#738);
#235=VERTEX_POINT('',#742);
#236=VERTEX_POINT('',#749);
#237=VERTEX_POINT('',#751);
#238=VERTEX_POINT('',#757);
#239=VERTEX_POINT('',#758);
#240=VERTEX_POINT('',#760);
#241=VERTEX_POINT('',#762);
#242=VERTEX_POINT('',#764);
#243=VERTEX_POINT('',#766);
#244=VERTEX_POINT('',#770);
#245=VERTEX_POINT('',#772);
#246=VERTEX_POINT('',#776);
#247=VERTEX_POINT('',#778);
#248=VERTEX_POINT('',#782);
#249=VERTEX_POINT('',#784);
#250=VERTEX_POINT('',#790);
#251=VERTEX_POINT('',#792);
#252=VERTEX_POINT('',#796);
#253=VERTEX_POINT('',#798);
#254=VERTEX_POINT('',#807);
#255=VERTEX_POINT('',#808);
#256=VERTEX_POINT('',#810);
#257=VERTEX_POINT('',#812);
#258=VERTEX_POINT('',#816);
#259=VERTEX_POINT('',#818);
#260=VERTEX_POINT('',#822);
#261=VERTEX_POINT('',#824);
#262=EDGE_CURVE('',#220,#221,#124,.T.);
#263=EDGE_CURVE('',#222,#220,#109,.T.);
#264=EDGE_CURVE('',#223,#222,#125,.T.);
#265=EDGE_CURVE('',#221,#223,#110,.T.);
#266=EDGE_CURVE('',#224,#225,#126,.T.);
#267=EDGE_CURVE('',#226,#224,#111,.T.);
#268=EDGE_CURVE('',#227,#226,#127,.T.);
#269=EDGE_CURVE('',#225,#227,#112,.T.);
#270=EDGE_CURVE('',#222,#227,#113,.T.);
#271=EDGE_CURVE('',#220,#225,#114,.T.);
#272=EDGE_CURVE('',#223,#226,#115,.T.);
#273=EDGE_CURVE('',#221,#224,#116,.T.);
#274=EDGE_CURVE('',#228,#229,#128,.T.);
#275=EDGE_CURVE('',#230,#228,#129,.T.);
#276=EDGE_CURVE('',#231,#230,#130,.T.);
#277=EDGE_CURVE('',#229,#231,#131,.T.);
#278=EDGE_CURVE('',#229,#232,#132,.T.);
#279=EDGE_CURVE('',#232,#233,#133,.T.);
#280=EDGE_CURVE('',#233,#228,#134,.T.);
#281=EDGE_CURVE('',#234,#231,#135,.T.);
#282=EDGE_CURVE('',#232,#234,#136,.T.);
#283=EDGE_CURVE('',#235,#234,#137,.T.);
#284=EDGE_CURVE('',#233,#235,#138,.T.);
#285=EDGE_CURVE('',#230,#235,#139,.T.);
#286=EDGE_CURVE('',#236,#236,#117,.T.);
#287=EDGE_CURVE('',#236,#237,#140,.T.);
#288=EDGE_CURVE('',#237,#237,#118,.T.);
#289=EDGE_CURVE('',#238,#239,#141,.T.);
#290=EDGE_CURVE('',#239,#240,#119,.T.);
#291=EDGE_CURVE('',#240,#241,#142,.T.);
#292=EDGE_CURVE('',#241,#242,#120,.T.);
#293=EDGE_CURVE('',#243,#242,#143,.T.);
#294=EDGE_CURVE('',#238,#243,#121,.T.);
#295=EDGE_CURVE('',#244,#238,#144,.T.);
#296=EDGE_CURVE('',#245,#244,#145,.T.);
#297=EDGE_CURVE('',#245,#239,#146,.T.);
#298=EDGE_CURVE('',#246,#245,#147,.T.);
#299=EDGE_CURVE('',#246,#247,#148,.T.);
#300=EDGE_CURVE('',#240,#247,#149,.T.);
#301=EDGE_CURVE('',#248,#246,#150,.T.);
#302=EDGE_CURVE('',#249,#248,#151,.T.);
#303=EDGE_CURVE('',#247,#249,#152,.T.);
#304=EDGE_CURVE('',#244,#248,#153,.T.);
#305=EDGE_CURVE('',#241,#250,#154,.T.);
#306=EDGE_CURVE('',#250,#251,#122,.T.);
#307=EDGE_CURVE('',#242,#251,#155,.T.);
#308=EDGE_CURVE('',#252,#243,#156,.T.);
#309=EDGE_CURVE('',#253,#252,#123,.T.);
#310=EDGE_CURVE('',#253,#249,#157,.T.);
#311=EDGE_CURVE('',#250,#253,#158,.T.);
#312=EDGE_CURVE('',#251,#252,#159,.T.);
#313=EDGE_CURVE('',#254,#255,#160,.T.);
#314=EDGE_CURVE('',#255,#256,#161,.T.);
#315=EDGE_CURVE('',#257,#256,#162,.T.);
#316=EDGE_CURVE('',#254,#257,#163,.T.);
#317=EDGE_CURVE('',#258,#254,#164,.T.);
#318=EDGE_CURVE('',#259,#257,#165,.T.);
#319=EDGE_CURVE('',#258,#259,#166,.T.);
#320=EDGE_CURVE('',#260,#258,#167,.T.);
#321=EDGE_CURVE('',#261,#259,#168,.T.);
#322=EDGE_CURVE('',#260,#261,#169,.T.);
#323=EDGE_CURVE('',#255,#260,#170,.T.);
#324=EDGE_CURVE('',#256,#261,#171,.T.);
#325=ORIENTED_EDGE('',*,*,#262,.F.);
#326=ORIENTED_EDGE('',*,*,#263,.F.);
#327=ORIENTED_EDGE('',*,*,#264,.F.);
#328=ORIENTED_EDGE('',*,*,#265,.F.);
#329=ORIENTED_EDGE('',*,*,#266,.F.);
#330=ORIENTED_EDGE('',*,*,#267,.F.);
#331=ORIENTED_EDGE('',*,*,#268,.F.);
#332=ORIENTED_EDGE('',*,*,#269,.F.);
#333=ORIENTED_EDGE('',*,*,#269,.T.);
#334=ORIENTED_EDGE('',*,*,#270,.F.);
#335=ORIENTED_EDGE('',*,*,#263,.T.);
#336=ORIENTED_EDGE('',*,*,#271,.T.);
#337=ORIENTED_EDGE('',*,*,#268,.T.);
#338=ORIENTED_EDGE('',*,*,#272,.F.);
#339=ORIENTED_EDGE('',*,*,#264,.T.);
#340=ORIENTED_EDGE('',*,*,#270,.T.);
#341=ORIENTED_EDGE('',*,*,#267,.T.);
#342=ORIENTED_EDGE('',*,*,#273,.F.);
#343=ORIENTED_EDGE('',*,*,#265,.T.);
#344=ORIENTED_EDGE('',*,*,#272,.T.);
#345=ORIENTED_EDGE('',*,*,#266,.T.);
#346=ORIENTED_EDGE('',*,*,#271,.F.);
#347=ORIENTED_EDGE('',*,*,#262,.T.);
#348=ORIENTED_EDGE('',*,*,#273,.T.);
#349=ORIENTED_EDGE('',*,*,#274,.F.);
#350=ORIENTED_EDGE('',*,*,#275,.F.);
#351=ORIENTED_EDGE('',*,*,#276,.F.);
#352=ORIENTED_EDGE('',*,*,#277,.F.);
#353=ORIENTED_EDGE('',*,*,#274,.T.);
#354=ORIENTED_EDGE('',*,*,#278,.T.);
#355=ORIENTED_EDGE('',*,*,#279,.T.);
#356=ORIENTED_EDGE('',*,*,#280,.T.);
#357=ORIENTED_EDGE('',*,*,#277,.T.);
#358=ORIENTED_EDGE('',*,*,#281,.F.);
#359=ORIENTED_EDGE('',*,*,#282,.F.);
#360=ORIENTED_EDGE('',*,*,#278,.F.);
#361=ORIENTED_EDGE('',*,*,#279,.F.);
#362=ORIENTED_EDGE('',*,*,#282,.T.);
#363=ORIENTED_EDGE('',*,*,#283,.F.);
#364=ORIENTED_EDGE('',*,*,#284,.F.);
#365=ORIENTED_EDGE('',*,*,#275,.T.);
#366=ORIENTED_EDGE('',*,*,#280,.F.);
#367=ORIENTED_EDGE('',*,*,#284,.T.);
#368=ORIENTED_EDGE('',*,*,#285,.F.);
#369=ORIENTED_EDGE('',*,*,#276,.T.);
#370=ORIENTED_EDGE('',*,*,#285,.T.);
#371=ORIENTED_EDGE('',*,*,#283,.T.);
#372=ORIENTED_EDGE('',*,*,#281,.T.);
#373=ORIENTED_EDGE('',*,*,#286,.F.);
#374=ORIENTED_EDGE('',*,*,#287,.T.);
#375=ORIENTED_EDGE('',*,*,#288,.T.);
#376=ORIENTED_EDGE('',*,*,#287,.F.);
#377=ORIENTED_EDGE('',*,*,#286,.T.);
#378=ORIENTED_EDGE('',*,*,#288,.F.);
#379=ORIENTED_EDGE('',*,*,#289,.T.);
#380=ORIENTED_EDGE('',*,*,#290,.T.);
#381=ORIENTED_EDGE('',*,*,#291,.T.);
#382=ORIENTED_EDGE('',*,*,#292,.T.);
#383=ORIENTED_EDGE('',*,*,#293,.F.);
#384=ORIENTED_EDGE('',*,*,#294,.F.);
#385=ORIENTED_EDGE('',*,*,#295,.F.);
#386=ORIENTED_EDGE('',*,*,#296,.F.);
#387=ORIENTED_EDGE('',*,*,#297,.T.);
#388=ORIENTED_EDGE('',*,*,#289,.F.);
#389=ORIENTED_EDGE('',*,*,#290,.F.);
#390=ORIENTED_EDGE('',*,*,#297,.F.);
#391=ORIENTED_EDGE('',*,*,#298,.F.);
#392=ORIENTED_EDGE('',*,*,#299,.T.);
#393=ORIENTED_EDGE('',*,*,#300,.F.);
#394=ORIENTED_EDGE('',*,*,#299,.F.);
#395=ORIENTED_EDGE('',*,*,#301,.F.);
#396=ORIENTED_EDGE('',*,*,#302,.F.);
#397=ORIENTED_EDGE('',*,*,#303,.F.);
#398=ORIENTED_EDGE('',*,*,#304,.T.);
#399=ORIENTED_EDGE('',*,*,#301,.T.);
#400=ORIENTED_EDGE('',*,*,#298,.T.);
#401=ORIENTED_EDGE('',*,*,#296,.T.);
#402=ORIENTED_EDGE('',*,*,#305,.T.);
#403=ORIENTED_EDGE('',*,*,#306,.T.);
#404=ORIENTED_EDGE('',*,*,#307,.F.);
#405=ORIENTED_EDGE('',*,*,#292,.F.);
#406=ORIENTED_EDGE('',*,*,#294,.T.);
#407=ORIENTED_EDGE('',*,*,#308,.F.);
#408=ORIENTED_EDGE('',*,*,#309,.F.);
#409=ORIENTED_EDGE('',*,*,#310,.T.);
#410=ORIENTED_EDGE('',*,*,#302,.T.);
#411=ORIENTED_EDGE('',*,*,#304,.F.);
#412=ORIENTED_EDGE('',*,*,#295,.T.);
#413=ORIENTED_EDGE('',*,*,#311,.T.);
#414=ORIENTED_EDGE('',*,*,#309,.T.);
#415=ORIENTED_EDGE('',*,*,#312,.F.);
#416=ORIENTED_EDGE('',*,*,#306,.F.);
#417=ORIENTED_EDGE('',*,*,#312,.T.);
#418=ORIENTED_EDGE('',*,*,#308,.T.);
#419=ORIENTED_EDGE('',*,*,#293,.T.);
#420=ORIENTED_EDGE('',*,*,#307,.T.);
#421=ORIENTED_EDGE('',*,*,#303,.T.);
#422=ORIENTED_EDGE('',*,*,#310,.F.);
#423=ORIENTED_EDGE('',*,*,#311,.F.);
#424=ORIENTED_EDGE('',*,*,#305,.F.);
#425=ORIENTED_EDGE('',*,*,#291,.F.);
#426=ORIENTED_EDGE('',*,*,#300,.T.);
#427=ORIENTED_EDGE('',*,*,#313,.T.);
#428=ORIENTED_EDGE('',*,*,#314,.T.);
#429=ORIENTED_EDGE('',*,*,#315,.F.);
#430=ORIENTED_EDGE('',*,*,#316,.F.);
#431=ORIENTED_EDGE('',*,*,#317,.T.);
#432=ORIENTED_EDGE('',*,*,#316,.T.);
#433=ORIENTED_EDGE('',*,*,#318,.F.);
#434=ORIENTED_EDGE('',*,*,#319,.F.);
#435=ORIENTED_EDGE('',*,*,#320,.T.);
#436=ORIENTED_EDGE('',*,*,#319,.T.);
#437=ORIENTED_EDGE('',*,*,#321,.F.);
#438=ORIENTED_EDGE('',*,*,#322,.F.);
#439=ORIENTED_EDGE('',*,*,#323,.T.);
#440=ORIENTED_EDGE('',*,*,#322,.T.);
#441=ORIENTED_EDGE('',*,*,#324,.F.);
#442=ORIENTED_EDGE('',*,*,#314,.F.);
#443=ORIENTED_EDGE('',*,*,#323,.F.);
#444=ORIENTED_EDGE('',*,*,#313,.F.);
#445=ORIENTED_EDGE('',*,*,#317,.F.);
#446=ORIENTED_EDGE('',*,*,#320,.F.);
#447=ORIENTED_EDGE('',*,*,#324,.T.);
#448=ORIENTED_EDGE('',*,*,#321,.T.);
#449=ORIENTED_EDGE('',*,*,#318,.T.);
#450=ORIENTED_EDGE('',*,*,#315,.T.);
#451=CYLINDRICAL_SURFACE('',#507,5.);
#452=CYLINDRICAL_SURFACE('',#510,5.);
#453=CYLINDRICAL_SURFACE('',#516,26.0452376636048);
#454=CYLINDRICAL_SURFACE('',#520,30.);
#455=CYLINDRICAL_SURFACE('',#527,1.768706852125);
#456=CYLINDRICAL_SURFACE('',#532,30.0123657975387);
#457=CYLINDRICAL_SURFACE('',#544,28.5713654087993);
#458=ADVANCED_FACE('',(#47),#451,.F.);
#459=ADVANCED_FACE('',(#48),#452,.F.);
#460=ADVANCED_FACE('',(#49),#23,.T.);
#461=ADVANCED_FACE('',(#50),#453,.F.);
#462=ADVANCED_FACE('',(#51),#24,.T.);
#463=ADVANCED_FACE('',(#52),#454,.T.);
#464=ADVANCED_FACE('',(#53),#25,.F.);
#465=ADVANCED_FACE('',(#54),#26,.F.);
#466=ADVANCED_FACE('',(#55),#27,.T.);
#467=ADVANCED_FACE('',(#56),#28,.T.);
#468=ADVANCED_FACE('',(#57),#29,.T.);
#469=ADVANCED_FACE('',(#58),#30,.T.);
#470=ADVANCED_FACE('',(#59),#455,.T.);
#471=ADVANCED_FACE('',(#60),#31,.T.);
#472=ADVANCED_FACE('',(#61),#32,.F.);
#473=ADVANCED_FACE('',(#62),#456,.T.);
#474=ADVANCED_FACE('',(#63),#33,.T.);
#475=ADVANCED_FACE('',(#64),#34,.T.);
#476=ADVANCED_FACE('',(#65),#35,.T.);
#477=ADVANCED_FACE('',(#66),#36,.T.);
#478=ADVANCED_FACE('',(#67),#37,.T.);
#479=ADVANCED_FACE('',(#68),#38,.T.);
#480=ADVANCED_FACE('',(#69),#457,.F.);
#481=ADVANCED_FACE('',(#70),#39,.T.);
#482=ADVANCED_FACE('',(#71),#40,.F.);
#483=ADVANCED_FACE('',(#72),#41,.T.);
#484=ADVANCED_FACE('',(#73),#42,.T.);
#485=ADVANCED_FACE('',(#74),#43,.T.);
#486=ADVANCED_FACE('',(#75),#44,.T.);
#487=ADVANCED_FACE('',(#76),#45,.T.);
#488=ADVANCED_FACE('',(#77),#46,.T.);
#489=CLOSED_SHELL('',(#458,#459,#460,#461,#462,#463));
#490=CLOSED_SHELL('',(#464,#465,#466,#467,#468,#469));
#491=CLOSED_SHELL('',(#470,#471,#472));
#492=CLOSED_SHELL('',(#473,#474,#475,#476,#477,#478,#479,#480,#481,#482));
#493=CLOSED_SHELL('',(#483,#484,#485,#486,#487,#488));
#494=DERIVED_UNIT_ELEMENT(#496,1.);
#495=DERIVED_UNIT_ELEMENT(#837,-3.);
#496=(
MASS_UNIT()
NAMED_UNIT(*)
SI_UNIT(.KILO.,.GRAM.)
);
#497=DERIVED_UNIT((#494,#495));
#498=MEASURE_REPRESENTATION_ITEM('density measure',
POSITIVE_RATIO_MEASURE(7850.),#497);
#499=PROPERTY_DEFINITION_REPRESENTATION(#504,#501);
#500=PROPERTY_DEFINITION_REPRESENTATION(#505,#502);
#501=REPRESENTATION('material name',(#503),#834);
#502=REPRESENTATION('density',(#498),#834);
#503=DESCRIPTIVE_REPRESENTATION_ITEM('Steel','Steel');
#504=PROPERTY_DEFINITION('material property','material name',#844);
#505=PROPERTY_DEFINITION('material property','density of part',#844);
#506=AXIS2_PLACEMENT_3D('',#695,#553,#554);
#507=AXIS2_PLACEMENT_3D('',#696,#555,#556);
#508=AXIS2_PLACEMENT_3D('',#701,#558,#559);
#509=AXIS2_PLACEMENT_3D('',#704,#561,#562);
#510=AXIS2_PLACEMENT_3D('',#705,#563,#564);
#511=AXIS2_PLACEMENT_3D('',#710,#566,#567);
#512=AXIS2_PLACEMENT_3D('',#713,#569,#570);
#513=AXIS2_PLACEMENT_3D('',#714,#571,#572);
#514=AXIS2_PLACEMENT_3D('',#715,#573,#574);
#515=AXIS2_PLACEMENT_3D('',#716,#575,#576);
#516=AXIS2_PLACEMENT_3D('',#717,#577,#578);
#517=AXIS2_PLACEMENT_3D('',#718,#579,#580);
#518=AXIS2_PLACEMENT_3D('',#719,#581,#582);
#519=AXIS2_PLACEMENT_3D('',#720,#583,#584);
#520=AXIS2_PLACEMENT_3D('',#721,#585,#586);
#521=AXIS2_PLACEMENT_3D('',#722,#587,#588);
#522=AXIS2_PLACEMENT_3D('',#731,#593,#594);
#523=AXIS2_PLACEMENT_3D('',#737,#598,#599);
#524=AXIS2_PLACEMENT_3D('',#741,#602,#603);
#525=AXIS2_PLACEMENT_3D('',#745,#606,#607);
#526=AXIS2_PLACEMENT_3D('',#747,#609,#610);
#527=AXIS2_PLACEMENT_3D('',#748,#611,#612);
#528=AXIS2_PLACEMENT_3D('',#750,#613,#614);
#529=AXIS2_PLACEMENT_3D('',#753,#616,#617);
#530=AXIS2_PLACEMENT_3D('',#754,#618,#619);
#531=AXIS2_PLACEMENT_3D('',#755,#620,#621);
#532=AXIS2_PLACEMENT_3D('',#756,#622,#623);
#533=AXIS2_PLACEMENT_3D('',#761,#625,#626);
#534=AXIS2_PLACEMENT_3D('',#765,#628,#629);
#535=AXIS2_PLACEMENT_3D('',#768,#631,#632);
#536=AXIS2_PLACEMENT_3D('',#769,#633,#634);
#537=AXIS2_PLACEMENT_3D('',#775,#638,#639);
#538=AXIS2_PLACEMENT_3D('',#781,#643,#644);
#539=AXIS2_PLACEMENT_3D('',#787,#648,#649);
#540=AXIS2_PLACEMENT_3D('',#789,#651,#652);
#541=AXIS2_PLACEMENT_3D('',#793,#654,#655);
#542=AXIS2_PLACEMENT_3D('',#795,#657,#658);
#543=AXIS2_PLACEMENT_3D('',#799,#660,#661);
#544=AXIS2_PLACEMENT_3D('',#801,#663,#664);
#545=AXIS2_PLACEMENT_3D('',#804,#667,#668);
#546=AXIS2_PLACEMENT_3D('',#805,#669,#670);
#547=AXIS2_PLACEMENT_3D('',#806,#671,#672);
#548=AXIS2_PLACEMENT_3D('',#815,#677,#678);
#549=AXIS2_PLACEMENT_3D('',#821,#682,#683);
#550=AXIS2_PLACEMENT_3D('',#827,#687,#688);
#551=AXIS2_PLACEMENT_3D('',#830,#691,#692);
#552=AXIS2_PLACEMENT_3D('',#831,#693,#694);
#553=DIRECTION('axis',(0.,0.,1.));
#554=DIRECTION('refdir',(1.,0.,0.));
#555=DIRECTION('center_axis',(0.,0.,-1.));
#556=DIRECTION('ref_axis',(-0.914743300713742,-0.404035510567237,0.));
#557=DIRECTION('',(0.,0.,1.));
#558=DIRECTION('center_axis',(0.,0.,1.));
#559=DIRECTION('ref_axis',(1.,0.,0.));
#560=DIRECTION('',(0.,0.,-1.));
#561=DIRECTION('center_axis',(0.,0.,-1.));
#562=DIRECTION('ref_axis',(1.,0.,0.));
#563=DIRECTION('center_axis',(0.,0.,-1.));
#564=DIRECTION('ref_axis',(1.,0.,0.));
#565=DIRECTION('',(0.,0.,-1.));
#566=DIRECTION('center_axis',(0.,0.,-1.));
#567=DIRECTION('ref_axis',(1.,0.,0.));
#568=DIRECTION('',(0.,0.,1.));
#569=DIRECTION('center_axis',(0.,0.,1.));
#570=DIRECTION('ref_axis',(1.,0.,0.));
#571=DIRECTION('center_axis',(0.,0.,-1.));
#572=DIRECTION('ref_axis',(-1.,0.,0.));
#573=DIRECTION('center_axis',(0.,0.,-1.));
#574=DIRECTION('ref_axis',(1.,0.,0.));
#575=DIRECTION('center_axis',(0.,0.,-1.));
#576=DIRECTION('ref_axis',(1.,0.,0.));
#577=DIRECTION('center_axis',(0.,0.,-1.));
#578=DIRECTION('ref_axis',(-0.322077202136472,0.946713407459693,0.));
#579=DIRECTION('center_axis',(0.,0.,-1.));
#580=DIRECTION('ref_axis',(1.,0.,0.));
#581=DIRECTION('center_axis',(0.,0.,1.));
#582=DIRECTION('ref_axis',(1.,0.,0.));
#583=DIRECTION('center_axis',(0.,0.,-1.));
#584=DIRECTION('ref_axis',(1.,0.,0.));
#585=DIRECTION('center_axis',(0.,0.,-1.));
#586=DIRECTION('ref_axis',(-0.322077202136471,0.946713407459693,0.));
#587=DIRECTION('center_axis',(-0.342020143325669,0.939692620785908,0.));
#588=DIRECTION('ref_axis',(0.,0.,1.));
#589=DIRECTION('',(-0.939692620785909,-0.342020143325669,0.));
#590=DIRECTION('',(0.,0.,-1.));
#591=DIRECTION('',(0.939692620785909,0.342020143325669,0.));
#592=DIRECTION('',(0.,0.,1.));
#593=DIRECTION('center_axis',(0.,0.,1.));
#594=DIRECTION('ref_axis',(0.939692620785909,0.342020143325669,0.));
#595=DIRECTION('',(-0.342020143325669,0.939692620785909,0.));
#596=DIRECTION('',(0.939692620785909,0.342020143325669,0.));
#597=DIRECTION('',(0.342020143325669,-0.939692620785909,0.));
#598=DIRECTION('center_axis',(-0.939692620785908,-0.342020143325669,0.));
#599=DIRECTION('ref_axis',(0.342020143325669,-0.939692620785909,0.));
#600=DIRECTION('',(0.342020143325669,-0.939692620785909,0.));
#601=DIRECTION('',(0.,0.,1.));
#602=DIRECTION('center_axis',(-0.342020143325669,0.939692620785908,0.));
#603=DIRECTION('ref_axis',(-0.939692620785909,-0.342020143325669,0.));
#604=DIRECTION('',(-0.939692620785909,-0.342020143325669,0.));
#605=DIRECTION('',(0.,0.,1.));
#606=DIRECTION('center_axis',(0.939692620785908,0.342020143325669,0.));
#607=DIRECTION('ref_axis',(-0.342020143325669,0.939692620785909,0.));
#608=DIRECTION('',(-0.342020143325669,0.939692620785909,0.));
#609=DIRECTION('center_axis',(0.,0.,1.));
#610=DIRECTION('ref_axis',(0.939692620785909,0.342020143325669,0.));
#611=DIRECTION('center_axis',(0.342020143325669,-0.939692620785908,0.));
#612=DIRECTION('ref_axis',(0.939692620785908,0.342020143325669,0.));
#613=DIRECTION('center_axis',(0.342020143325669,-0.939692620785908,0.));
#614=DIRECTION('ref_axis',(0.939692620785908,0.342020143325669,0.));
#615=DIRECTION('',(-0.342020143325669,0.939692620785908,0.));
#616=DIRECTION('center_axis',(0.342020143325669,-0.939692620785908,0.));
#617=DIRECTION('ref_axis',(0.939692620785908,0.342020143325669,0.));
#618=DIRECTION('center_axis',(0.342020143325669,-0.939692620785908,0.));
#619=DIRECTION('ref_axis',(0.939692620785909,0.342020143325669,0.));
#620=DIRECTION('center_axis',(0.342020143325669,-0.939692620785908,0.));
#621=DIRECTION('ref_axis',(0.939692620785909,0.342020143325669,0.));
#622=DIRECTION('center_axis',(0.,0.,-1.));
#623=DIRECTION('ref_axis',(0.0436193873653357,0.999048221581858,0.));
#624=DIRECTION('',(0.,0.,1.));
#625=DIRECTION('center_axis',(0.,0.,1.));
#626=DIRECTION('ref_axis',(-0.087155742747658,-0.996194698091746,0.));
#627=DIRECTION('',(0.,0.,1.));
#628=DIRECTION('center_axis',(0.,0.,-1.));
#629=DIRECTION('ref_axis',(-0.0871557427476583,-0.996194698091746,0.));
#630=DIRECTION('',(0.,0.,1.));
#631=DIRECTION('center_axis',(0.,0.,-1.));
#632=DIRECTION('ref_axis',(-0.0871557427476583,-0.996194698091746,0.));
#633=DIRECTION('center_axis',(-1.,0.,0.));
#634=DIRECTION('ref_axis',(0.,0.,-1.));
#635=DIRECTION('',(0.,1.,0.));
#636=DIRECTION('',(0.,0.,-1.));
#637=DIRECTION('',(0.,1.,0.));
#638=DIRECTION('center_axis',(0.,0.,1.));
#639=DIRECTION('ref_axis',(-1.,0.,0.));
#640=DIRECTION('',(-1.,0.,0.));
#641=DIRECTION('',(0.,1.,0.));
#642=DIRECTION('',(0.0871557427476579,0.996194698091746,0.));
#643=DIRECTION('center_axis',(1.,0.,0.));
#644=DIRECTION('ref_axis',(0.,0.,1.));
#645=DIRECTION('',(0.,0.,1.));
#646=DIRECTION('',(0.,-1.,0.));
#647=DIRECTION('',(0.,0.,-1.));
#648=DIRECTION('center_axis',(0.,-1.,0.));
#649=DIRECTION('ref_axis',(0.,0.,-1.));
#650=DIRECTION('',(1.,0.,0.));
#651=DIRECTION('center_axis',(0.,0.,1.));
#652=DIRECTION('ref_axis',(-0.996194698091746,0.0871557427476579,0.));
#653=DIRECTION('',(0.0871557427476579,0.996194698091746,0.));
#654=DIRECTION('center_axis',(0.,0.,-1.));
#655=DIRECTION('ref_axis',(-0.0871557427476576,-0.996194698091746,0.));
#656=DIRECTION('',(-3.7470027081099E-16,1.,0.));
#657=DIRECTION('center_axis',(0.,0.,-1.));
#658=DIRECTION('ref_axis',(0.996194698091746,-0.0871557427476579,0.));
#659=DIRECTION('',(3.7470027081099E-16,-1.,0.));
#660=DIRECTION('center_axis',(0.,0.,-1.));
#661=DIRECTION('ref_axis',(-0.0871557427476576,-0.996194698091746,0.));
#662=DIRECTION('',(-0.0871557427476579,-0.996194698091746,0.));
#663=DIRECTION('center_axis',(0.,0.,-1.));
#664=DIRECTION('ref_axis',(0.0436193873653357,0.999048221581858,0.));
#665=DIRECTION('',(0.,0.,-1.));
#666=DIRECTION('',(0.,0.,-1.));
#667=DIRECTION('center_axis',(-1.,-3.7470027081099E-16,0.));
#668=DIRECTION('ref_axis',(3.7470027081099E-16,-1.,0.));
#669=DIRECTION('center_axis',(-0.996194698091746,0.0871557427476579,0.));
#670=DIRECTION('ref_axis',(-0.0871557427476579,-0.996194698091746,0.));
#671=DIRECTION('center_axis',(-1.,0.,0.));
#672=DIRECTION('ref_axis',(0.,0.,-1.));
#673=DIRECTION('',(0.,0.,-1.));
#674=DIRECTION('',(0.,-1.,0.));
#675=DIRECTION('',(0.,0.,-1.));
#676=DIRECTION('',(0.,-1.,0.));
#677=DIRECTION('center_axis',(0.,0.,1.));
#678=DIRECTION('ref_axis',(-1.,0.,0.));
#679=DIRECTION('',(-1.,0.,0.));
#680=DIRECTION('',(-1.,0.,0.));
#681=DIRECTION('',(0.,-1.,0.));
#682=DIRECTION('center_axis',(1.,0.,0.));
#683=DIRECTION('ref_axis',(0.,0.,1.));
#684=DIRECTION('',(0.,0.,1.));
#685=DIRECTION('',(0.,0.,1.));
#686=DIRECTION('',(0.,-1.,0.));
#687=DIRECTION('center_axis',(0.,0.,-1.));
#688=DIRECTION('ref_axis',(1.,0.,0.));
#689=DIRECTION('',(1.,0.,0.));
#690=DIRECTION('',(1.,0.,0.));
#691=DIRECTION('center_axis',(0.,1.,0.));
#692=DIRECTION('ref_axis',(1.,0.,0.));
#693=DIRECTION('center_axis',(0.,-1.,0.));
#694=DIRECTION('ref_axis',(0.,0.,-1.));
#695=CARTESIAN_POINT('',(0.,0.,0.));
#696=CARTESIAN_POINT('Origin',(8.77516448497772,-25.7937097549438,-5.));
#697=CARTESIAN_POINT('',(5.42504220311251,-29.5054048793513,-30.));
#698=CARTESIAN_POINT('',(5.42504220311251,-29.5054048793513,30.));
#699=CARTESIAN_POINT('',(5.4250422031125,-29.5054048793513,-5.));
#700=CARTESIAN_POINT('',(3.77521985544717,-25.7701788894973,-30.));
#701=CARTESIAN_POINT('Origin',(8.77516448497772,-25.7937097549438,-30.));
#702=CARTESIAN_POINT('',(3.77521985544718,-25.7701788894973,30.));
#703=CARTESIAN_POINT('',(3.77521985544718,-25.7701788894973,-5.));
#704=CARTESIAN_POINT('Origin',(8.77516448497772,-25.7937097549438,30.));
#705=CARTESIAN_POINT('Origin',(8.77516448497772,-25.7937097549438,-5.));
#706=CARTESIAN_POINT('',(13.6937470394906,-26.6923451951761,30.));
#707=CARTESIAN_POINT('',(13.6937470394906,-26.6923451951761,-30.));
#708=CARTESIAN_POINT('',(13.6937470394906,-26.6923451951761,-5.));
#709=CARTESIAN_POINT('',(12.723433542196,-22.725946489662,30.));
#710=CARTESIAN_POINT('Origin',(8.77516448497772,-25.7937097549438,30.));
#711=CARTESIAN_POINT('',(12.723433542196,-22.725946489662,-30.));
#712=CARTESIAN_POINT('',(12.723433542196,-22.725946489662,-5.));
#713=CARTESIAN_POINT('Origin',(8.77516448497772,-25.7937097549438,-30.));
#714=CARTESIAN_POINT('Origin',(0.,26.0452376636048,-30.));
#715=CARTESIAN_POINT('Origin',(0.,0.,-30.));
#716=CARTESIAN_POINT('Origin',(0.,0.,-30.));
#717=CARTESIAN_POINT('Origin',(0.,0.,0.));
#718=CARTESIAN_POINT('Origin',(0.,0.,30.));
#719=CARTESIAN_POINT('Origin',(0.,30.,30.));
#720=CARTESIAN_POINT('Origin',(0.,0.,30.));
#721=CARTESIAN_POINT('Origin',(0.,0.,0.));
#722=CARTESIAN_POINT('Origin',(4.91091677123242,-29.4227467427573,7.77205611172604));
#723=CARTESIAN_POINT('',(14.3078429790915,-26.0025453095006,7.77205611172604));
#724=CARTESIAN_POINT('',(4.91091677123242,-29.4227467427573,7.77205611172604));
#725=CARTESIAN_POINT('',(7.26014832319719,-28.5676963844431,7.77205611172604));
#726=CARTESIAN_POINT('',(14.3078429790915,-26.0025453095006,17.772056111726));
#727=CARTESIAN_POINT('',(14.3078429790915,-26.0025453095006,7.77205611172604));
#728=CARTESIAN_POINT('',(4.91091677123242,-29.4227467427573,17.772056111726));
#729=CARTESIAN_POINT('',(7.26014832319719,-28.5676963844431,17.772056111726));
#730=CARTESIAN_POINT('',(4.91091677123242,-29.4227467427573,7.77205611172604));
#731=CARTESIAN_POINT('Origin',(11.1484705201275,-31.9412628196655,7.77205611172604));
#732=CARTESIAN_POINT('',(4.73990669956958,-28.9529004323643,7.77205611172604));
#733=CARTESIAN_POINT('',(8.16010813282626,-38.3498266402234,7.77205611172604));
#734=CARTESIAN_POINT('',(14.1368329074287,-25.5326989991076,7.77205611172604));
#735=CARTESIAN_POINT('',(4.73990669956958,-28.9529004323643,7.77205611172604));
#736=CARTESIAN_POINT('',(14.1368329074287,-25.5326989991076,7.77205611172604));
#737=CARTESIAN_POINT('Origin',(4.73990669956958,-28.9529004323643,7.77205611172604));
#738=CARTESIAN_POINT('',(4.73990669956958,-28.9529004323643,17.772056111726));
#739=CARTESIAN_POINT('',(8.16010813282626,-38.3498266402234,17.772056111726));
#740=CARTESIAN_POINT('',(4.73990669956958,-28.9529004323643,7.77205611172604));
#741=CARTESIAN_POINT('Origin',(14.1368329074287,-25.5326989991076,7.77205611172604));
#742=CARTESIAN_POINT('',(14.1368329074287,-25.5326989991076,17.772056111726));
#743=CARTESIAN_POINT('',(4.73990669956958,-28.9529004323643,17.772056111726));
#744=CARTESIAN_POINT('',(14.1368329074287,-25.5326989991076,7.77205611172604));
#745=CARTESIAN_POINT('Origin',(17.5570343406854,-34.9296252069667,7.77205611172604));
#746=CARTESIAN_POINT('',(14.1368329074287,-25.5326989991076,17.772056111726));
#747=CARTESIAN_POINT('Origin',(11.1484705201275,-31.9412628196655,17.772056111726));
#748=CARTESIAN_POINT('Origin',(9.77423969719334,-27.6526419580831,12.772056111726));
#749=CARTESIAN_POINT('',(8.45421906324367,-29.1972679499339,12.772056111726));
#750=CARTESIAN_POINT('Origin',(10.116259840519,-28.592334578869,12.772056111726));
#751=CARTESIAN_POINT('',(8.112198919918,-28.257575329148,12.772056111726));
#752=CARTESIAN_POINT('',(8.112198919918,-28.257575329148,12.772056111726));
#753=CARTESIAN_POINT('Origin',(9.77423969719334,-27.6526419580831,12.772056111726));
#754=CARTESIAN_POINT('Origin',(10.116259840519,-28.592334578869,12.772056111726));
#755=CARTESIAN_POINT('Origin',(9.77423969719334,-27.6526419580831,12.772056111726));
#756=CARTESIAN_POINT('Origin',(0.,0.,36.1146912505189));
#757=CARTESIAN_POINT('',(-3.89999991282821,-29.7578914146351,34.999999217689));
#758=CARTESIAN_POINT('',(-3.89999991282821,-29.7578914146351,37.1999991685152));
#759=CARTESIAN_POINT('',(-3.89999991282821,-29.7578914146351,36.1146912505189));
#760=CARTESIAN_POINT('',(-2.61575003269909,-29.8981596846981,37.1999991685152));
#761=CARTESIAN_POINT('Origin',(0.,0.,37.1999991685152));
#762=CARTESIAN_POINT('',(-2.6157500326989,-29.8981596846981,37.2293825010378));
#763=CARTESIAN_POINT('',(-2.6157500326989,-29.8981596846981,35.));
#764=CARTESIAN_POINT('',(1.0547118733939E-14,-30.0123657975388,37.2293825010378));
#765=CARTESIAN_POINT('Origin',(1.16129820537251E-14,-1.01600427943095E-15,
37.2293825010378));
#766=CARTESIAN_POINT('',(1.0547118733939E-14,-30.0123657975388,35.));
#767=CARTESIAN_POINT('',(1.0547118733939E-14,-30.0123657975388,35.));
#768=CARTESIAN_POINT('Origin',(1.16129820537251E-14,-1.01600427943095E-15,
35.));
#769=CARTESIAN_POINT('Origin',(-3.89999991282821,-29.8981596846981,37.1999991685152));
#770=CARTESIAN_POINT('',(-3.89999991282821,-64.8981596846981,34.999999217689));
#771=CARTESIAN_POINT('',(-3.89999991282821,-29.8981596846981,34.999999217689));
#772=CARTESIAN_POINT('',(-3.89999991282821,-64.8981596846981,37.1999991685152));
#773=CARTESIAN_POINT('',(-3.89999991282821,-64.8981596846981,37.1999991685152));
#774=CARTESIAN_POINT('',(-3.89999991282821,-29.8981596846981,37.1999991685152));
#775=CARTESIAN_POINT('Origin',(-2.59999994188547,-29.8981596846981,37.1999991685152));
#776=CARTESIAN_POINT('',(-2.59999994188547,-64.8981596846981,37.1999991685152));
#777=CARTESIAN_POINT('',(-2.59999994188547,-64.8981596846981,37.1999991685152));
#778=CARTESIAN_POINT('',(-2.59999994188547,-29.7181353229275,37.1999991685152));
#779=CARTESIAN_POINT('',(-2.59999994188547,-29.8981596846981,37.1999991685152));
#780=CARTESIAN_POINT('',(-2.58922982824707,-29.5950323607339,37.1999991685152));
#781=CARTESIAN_POINT('Origin',(-2.59999994188547,-29.8981596846981,34.999999217689));
#782=CARTESIAN_POINT('',(-2.59999994188547,-64.8981596846981,34.999999217689));
#783=CARTESIAN_POINT('',(-2.59999994188547,-64.8981596846981,34.999999217689));
#784=CARTESIAN_POINT('',(-2.59999994188547,-29.7181353229275,35.));
#785=CARTESIAN_POINT('',(-2.59999994188547,-29.8981596846981,34.999999217689));
#786=CARTESIAN_POINT('',(-2.59999994188547,-29.7181353229275,36.6573452095171));
#787=CARTESIAN_POINT('Origin',(-3.24999992735684,-64.8981596846981,36.0999991931021));
#788=CARTESIAN_POINT('',(-3.89999991282821,-64.8981596846981,34.999999217689));
#789=CARTESIAN_POINT('Origin',(-2.6157500326989,-29.8981596846981,37.2293825010378));
#790=CARTESIAN_POINT('',(-2.49015857351864,-28.4626427374877,37.2293825010378));
#791=CARTESIAN_POINT('',(-2.6157500326989,-29.8981596846981,37.2293825010378));
#792=CARTESIAN_POINT('',(1.08246744900953E-14,-28.5713654087993,37.2293825010378));
#793=CARTESIAN_POINT('Origin',(-9.12448589935544E-15,7.98289076695744E-16,
37.2293825010378));
#794=CARTESIAN_POINT('',(1.0547118733939E-14,-30.0123657975388,37.2293825010378));
#795=CARTESIAN_POINT('Origin',(-2.49015857351864,-28.4626427374877,35.));
#796=CARTESIAN_POINT('',(1.08246744900953E-14,-28.5713654087993,35.));
#797=CARTESIAN_POINT('',(1.08246744900953E-14,-28.5713654087993,35.));
#798=CARTESIAN_POINT('',(-2.49015857351864,-28.4626427374877,35.));
#799=CARTESIAN_POINT('Origin',(-9.12448589935544E-15,7.98289076695744E-16,
35.));
#800=CARTESIAN_POINT('',(-2.49015857351864,-28.4626427374877,35.));
#801=CARTESIAN_POINT('Origin',(0.,0.,36.1146912505189));
#802=CARTESIAN_POINT('',(-2.49015857351864,-28.4626427374877,37.2293825010378));
#803=CARTESIAN_POINT('',(1.08246744900953E-14,-28.5713654087993,37.2293825010378));
#804=CARTESIAN_POINT('Origin',(1.0547118733939E-14,-29.291865603169,36.1146912505189));
#805=CARTESIAN_POINT('Origin',(-2.55295430310877,-29.1804012110929,36.1146912505189));
#806=CARTESIAN_POINT('Origin',(0.100000087171793,-29.8981596846981,37.1999991685152));
#807=CARTESIAN_POINT('',(0.100000087171793,-29.8981596846981,37.1999991685152));
#808=CARTESIAN_POINT('',(0.100000087171793,-29.8981596846981,34.999999217689));
#809=CARTESIAN_POINT('',(0.100000087171793,-29.8981596846981,37.1999991685152));
#810=CARTESIAN_POINT('',(0.100000087171793,-64.8981596846981,34.999999217689));
#811=CARTESIAN_POINT('',(0.100000087171793,-29.8981596846981,34.999999217689));
#812=CARTESIAN_POINT('',(0.100000087171793,-64.8981596846981,37.1999991685152));
#813=CARTESIAN_POINT('',(0.100000087171793,-64.8981596846981,37.1999991685152));
#814=CARTESIAN_POINT('',(0.100000087171793,-29.8981596846981,37.1999991685152));
#815=CARTESIAN_POINT('Origin',(1.40000005811453,-29.8981596846981,37.1999991685152));
#816=CARTESIAN_POINT('',(1.40000005811453,-29.8981596846981,37.1999991685152));
#817=CARTESIAN_POINT('',(1.40000005811453,-29.8981596846981,37.1999991685152));
#818=CARTESIAN_POINT('',(1.40000005811453,-64.8981596846981,37.1999991685152));
#819=CARTESIAN_POINT('',(1.40000005811453,-64.8981596846981,37.1999991685152));
#820=CARTESIAN_POINT('',(1.40000005811453,-29.8981596846981,37.1999991685152));
#821=CARTESIAN_POINT('Origin',(1.40000005811453,-29.8981596846981,34.999999217689));
#822=CARTESIAN_POINT('',(1.40000005811453,-29.8981596846981,34.999999217689));
#823=CARTESIAN_POINT('',(1.40000005811453,-29.8981596846981,34.999999217689));
#824=CARTESIAN_POINT('',(1.40000005811453,-64.8981596846981,34.999999217689));
#825=CARTESIAN_POINT('',(1.40000005811453,-64.8981596846981,34.999999217689));
#826=CARTESIAN_POINT('',(1.40000005811453,-29.8981596846981,34.999999217689));
#827=CARTESIAN_POINT('Origin',(0.100000087171793,-29.8981596846981,34.999999217689));
#828=CARTESIAN_POINT('',(0.100000087171793,-29.8981596846981,34.999999217689));
#829=CARTESIAN_POINT('',(0.100000087171793,-64.8981596846981,34.999999217689));
#830=CARTESIAN_POINT('Origin',(0.750000072643161,-29.8981596846981,36.0999991931021));
#831=CARTESIAN_POINT('Origin',(0.750000072643161,-64.8981596846981,36.0999991931021));
#832=UNCERTAINTY_MEASURE_WITH_UNIT(LENGTH_MEASURE(0.01),#836,
'DISTANCE_ACCURACY_VALUE',
'Maximum model space distance between geometric entities at asserted c
onnectivities');
#833=UNCERTAINTY_MEASURE_WITH_UNIT(LENGTH_MEASURE(0.01),#836,
'DISTANCE_ACCURACY_VALUE',
'Maximum model space distance between geometric entities at asserted c
onnectivities');
#834=(
GEOMETRIC_REPRESENTATION_CONTEXT(3)
GLOBAL_UNCERTAINTY_ASSIGNED_CONTEXT((#832))
GLOBAL_UNIT_ASSIGNED_CONTEXT((#836,#838,#839))
REPRESENTATION_CONTEXT('','3D')
);
#835=(
GEOMETRIC_REPRESENTATION_CONTEXT(3)
GLOBAL_UNCERTAINTY_ASSIGNED_CONTEXT((#833))
GLOBAL_UNIT_ASSIGNED_CONTEXT((#836,#838,#839))
REPRESENTATION_CONTEXT('','3D')
);
#836=(
LENGTH_UNIT()
NAMED_UNIT(*)
SI_UNIT(.MILLI.,.METRE.)
);
#837=(
LENGTH_UNIT()
NAMED_UNIT(*)
SI_UNIT($,.METRE.)
);
#838=(
NAMED_UNIT(*)
PLANE_ANGLE_UNIT()
SI_UNIT($,.RADIAN.)
);
#839=(
NAMED_UNIT(*)
SI_UNIT($,.STERADIAN.)
SOLID_ANGLE_UNIT()
);
#840=SHAPE_DEFINITION_REPRESENTATION(#841,#842);
#841=PRODUCT_DEFINITION_SHAPE('',$,#844);
#842=SHAPE_REPRESENTATION('',(#506),#834);
#843=PRODUCT_DEFINITION_CONTEXT('part definition',#848,'design');
#844=PRODUCT_DEFINITION('2026-07-29-11-05-49-224','LoopGapResonator',#845,
#843);
#845=PRODUCT_DEFINITION_FORMATION('',$,#850);
#846=PRODUCT_RELATED_PRODUCT_CATEGORY('LoopGapResonator',
'LoopGapResonator',(#850));
#847=APPLICATION_PROTOCOL_DEFINITION('international standard',
'automotive_design',2009,#848);
#848=APPLICATION_CONTEXT(
'Core Data for Automotive Mechanical Design Process');
#849=PRODUCT_CONTEXT('part definition',#848,'mechanical');
#850=PRODUCT('2026-07-29-11-05-49-224','LoopGapResonator',$,(#849));
#851=PRESENTATION_STYLE_ASSIGNMENT((#854));
#852=PRESENTATION_STYLE_ASSIGNMENT((#855));
#853=PRESENTATION_STYLE_ASSIGNMENT((#856));
#854=SURFACE_STYLE_USAGE(.BOTH.,#857);
#855=SURFACE_STYLE_USAGE(.BOTH.,#858);
#856=SURFACE_STYLE_USAGE(.BOTH.,#859);
#857=SURFACE_SIDE_STYLE('',(#860));
#858=SURFACE_SIDE_STYLE('',(#861));
#859=SURFACE_SIDE_STYLE('',(#862));
#860=SURFACE_STYLE_FILL_AREA(#863);
#861=SURFACE_STYLE_FILL_AREA(#864);
#862=SURFACE_STYLE_FILL_AREA(#865);
#863=FILL_AREA_STYLE('Steel - Satin',(#866));
#864=FILL_AREA_STYLE('Copper - Polished',(#867));
#865=FILL_AREA_STYLE('Aluminum - Anodized Rough (Red)',(#868));
#866=FILL_AREA_STYLE_COLOUR('Steel - Satin',#869);
#867=FILL_AREA_STYLE_COLOUR('Copper - Polished',#870);
#868=FILL_AREA_STYLE_COLOUR('Aluminum - Anodized Rough (Red)',#871);
#869=COLOUR_RGB('Steel - Satin',0.627450980392157,0.627450980392157,0.627450980392157);
#870=COLOUR_RGB('Copper - Polished',0.929411764705882,0.807843137254902,
0.764705882352941);
#871=COLOUR_RGB('Aluminum - Anodized Rough (Red)',0.854901960784314,0.349019607843137,
0.349019607843137);
ENDSEC;
END-ISO-10303-21;
