%TF.GenerationSoftware,KiCad,Pcbnew,9.0.3*%
%TF.CreationDate,2026-05-06T17:25:11-07:00*%
%TF.ProjectId,microwave-coil-2,6d696372-6f77-4617-9665-2d636f696c2d,rev?*%
%TF.SameCoordinates,Original*%
%TF.FileFunction,Legend,Top*%
%TF.FilePolarity,Positive*%
%FSLAX46Y46*%
G04 Gerber Fmt 4.6, Leading zero omitted, Abs format (unit mm)*
G04 Created by KiCad (PCBNEW 9.0.3) date 2026-05-06 17:25:11*
%MOMM*%
%LPD*%
G01*
G04 APERTURE LIST*
%ADD10C,0.100000*%
G04 APERTURE END LIST*
D10*
X110503884Y-89652531D02*
X110503884Y-88652531D01*
X110503884Y-88652531D02*
X111075312Y-89652531D01*
X111075312Y-89652531D02*
X111075312Y-88652531D01*
X111408646Y-88652531D02*
X111741979Y-89652531D01*
X111741979Y-89652531D02*
X112075312Y-88652531D01*
X113599122Y-89652531D02*
X113599122Y-88652531D01*
X113599122Y-89604912D02*
X113503884Y-89652531D01*
X113503884Y-89652531D02*
X113313408Y-89652531D01*
X113313408Y-89652531D02*
X113218170Y-89604912D01*
X113218170Y-89604912D02*
X113170551Y-89557292D01*
X113170551Y-89557292D02*
X113122932Y-89462054D01*
X113122932Y-89462054D02*
X113122932Y-89176340D01*
X113122932Y-89176340D02*
X113170551Y-89081102D01*
X113170551Y-89081102D02*
X113218170Y-89033483D01*
X113218170Y-89033483D02*
X113313408Y-88985864D01*
X113313408Y-88985864D02*
X113503884Y-88985864D01*
X113503884Y-88985864D02*
X113599122Y-89033483D01*
X114075313Y-89652531D02*
X114075313Y-88985864D01*
X114075313Y-88652531D02*
X114027694Y-88700150D01*
X114027694Y-88700150D02*
X114075313Y-88747769D01*
X114075313Y-88747769D02*
X114122932Y-88700150D01*
X114122932Y-88700150D02*
X114075313Y-88652531D01*
X114075313Y-88652531D02*
X114075313Y-88747769D01*
X114980074Y-89652531D02*
X114980074Y-89128721D01*
X114980074Y-89128721D02*
X114932455Y-89033483D01*
X114932455Y-89033483D02*
X114837217Y-88985864D01*
X114837217Y-88985864D02*
X114646741Y-88985864D01*
X114646741Y-88985864D02*
X114551503Y-89033483D01*
X114980074Y-89604912D02*
X114884836Y-89652531D01*
X114884836Y-89652531D02*
X114646741Y-89652531D01*
X114646741Y-89652531D02*
X114551503Y-89604912D01*
X114551503Y-89604912D02*
X114503884Y-89509673D01*
X114503884Y-89509673D02*
X114503884Y-89414435D01*
X114503884Y-89414435D02*
X114551503Y-89319197D01*
X114551503Y-89319197D02*
X114646741Y-89271578D01*
X114646741Y-89271578D02*
X114884836Y-89271578D01*
X114884836Y-89271578D02*
X114980074Y-89223959D01*
X115456265Y-89652531D02*
X115456265Y-88985864D01*
X115456265Y-89081102D02*
X115503884Y-89033483D01*
X115503884Y-89033483D02*
X115599122Y-88985864D01*
X115599122Y-88985864D02*
X115741979Y-88985864D01*
X115741979Y-88985864D02*
X115837217Y-89033483D01*
X115837217Y-89033483D02*
X115884836Y-89128721D01*
X115884836Y-89128721D02*
X115884836Y-89652531D01*
X115884836Y-89128721D02*
X115932455Y-89033483D01*
X115932455Y-89033483D02*
X116027693Y-88985864D01*
X116027693Y-88985864D02*
X116170550Y-88985864D01*
X116170550Y-88985864D02*
X116265789Y-89033483D01*
X116265789Y-89033483D02*
X116313408Y-89128721D01*
X116313408Y-89128721D02*
X116313408Y-89652531D01*
X116932455Y-89652531D02*
X116837217Y-89604912D01*
X116837217Y-89604912D02*
X116789598Y-89557292D01*
X116789598Y-89557292D02*
X116741979Y-89462054D01*
X116741979Y-89462054D02*
X116741979Y-89176340D01*
X116741979Y-89176340D02*
X116789598Y-89081102D01*
X116789598Y-89081102D02*
X116837217Y-89033483D01*
X116837217Y-89033483D02*
X116932455Y-88985864D01*
X116932455Y-88985864D02*
X117075312Y-88985864D01*
X117075312Y-88985864D02*
X117170550Y-89033483D01*
X117170550Y-89033483D02*
X117218169Y-89081102D01*
X117218169Y-89081102D02*
X117265788Y-89176340D01*
X117265788Y-89176340D02*
X117265788Y-89462054D01*
X117265788Y-89462054D02*
X117218169Y-89557292D01*
X117218169Y-89557292D02*
X117170550Y-89604912D01*
X117170550Y-89604912D02*
X117075312Y-89652531D01*
X117075312Y-89652531D02*
X116932455Y-89652531D01*
X117694360Y-88985864D02*
X117694360Y-89652531D01*
X117694360Y-89081102D02*
X117741979Y-89033483D01*
X117741979Y-89033483D02*
X117837217Y-88985864D01*
X117837217Y-88985864D02*
X117980074Y-88985864D01*
X117980074Y-88985864D02*
X118075312Y-89033483D01*
X118075312Y-89033483D02*
X118122931Y-89128721D01*
X118122931Y-89128721D02*
X118122931Y-89652531D01*
X119027693Y-89652531D02*
X119027693Y-88652531D01*
X119027693Y-89604912D02*
X118932455Y-89652531D01*
X118932455Y-89652531D02*
X118741979Y-89652531D01*
X118741979Y-89652531D02*
X118646741Y-89604912D01*
X118646741Y-89604912D02*
X118599122Y-89557292D01*
X118599122Y-89557292D02*
X118551503Y-89462054D01*
X118551503Y-89462054D02*
X118551503Y-89176340D01*
X118551503Y-89176340D02*
X118599122Y-89081102D01*
X118599122Y-89081102D02*
X118646741Y-89033483D01*
X118646741Y-89033483D02*
X118741979Y-88985864D01*
X118741979Y-88985864D02*
X118932455Y-88985864D01*
X118932455Y-88985864D02*
X119027693Y-89033483D01*
X119456265Y-89604912D02*
X119551503Y-89652531D01*
X119551503Y-89652531D02*
X119741979Y-89652531D01*
X119741979Y-89652531D02*
X119837217Y-89604912D01*
X119837217Y-89604912D02*
X119884836Y-89509673D01*
X119884836Y-89509673D02*
X119884836Y-89462054D01*
X119884836Y-89462054D02*
X119837217Y-89366816D01*
X119837217Y-89366816D02*
X119741979Y-89319197D01*
X119741979Y-89319197D02*
X119599122Y-89319197D01*
X119599122Y-89319197D02*
X119503884Y-89271578D01*
X119503884Y-89271578D02*
X119456265Y-89176340D01*
X119456265Y-89176340D02*
X119456265Y-89128721D01*
X119456265Y-89128721D02*
X119503884Y-89033483D01*
X119503884Y-89033483D02*
X119599122Y-88985864D01*
X119599122Y-88985864D02*
X119741979Y-88985864D01*
X119741979Y-88985864D02*
X119837217Y-89033483D01*
X121027694Y-88747769D02*
X121075313Y-88700150D01*
X121075313Y-88700150D02*
X121170551Y-88652531D01*
X121170551Y-88652531D02*
X121408646Y-88652531D01*
X121408646Y-88652531D02*
X121503884Y-88700150D01*
X121503884Y-88700150D02*
X121551503Y-88747769D01*
X121551503Y-88747769D02*
X121599122Y-88843007D01*
X121599122Y-88843007D02*
X121599122Y-88938245D01*
X121599122Y-88938245D02*
X121551503Y-89081102D01*
X121551503Y-89081102D02*
X120980075Y-89652531D01*
X120980075Y-89652531D02*
X121599122Y-89652531D01*
X122218170Y-88652531D02*
X122313408Y-88652531D01*
X122313408Y-88652531D02*
X122408646Y-88700150D01*
X122408646Y-88700150D02*
X122456265Y-88747769D01*
X122456265Y-88747769D02*
X122503884Y-88843007D01*
X122503884Y-88843007D02*
X122551503Y-89033483D01*
X122551503Y-89033483D02*
X122551503Y-89271578D01*
X122551503Y-89271578D02*
X122503884Y-89462054D01*
X122503884Y-89462054D02*
X122456265Y-89557292D01*
X122456265Y-89557292D02*
X122408646Y-89604912D01*
X122408646Y-89604912D02*
X122313408Y-89652531D01*
X122313408Y-89652531D02*
X122218170Y-89652531D01*
X122218170Y-89652531D02*
X122122932Y-89604912D01*
X122122932Y-89604912D02*
X122075313Y-89557292D01*
X122075313Y-89557292D02*
X122027694Y-89462054D01*
X122027694Y-89462054D02*
X121980075Y-89271578D01*
X121980075Y-89271578D02*
X121980075Y-89033483D01*
X121980075Y-89033483D02*
X122027694Y-88843007D01*
X122027694Y-88843007D02*
X122075313Y-88747769D01*
X122075313Y-88747769D02*
X122122932Y-88700150D01*
X122122932Y-88700150D02*
X122218170Y-88652531D01*
X122932456Y-88747769D02*
X122980075Y-88700150D01*
X122980075Y-88700150D02*
X123075313Y-88652531D01*
X123075313Y-88652531D02*
X123313408Y-88652531D01*
X123313408Y-88652531D02*
X123408646Y-88700150D01*
X123408646Y-88700150D02*
X123456265Y-88747769D01*
X123456265Y-88747769D02*
X123503884Y-88843007D01*
X123503884Y-88843007D02*
X123503884Y-88938245D01*
X123503884Y-88938245D02*
X123456265Y-89081102D01*
X123456265Y-89081102D02*
X122884837Y-89652531D01*
X122884837Y-89652531D02*
X123503884Y-89652531D01*
X124361027Y-88652531D02*
X124170551Y-88652531D01*
X124170551Y-88652531D02*
X124075313Y-88700150D01*
X124075313Y-88700150D02*
X124027694Y-88747769D01*
X124027694Y-88747769D02*
X123932456Y-88890626D01*
X123932456Y-88890626D02*
X123884837Y-89081102D01*
X123884837Y-89081102D02*
X123884837Y-89462054D01*
X123884837Y-89462054D02*
X123932456Y-89557292D01*
X123932456Y-89557292D02*
X123980075Y-89604912D01*
X123980075Y-89604912D02*
X124075313Y-89652531D01*
X124075313Y-89652531D02*
X124265789Y-89652531D01*
X124265789Y-89652531D02*
X124361027Y-89604912D01*
X124361027Y-89604912D02*
X124408646Y-89557292D01*
X124408646Y-89557292D02*
X124456265Y-89462054D01*
X124456265Y-89462054D02*
X124456265Y-89223959D01*
X124456265Y-89223959D02*
X124408646Y-89128721D01*
X124408646Y-89128721D02*
X124361027Y-89081102D01*
X124361027Y-89081102D02*
X124265789Y-89033483D01*
X124265789Y-89033483D02*
X124075313Y-89033483D01*
X124075313Y-89033483D02*
X123980075Y-89081102D01*
X123980075Y-89081102D02*
X123932456Y-89128721D01*
X123932456Y-89128721D02*
X123884837Y-89223959D01*
X110503884Y-91262475D02*
X110503884Y-90262475D01*
X110503884Y-90262475D02*
X110884836Y-90262475D01*
X110884836Y-90262475D02*
X110980074Y-90310094D01*
X110980074Y-90310094D02*
X111027693Y-90357713D01*
X111027693Y-90357713D02*
X111075312Y-90452951D01*
X111075312Y-90452951D02*
X111075312Y-90595808D01*
X111075312Y-90595808D02*
X111027693Y-90691046D01*
X111027693Y-90691046D02*
X110980074Y-90738665D01*
X110980074Y-90738665D02*
X110884836Y-90786284D01*
X110884836Y-90786284D02*
X110503884Y-90786284D01*
X111503884Y-91262475D02*
X111503884Y-90262475D01*
X111932455Y-91262475D02*
X111932455Y-90738665D01*
X111932455Y-90738665D02*
X111884836Y-90643427D01*
X111884836Y-90643427D02*
X111789598Y-90595808D01*
X111789598Y-90595808D02*
X111646741Y-90595808D01*
X111646741Y-90595808D02*
X111551503Y-90643427D01*
X111551503Y-90643427D02*
X111503884Y-90691046D01*
X112313408Y-90595808D02*
X112551503Y-91262475D01*
X112789598Y-90595808D02*
X112551503Y-91262475D01*
X112551503Y-91262475D02*
X112456265Y-91500570D01*
X112456265Y-91500570D02*
X112408646Y-91548189D01*
X112408646Y-91548189D02*
X112313408Y-91595808D01*
X113122932Y-91214856D02*
X113218170Y-91262475D01*
X113218170Y-91262475D02*
X113408646Y-91262475D01*
X113408646Y-91262475D02*
X113503884Y-91214856D01*
X113503884Y-91214856D02*
X113551503Y-91119617D01*
X113551503Y-91119617D02*
X113551503Y-91071998D01*
X113551503Y-91071998D02*
X113503884Y-90976760D01*
X113503884Y-90976760D02*
X113408646Y-90929141D01*
X113408646Y-90929141D02*
X113265789Y-90929141D01*
X113265789Y-90929141D02*
X113170551Y-90881522D01*
X113170551Y-90881522D02*
X113122932Y-90786284D01*
X113122932Y-90786284D02*
X113122932Y-90738665D01*
X113122932Y-90738665D02*
X113170551Y-90643427D01*
X113170551Y-90643427D02*
X113265789Y-90595808D01*
X113265789Y-90595808D02*
X113408646Y-90595808D01*
X113408646Y-90595808D02*
X113503884Y-90643427D01*
X113980075Y-91262475D02*
X113980075Y-90595808D01*
X113980075Y-90262475D02*
X113932456Y-90310094D01*
X113932456Y-90310094D02*
X113980075Y-90357713D01*
X113980075Y-90357713D02*
X114027694Y-90310094D01*
X114027694Y-90310094D02*
X113980075Y-90262475D01*
X113980075Y-90262475D02*
X113980075Y-90357713D01*
X114884836Y-91214856D02*
X114789598Y-91262475D01*
X114789598Y-91262475D02*
X114599122Y-91262475D01*
X114599122Y-91262475D02*
X114503884Y-91214856D01*
X114503884Y-91214856D02*
X114456265Y-91167236D01*
X114456265Y-91167236D02*
X114408646Y-91071998D01*
X114408646Y-91071998D02*
X114408646Y-90786284D01*
X114408646Y-90786284D02*
X114456265Y-90691046D01*
X114456265Y-90691046D02*
X114503884Y-90643427D01*
X114503884Y-90643427D02*
X114599122Y-90595808D01*
X114599122Y-90595808D02*
X114789598Y-90595808D01*
X114789598Y-90595808D02*
X114884836Y-90643427D01*
X115265789Y-91214856D02*
X115361027Y-91262475D01*
X115361027Y-91262475D02*
X115551503Y-91262475D01*
X115551503Y-91262475D02*
X115646741Y-91214856D01*
X115646741Y-91214856D02*
X115694360Y-91119617D01*
X115694360Y-91119617D02*
X115694360Y-91071998D01*
X115694360Y-91071998D02*
X115646741Y-90976760D01*
X115646741Y-90976760D02*
X115551503Y-90929141D01*
X115551503Y-90929141D02*
X115408646Y-90929141D01*
X115408646Y-90929141D02*
X115313408Y-90881522D01*
X115313408Y-90881522D02*
X115265789Y-90786284D01*
X115265789Y-90786284D02*
X115265789Y-90738665D01*
X115265789Y-90738665D02*
X115313408Y-90643427D01*
X115313408Y-90643427D02*
X115408646Y-90595808D01*
X115408646Y-90595808D02*
X115551503Y-90595808D01*
X115551503Y-90595808D02*
X115646741Y-90643427D01*
X117408646Y-91262475D02*
X116837218Y-91262475D01*
X117122932Y-91262475D02*
X117122932Y-90262475D01*
X117122932Y-90262475D02*
X117027694Y-90405332D01*
X117027694Y-90405332D02*
X116932456Y-90500570D01*
X116932456Y-90500570D02*
X116837218Y-90548189D01*
X118027694Y-90262475D02*
X118122932Y-90262475D01*
X118122932Y-90262475D02*
X118218170Y-90310094D01*
X118218170Y-90310094D02*
X118265789Y-90357713D01*
X118265789Y-90357713D02*
X118313408Y-90452951D01*
X118313408Y-90452951D02*
X118361027Y-90643427D01*
X118361027Y-90643427D02*
X118361027Y-90881522D01*
X118361027Y-90881522D02*
X118313408Y-91071998D01*
X118313408Y-91071998D02*
X118265789Y-91167236D01*
X118265789Y-91167236D02*
X118218170Y-91214856D01*
X118218170Y-91214856D02*
X118122932Y-91262475D01*
X118122932Y-91262475D02*
X118027694Y-91262475D01*
X118027694Y-91262475D02*
X117932456Y-91214856D01*
X117932456Y-91214856D02*
X117884837Y-91167236D01*
X117884837Y-91167236D02*
X117837218Y-91071998D01*
X117837218Y-91071998D02*
X117789599Y-90881522D01*
X117789599Y-90881522D02*
X117789599Y-90643427D01*
X117789599Y-90643427D02*
X117837218Y-90452951D01*
X117837218Y-90452951D02*
X117884837Y-90357713D01*
X117884837Y-90357713D02*
X117932456Y-90310094D01*
X117932456Y-90310094D02*
X118027694Y-90262475D01*
X118932456Y-90691046D02*
X118837218Y-90643427D01*
X118837218Y-90643427D02*
X118789599Y-90595808D01*
X118789599Y-90595808D02*
X118741980Y-90500570D01*
X118741980Y-90500570D02*
X118741980Y-90452951D01*
X118741980Y-90452951D02*
X118789599Y-90357713D01*
X118789599Y-90357713D02*
X118837218Y-90310094D01*
X118837218Y-90310094D02*
X118932456Y-90262475D01*
X118932456Y-90262475D02*
X119122932Y-90262475D01*
X119122932Y-90262475D02*
X119218170Y-90310094D01*
X119218170Y-90310094D02*
X119265789Y-90357713D01*
X119265789Y-90357713D02*
X119313408Y-90452951D01*
X119313408Y-90452951D02*
X119313408Y-90500570D01*
X119313408Y-90500570D02*
X119265789Y-90595808D01*
X119265789Y-90595808D02*
X119218170Y-90643427D01*
X119218170Y-90643427D02*
X119122932Y-90691046D01*
X119122932Y-90691046D02*
X118932456Y-90691046D01*
X118932456Y-90691046D02*
X118837218Y-90738665D01*
X118837218Y-90738665D02*
X118789599Y-90786284D01*
X118789599Y-90786284D02*
X118741980Y-90881522D01*
X118741980Y-90881522D02*
X118741980Y-91071998D01*
X118741980Y-91071998D02*
X118789599Y-91167236D01*
X118789599Y-91167236D02*
X118837218Y-91214856D01*
X118837218Y-91214856D02*
X118932456Y-91262475D01*
X118932456Y-91262475D02*
X119122932Y-91262475D01*
X119122932Y-91262475D02*
X119218170Y-91214856D01*
X119218170Y-91214856D02*
X119265789Y-91167236D01*
X119265789Y-91167236D02*
X119313408Y-91071998D01*
X119313408Y-91071998D02*
X119313408Y-90881522D01*
X119313408Y-90881522D02*
X119265789Y-90786284D01*
X119265789Y-90786284D02*
X119218170Y-90738665D01*
X119218170Y-90738665D02*
X119122932Y-90691046D01*
X110503884Y-92872419D02*
X110503884Y-91872419D01*
X110503884Y-91872419D02*
X110837217Y-92586704D01*
X110837217Y-92586704D02*
X111170550Y-91872419D01*
X111170550Y-91872419D02*
X111170550Y-92872419D01*
X112122931Y-92872419D02*
X111646741Y-92872419D01*
X111646741Y-92872419D02*
X111646741Y-91872419D01*
M02*
